<?xml version="1.0" encoding="utf-8"?>
<!-- Generator: Adobe Illustrator 24.3.0, SVG Export Plug-In . SVG Version: 6.00 Build 0)  -->
<svg version="1.1" id="Слой_1" xmlns="http://www.w3.org/2000/svg" xmlns:xlink="http://www.w3.org/1999/xlink" x="0px" y="0px"
	 viewBox="0 0 811.9 1793.9" style="enable-background:new 0 0 811.9 1793.9;" xml:space="preserve">
<style type="text/css">
	.st0{opacity:0.25;}
	.st1{fill:none;stroke:#000000;stroke-width:10;stroke-miterlimit:10;}
	.st2{fill:none;stroke:#000000;stroke-width:5;stroke-miterlimit:10;}
	.st3{fill:none;stroke:#000000;stroke-width:5;stroke-miterlimit:10;stroke-dasharray:18;}
	.st4{font-family:'ArialMT';}
	.st5{font-size:32px;}
	.st6{font-size:24px;}
	.st7{font-size:16px;}
	.st8{font-size:12px;}
</style>
<g id="Слой_1_1_" class="st0">
</g>
<g id="Слой_2_1_">
	<path class="st1" d="M129.3,1410v164.7h94v50h23v20h-68.9c45.4,87.5,117.1,123.5,135.3,131.5l11.3-25.5h36.1 M129.3,1105.3V1394
		 M66.3,976v43.4l41.9,36.3h21.1v36.5 M74.1,736.5l-7.9,11.7v158.2 M121.3,539.1v157.6h-20.3l-19.4,28.8 M121.3,406.7v123.5
		 M121.3,364.7v31.1 M121.3,253.2v103.3 M121.3,223.5V240 M185.1,62.7h-63.8v146 M326.6,85.4h-82.3V62.7h-46.5 M382.4,14.7h-7.2
		v70.8h-7.3 M432.3,14.7h-34 M520.3,14.7h-15.5 M545.3,14.7h-11.5 M576.8,14.7h-11.3 M639.8,68.7h-38.5v-54h-10.1 M725.1,121.7
		h-27.8v-53h-46.5 M800.3,390.8v-51.3l-21-25v-50.6l-15-28v-71.3L738.2,136 M701.3,604.2V464.7h22.5l49.5-33 M739.3,771.1
		l-17.1-17.5h-20.9V623 M770.3,953.5V802.7l-20.2-20.5 M770.3,1342.5V978.2 M480.9,1750.7h37.7l11.2,28.1
		c55-27.6,89.2-62.8,108.4-87.9c14.3-18.8,22.6-34.7,26.5-43.2h-70.5v-24h12v-44h102v-149h27.8l34.2-36v-38.5 M800.3,397.5v48.2"/>
	<polyline class="st2" points="189.3,1664.7 326.3,1664.7 326.3,1620.7 357.3,1620.7 357.3,1564.7 	"/>
	<polyline class="st2" points="265.8,1663.2 265.8,1638.2 273.3,1638.2 273.3,1564.7 	"/>
	<polyline class="st2" points="248.8,1624.2 259.8,1624.2 259.8,1564.7 336.8,1564.7 	"/>
	<polyline class="st2" points="258.8,1597.2 241.8,1597.2 241.8,1562.2 223.8,1562.2 	"/>
	<line class="st2" x1="223.8" y1="1570.9" x2="223.8" y2="1510.2"/>
	<line class="st2" x1="207.8" y1="1523.2" x2="221.8" y2="1523.2"/>
	<line class="st2" x1="198.1" y1="1523.2" x2="132.8" y2="1523.2"/>
	<line class="st2" x1="184.8" y1="1522.2" x2="184.8" y2="1510.2"/>
	<line class="st2" x1="184.8" y1="1498.4" x2="184.8" y2="1474.2"/>
	<line class="st2" x1="184.8" y1="1463.8" x2="184.8" y2="1446.2"/>
	<line class="st2" x1="131.8" y1="1485.2" x2="225.8" y2="1485.2"/>
	<line class="st2" x1="223.8" y1="1498.4" x2="223.8" y2="1460.9"/>
	<line class="st2" x1="132.8" y1="1448" x2="194.8" y2="1448"/>
	<line class="st2" x1="131.8" y1="1417.8" x2="212.8" y2="1417.8"/>
	<polyline class="st2" points="132.8,1357.1 212.8,1357.1 212.8,1392 	"/>
	<polyline class="st2" points="131.8,1328.2 223.8,1328.2 223.8,1342.4 	"/>
	<polyline class="st2" points="160.8,1327.2 160.8,1312.2 165.4,1312.2 	"/>
	<line class="st2" x1="175.8" y1="1313.2" x2="175.8" y2="1278.7"/>
	<polyline class="st2" points="189.3,1313.2 223.8,1313.2 223.8,1234.2 	"/>
	<line class="st2" x1="131.8" y1="1277.8" x2="223.8" y2="1277.8"/>
	<line class="st2" x1="212.8" y1="1451.3" x2="212.8" y2="1413.8"/>
	<line class="st2" x1="204.9" y1="1448" x2="211.6" y2="1448"/>
	<line class="st2" x1="132.8" y1="1238.2" x2="200.8" y2="1238.2"/>
	<line class="st2" x1="214.3" y1="1238.2" x2="222.8" y2="1238.2"/>
	<line class="st2" x1="194.8" y1="1236.8" x2="194.8" y2="1228.2"/>
	<line class="st2" x1="194.8" y1="1218" x2="194.8" y2="1191.2"/>
	<line class="st2" x1="132.8" y1="1208.2" x2="193.8" y2="1208.2"/>
	<polyline class="st2" points="236.8,1213.2 223.8,1213.2 223.8,1094.2 	"/>
	<line class="st2" x1="214.3" y1="1177.8" x2="222.8" y2="1177.8"/>
	<line class="st2" x1="214.3" y1="1144" x2="222.8" y2="1144"/>
	<line class="st2" x1="200.8" y1="1177.8" x2="131.8" y2="1177.8"/>
	<line class="st2" x1="200.8" y1="1144" x2="132.8" y2="1144"/>
	<line class="st2" x1="132.8" y1="1110.2" x2="223.8" y2="1110.2"/>
	<polyline class="st2" points="125.8,1112.2 109.8,1112.2 109.8,1072.2 	"/>
	<line class="st2" x1="109.8" y1="1065.5" x2="109.8" y2="1059.3"/>
	<polyline class="st2" points="132.8,1074.3 223.8,1074.3 223.8,1042 	"/>
	<polyline class="st2" points="222.8,1062.4 151.8,1062.4 151.8,1040 113.8,1040 89.8,1020.2 69.8,1020.2 	"/>
	<line class="st2" x1="223.8" y1="1027.2" x2="223.8" y2="992.8"/>
	<polyline class="st2" points="69.8,991.8 233.8,991.8 233.8,964 	"/>
	<polyline class="st2" points="233.8,922.2 233.8,890.7 123.8,890.7 	"/>
	<line class="st2" x1="115.8" y1="890.2" x2="67.8" y2="890.2"/>
	<line class="st2" x1="129.4" y1="890.2" x2="129.4" y2="858.9"/>
	<line class="st2" x1="209.2" y1="890.2" x2="209.2" y2="876.2"/>
	<line class="st2" x1="208.8" y1="864.2" x2="208.8" y2="841.3"/>
	<line class="st2" x1="208.8" y1="833.8" x2="208.8" y2="799.2"/>
	<polyline class="st2" points="68.8,858.2 177.2,858.2 207.8,858.2 	"/>
	<path class="st2" d="M207.8,823.8"/>
	<line class="st2" x1="236.8" y1="815.3" x2="209.2" y2="815.3"/>
	<polyline class="st2" points="176.8,857.2 176.8,823.8 207.8,823.8 	"/>
	<line class="st2" x1="82.5" y1="857.2" x2="82.5" y2="747.1"/>
	<polyline class="st2" points="69.8,747.1 132.8,747.1 132.8,718.2 87.8,718.2 	"/>
	<line class="st2" x1="208.8" y1="791.1" x2="208.8" y2="699.2"/>
	<line class="st2" x1="123.8" y1="699.2" x2="250.9" y2="699.2"/>
	<line class="st2" x1="236.8" y1="697.5" x2="236.8" y2="689.2"/>
	<line class="st2" x1="264.3" y1="699.2" x2="320.7" y2="699.2"/>
	<line class="st2" x1="293.8" y1="697.5" x2="293.8" y2="690"/>
	<line class="st2" x1="236.8" y1="644.2" x2="236.8" y2="626.2"/>
	<polyline class="st2" points="235.6,635.2 202.8,635.2 202.8,582.2 	"/>
	<line class="st2" x1="164.8" y1="613.2" x2="164.8" y2="581.3"/>
	<line class="st2" x1="123.8" y1="581.3" x2="183.8" y2="581.3"/>
	<line class="st2" x1="192.3" y1="581.3" x2="215.8" y2="581.3"/>
	<line class="st2" x1="223" y1="581.3" x2="245.4" y2="581.3"/>
	<line class="st2" x1="253.6" y1="581.3" x2="444.8" y2="581.3"/>
	<line class="st2" x1="236.8" y1="618.2" x2="236.8" y2="569.2"/>
	<line class="st2" x1="176.8" y1="580.2" x2="176.8" y2="537.1"/>
	<line class="st2" x1="174.8" y1="548.2" x2="145.8" y2="548.2"/>
	<line class="st2" x1="136.7" y1="548.2" x2="123.8" y2="548.2"/>
	<line class="st2" x1="123.8" y1="517.3" x2="141.8" y2="517.3"/>
	<line class="st2" x1="137.8" y1="513.2" x2="160.8" y2="513.2"/>
	<line class="st2" x1="157.4" y1="517.3" x2="176.8" y2="517.3"/>
	<line class="st2" x1="176.8" y1="529.1" x2="176.8" y2="500.9"/>
	<line class="st2" x1="176.8" y1="493.5" x2="176.8" y2="436.2"/>
	<line class="st2" x1="176.8" y1="427.3" x2="176.8" y2="386.2"/>
	<line class="st2" x1="123.8" y1="483.3" x2="159.2" y2="483.3"/>
	<line class="st2" x1="167.1" y1="483.3" x2="175.8" y2="483.3"/>
	<line class="st2" x1="123.8" y1="420.2" x2="160.3" y2="420.2"/>
	<line class="st2" x1="168.1" y1="420.2" x2="175.8" y2="420.2"/>
	<line class="st2" x1="123.8" y1="386.2" x2="179.3" y2="386.2"/>
	<line class="st2" x1="123.8" y1="336" x2="144.8" y2="336"/>
	<polyline class="st2" points="152.8,336.2 211.8,336.2 211.8,330.2 	"/>
	<line class="st2" x1="211.8" y1="321.2" x2="211.8" y2="306.7"/>
	<polyline class="st2" points="211.8,299 211.8,290.5 123.8,290.5 	"/>
	<line class="st2" x1="165.8" y1="335.2" x2="165.8" y2="285.7"/>
	<line class="st2" x1="186.9" y1="335.2" x2="186.9" y2="313.9"/>
	<line class="st2" x1="210.3" y1="313.9" x2="167.1" y2="313.9"/>
	<line class="st2" x1="140.8" y1="290.2" x2="140.8" y2="285.7"/>
	<line class="st2" x1="140.8" y1="276.8" x2="140.8" y2="260.8"/>
	<line class="st2" x1="211.8" y1="279.8" x2="211.8" y2="272.2"/>
	<line class="st2" x1="211.8" y1="264.2" x2="211.8" y2="225.2"/>
	<line class="st2" x1="211.8" y1="216.3" x2="211.8" y2="186.2"/>
	<polyline class="st2" points="210.3,276 186.9,276 186.9,272.8 165.8,272.8 	"/>
	<line class="st2" x1="165.8" y1="276.8" x2="165.8" y2="260.8"/>
	<line class="st2" x1="211.8" y1="177.5" x2="211.8" y2="157.2"/>
	<line class="st2" x1="221.8" y1="172.2" x2="161.6" y2="172.2"/>
	<line class="st2" x1="168.1" y1="171.3" x2="168.1" y2="167.3"/>
	<line class="st2" x1="168.1" y1="159.8" x2="168.1" y2="145.2"/>
	<line class="st2" x1="180.3" y1="171.3" x2="180.3" y2="137"/>
	<line class="st2" x1="133.1" y1="172.2" x2="123.3" y2="172.2"/>
	<polyline class="st2" points="142,172.2 151.5,172.2 151.5,145.2 	"/>
	<polyline class="st2" points="123.8,145.2 211.8,145.2 211.8,122.2 180.3,122.2 180.3,128.2 	"/>
	<polyline class="st2" points="169.6,122.2 165.8,122.2 165.8,83 	"/>
	<line class="st2" x1="163.8" y1="106.2" x2="124.4" y2="106.2"/>
	<polyline class="st2" points="179.3,66.3 179.3,83.8 221.1,83.8 	"/>
	<line class="st2" x1="229.8" y1="83.8" x2="240.4" y2="83.8"/>
	<line class="st2" x1="195.8" y1="171.2" x2="195.8" y2="157.2"/>
	<line class="st2" x1="242.8" y1="89.2" x2="242.8" y2="124.2"/>
	<polyline class="st2" points="242.8,133.7 242.8,167.3 326.6,167.3 	"/>
	<line class="st2" x1="294.8" y1="177.2" x2="294.8" y2="158.7"/>
	<polyline class="st2" points="294.8,149.8 294.8,115.2 304.6,115.2 	"/>
	<line class="st2" x1="312.4" y1="115.2" x2="326.6" y2="115.2"/>
	<line class="st2" x1="326.6" y1="141.8" x2="295.8" y2="141.8"/>
	<polyline class="st2" points="316.8,89.2 316.8,189.2 237.8,189.2 	"/>
	<line class="st2" x1="229.8" y1="172.2" x2="243.8" y2="172.2"/>
	<line class="st2" x1="240.4" y1="194.2" x2="240.4" y2="184.5"/>
	<line class="st2" x1="241.3" y1="177.2" x2="241.3" y2="172.8"/>
	<polyline class="st2" points="648.8,1669.2 510.8,1669.2 510.8,1566.2 503.8,1566.2 	"/>
	<polyline class="st2" points="487.6,1566.2 478.3,1566.2 478.3,1622.9 509.8,1622.9 	"/>
	<line class="st2" x1="484.8" y1="1661.2" x2="509.8" y2="1661.2"/>
	<polyline class="st2" points="578.8,1668.2 578.8,1545.8 585.8,1545.8 	"/>
	<line class="st2" x1="595.8" y1="1546.2" x2="602.7" y2="1546.2"/>
	<line class="st2" x1="603.8" y1="1575.2" x2="603.8" y2="1503.2"/>
	<polyline class="st2" points="602.7,1510 567.2,1510 567.2,1478.4 562.1,1478.4 	"/>
	<line class="st2" x1="578.8" y1="1599.5" x2="602.8" y2="1599.5"/>
	<polyline class="st2" points="577.8,1567.2 540.8,1567.2 540.8,1561.3 	"/>
	<line class="st2" x1="543.6" y1="1575.2" x2="543.6" y2="1568.2"/>
	<polyline class="st2" points="577.8,1545.8 540.8,1545.8 540.8,1465.1 	"/>
	<line class="st2" x1="546.8" y1="1477.2" x2="542.1" y2="1477.2"/>
	<polyline class="st2" points="703.8,1563.2 689.8,1563.2 689.8,1452.2 	"/>
	<line class="st2" x1="703.8" y1="1452.2" x2="602.7" y2="1452.2"/>
	<polyline class="st2" points="602.7,1482.7 602.7,1386.2 620.8,1386.2 	"/>
	<polyline class="st2" points="603.8,1422 614.8,1422 614.8,1419.3 	"/>
	<line class="st2" x1="633.2" y1="1386.2" x2="651.8" y2="1386.2"/>
	<line class="st2" x1="651.8" y1="1427.1" x2="651.8" y2="1380.9"/>
	<line class="st2" x1="640.8" y1="1422.2" x2="709.6" y2="1422.2"/>
	<line class="st2" x1="696.8" y1="1426" x2="709.6" y2="1426"/>
	<line class="st2" x1="696.8" y1="1430.4" x2="705.8" y2="1430.4"/>
	<polyline class="st2" points="653.2,1367.8 653.2,1362.4 707.6,1362.4 	"/>
	<line class="st2" x1="698.8" y1="1356.2" x2="698.8" y2="1422"/>
	<polyline class="st2" points="716.8,1379.2 716.8,1407.2 745.1,1378.8 714.3,1378.8 	"/>
	<line class="st2" x1="719.9" y1="1362.4" x2="765.8" y2="1362.4"/>
	<line class="st2" x1="749.8" y1="1361.2" x2="749.8" y2="1356.2"/>
	<line class="st2" x1="749.8" y1="1342.5" x2="749.8" y2="1334.2"/>
	<line class="st2" x1="732.3" y1="1342.5" x2="732.3" y2="1333.7"/>
	<polyline class="st2" points="765.8,1333.1 698.8,1333.1 698.8,1324.9 690.8,1324.9 690.8,1291.4 	"/>
	<line class="st2" x1="765.8" y1="1301.2" x2="691.8" y2="1301.2"/>
	<line class="st2" x1="653.2" y1="1324.3" x2="670.8" y2="1324.3"/>
	<line class="st2" x1="639.3" y1="1324.3" x2="630.8" y2="1324.3"/>
	<polyline class="st2" points="620.2,1324.3 602.7,1324.3 602.7,1207.8 	"/>
	<line class="st2" x1="603.8" y1="1216.5" x2="663.8" y2="1216.5"/>
	<line class="st2" x1="603.8" y1="1255" x2="663.8" y2="1255"/>
	<line class="st2" x1="663.8" y1="1207.8" x2="663.8" y2="1226.9"/>
	<line class="st2" x1="663.8" y1="1235" x2="663.8" y2="1259.2"/>
	<line class="st2" x1="647.8" y1="1257.2" x2="647.8" y2="1262.4"/>
	<line class="st2" x1="647.8" y1="1270.7" x2="647.8" y2="1285"/>
	<line class="st2" x1="647.8" y1="1293.5" x2="647.8" y2="1301.2"/>
	<polyline class="st2" points="663.8,1323.1 663.8,1302.4 603.8,1302.4 	"/>
	<line class="st2" x1="635.9" y1="1323.1" x2="635.9" y2="1303.7"/>
	<line class="st2" x1="615.9" y1="1323.1" x2="615.9" y2="1320.2"/>
	<line class="st2" x1="615.8" y1="1315.2" x2="615.8" y2="1303.7"/>
	<line class="st2" x1="645.8" y1="1278.2" x2="611.7" y2="1278.2"/>
	<line class="st2" x1="611.7" y1="1301.2" x2="611.7" y2="1256.2"/>
	<line class="st2" x1="690.8" y1="1272.7" x2="690.8" y2="1228.2"/>
	<line class="st2" x1="690.8" y1="1209.1" x2="690.8" y2="1140.7"/>
	<line class="st2" x1="690.8" y1="1119.1" x2="690.8" y2="1102.4"/>
	<line class="st2" x1="690.8" y1="1084.2" x2="690.8" y2="1040.2"/>
	<line class="st2" x1="690.8" y1="1020.2" x2="690.8" y2="978.2"/>
	<line class="st2" x1="691.8" y1="1237.5" x2="766.8" y2="1237.5"/>
	<line class="st2" x1="691.8" y1="1203.1" x2="766.8" y2="1203.1"/>
	<line class="st2" x1="691.8" y1="1110.8" x2="766.8" y2="1110.8"/>
	<line class="st2" x1="691.8" y1="1075.3" x2="765.8" y2="1075.3"/>
	<line class="st2" x1="691.8" y1="985.1" x2="766.8" y2="985.1"/>
	<line class="st2" x1="663.8" y1="1198.9" x2="663.8" y2="1166.2"/>
	<polyline class="st2" points="601.8,1193.2 601.8,1113.2 663.8,1113.2 	"/>
	<line class="st2" x1="663.8" y1="1147.5" x2="663.8" y2="1072.2"/>
	<line class="st2" x1="603.8" y1="1170.7" x2="662" y2="1170.7"/>
	<polyline class="st2" points="599.6,1153.2 538.8,1153.2 538.8,1049.2 663.8,1049.2 	"/>
	<line class="st2" x1="663.8" y1="1057.5" x2="663.8" y2="1011.2"/>
	<line class="st2" x1="663.8" y1="991.8" x2="663.8" y2="895.2"/>
	<line class="st2" x1="697.8" y1="945.2" x2="765.8" y2="945.2"/>
	<line class="st2" x1="536.8" y1="1085.2" x2="496.8" y2="1085.2"/>
	<line class="st2" x1="478.5" y1="1085.2" x2="354.8" y2="1085.2"/>
	<polyline class="st2" points="354.8,1046.4 354.8,1161.2 371.8,1175.2 476.8,1175.2 476.8,1239.1 415.8,1239.1 	"/>
	<line class="st2" x1="445.8" y1="1237.2" x2="445.8" y2="1191.2"/>
	<polyline class="st2" points="444.8,1198.2 349.8,1198.2 335.2,1214.2 275.4,1214.2 	"/>
	<line class="st2" x1="335.8" y1="1219.2" x2="335.8" y2="1214.2"/>
	<line class="st2" x1="295.6" y1="1213.2" x2="295.6" y2="1208.2"/>
	<line class="st2" x1="295.6" y1="1191.2" x2="295.6" y2="1094.2"/>
	<line class="st2" x1="295.6" y1="1085.2" x2="295.6" y2="1074.3"/>
	<line class="st2" x1="295.8" y1="1066.2" x2="295.8" y2="1046.4"/>
	<line class="st2" x1="295.8" y1="1038.2" x2="295.8" y2="1026"/>
	<line class="st2" x1="295.8" y1="1017.5" x2="295.8" y2="994.2"/>
	<line class="st2" x1="331.2" y1="994.2" x2="331.2" y2="1123.2"/>
	<line class="st2" x1="331.2" y1="1131.3" x2="331.2" y2="1142.2"/>
	<line class="st2" x1="331.2" y1="1152.4" x2="331.2" y2="1147.8"/>
	<polyline class="st2" points="296.8,1153.7 332.4,1153.7 332.4,1166.8 	"/>
	<line class="st2" x1="296.8" y1="1165" x2="305.6" y2="1165"/>
	<line class="st2" x1="316.8" y1="1162.2" x2="316.8" y2="1155.7"/>
	<line class="st2" x1="296.8" y1="1136.2" x2="329.8" y2="1136.2"/>
	<line class="st2" x1="296.8" y1="1119.5" x2="329.8" y2="1119.5"/>
	<line class="st2" x1="296.8" y1="1079.7" x2="329.8" y2="1079.7"/>
	<line class="st2" x1="329.8" y1="1062.4" x2="296.8" y2="1062.4"/>
	<line class="st2" x1="296.8" y1="1049.7" x2="329.8" y2="1049.7"/>
	<line class="st2" x1="296.8" y1="1031.3" x2="329.8" y2="1031.3"/>
	<line class="st2" x1="296.8" y1="1010" x2="329.8" y2="1010"/>
	<line class="st2" x1="288.8" y1="1216.2" x2="288.8" y2="1320.2"/>
	<line class="st2" x1="288.8" y1="1342.4" x2="288.8" y2="1384.3"/>
	<polyline class="st2" points="288.8,1405.8 288.8,1461.8 302.3,1461.8 336.4,1427.7 336.4,1235.2 	"/>
	<line class="st2" x1="273.3" y1="1563.8" x2="273.3" y2="1510.2"/>
	<polyline class="st2" points="273.3,1501.3 273.3,1483.2 280.3,1483.2 280.3,1467.2 288.5,1458.9 	"/>
	<polyline class="st2" points="337.8,1421.2 416.8,1421.2 416.8,1431.2 534.8,1431.2 	"/>
	<line class="st2" x1="534.8" y1="1442.3" x2="534.8" y2="1419.2"/>
	<polyline class="st2" points="534.8,1406.2 534.8,1391.2 565.8,1391.2 	"/>
	<polyline class="st2" points="562.8,1430.2 565.8,1430.2 565.8,1303.7 	"/>
	<line class="st2" x1="600.9" y1="1303.7" x2="587.8" y2="1303.7"/>
	<line class="st2" x1="583.3" y1="1303.7" x2="337.8" y2="1302.7"/>
	<polyline class="st2" points="625.8,1137.2 620.8,1137.2 620.8,1118.2 647.8,1118.2 647.8,1137.2 643.3,1137.2 	"/>
	<line class="st2" x1="638.4" y1="1137.2" x2="631.8" y2="1137.2"/>
	<line class="st2" x1="634.8" y1="1136.2" x2="634.8" y2="1119"/>
	<polyline class="st2" points="260.3,994.2 335.8,994.2 335.8,892.4 	"/>
	<line class="st2" x1="273.8" y1="992.8" x2="273.8" y2="972.4"/>
	<line class="st2" x1="273.8" y1="959.8" x2="273.8" y2="925.2"/>
	<line class="st2" x1="273.8" y1="913.1" x2="273.8" y2="817.5"/>
	<line class="st2" x1="273.8" y1="942.5" x2="335.8" y2="942.5"/>
	<line class="st2" x1="275.4" y1="893.8" x2="766.8" y2="893.8"/>
	<polyline class="st2" points="697.8,892.2 697.8,821.2 739.8,821.2 	"/>
	<line class="st2" x1="747.6" y1="821.2" x2="766.8" y2="821.2"/>
	<line class="st2" x1="269.8" y1="817.5" x2="285.2" y2="817.5"/>
	<line class="st2" x1="291.8" y1="817.2" x2="328.1" y2="817.2"/>
	<line class="st2" x1="335.8" y1="817.5" x2="345.8" y2="817.5"/>
	<line class="st2" x1="352.9" y1="817.2" x2="373.4" y2="817.2"/>
	<polyline class="st2" points="305.6,818.9 305.6,840.4 373.4,840.4 	"/>
	<line class="st2" x1="339.5" y1="818.9" x2="339.5" y2="839.3"/>
	<line class="st2" x1="550.7" y1="892.4" x2="550.7" y2="878.9"/>
	<line class="st2" x1="550.7" y1="868.2" x2="550.7" y2="774.2"/>
	<polyline class="st2" points="548.8,853.2 373.4,853.2 373.4,796.2 529.8,796.2 	"/>
	<line class="st2" x1="538.8" y1="796.2" x2="548.8" y2="796.2"/>
	<line class="st2" x1="551.8" y1="784.2" x2="576.9" y2="784.2"/>
	<polyline class="st2" points="585.2,784.2 700.8,784.2 700.8,757.2 	"/>
	<line class="st2" x1="636.8" y1="782.2" x2="636.8" y2="772.9"/>
	<line class="st2" x1="636.8" y1="765.3" x2="636.8" y2="721.5"/>
	<line class="st2" x1="638.8" y1="728.2" x2="697.8" y2="728.2"/>
	<line class="st2" x1="636.8" y1="711.1" x2="636.8" y2="683.3"/>
	<line class="st2" x1="636.8" y1="676" x2="636.8" y2="640.7"/>
	<line class="st2" x1="627.2" y1="640.7" x2="697.8" y2="640.7"/>
	<line class="st2" x1="638.8" y1="697.2" x2="697.8" y2="697.2"/>
	<polyline class="st2" points="478.8,755.2 465.6,755.2 465.6,697.2 602.3,697.2 	"/>
	<polyline class="st2" points="486.5,755.2 602.3,755.2 602.3,617.2 	"/>
	<line class="st2" x1="603.8" y1="640.7" x2="614.8" y2="640.7"/>
	<polyline class="st2" points="328.1,755.2 320.7,755.2 320.7,582.2 	"/>
	<polyline class="st2" points="335.8,755.2 444.8,755.2 444.8,722.9 	"/>
	<line class="st2" x1="444.8" y1="715.5" x2="444.8" y2="679.3"/>
	<line class="st2" x1="444.8" y1="671.5" x2="444.8" y2="602"/>
	<line class="st2" x1="444.8" y1="593.7" x2="444.8" y2="549.2"/>
	<line class="st2" x1="444.8" y1="541.1" x2="444.8" y2="443.1"/>
	<line class="st2" x1="444.8" y1="434.7" x2="444.8" y2="406.2"/>
	<line class="st2" x1="378.8" y1="754.2" x2="378.8" y2="745.2"/>
	<polyline class="st2" points="378.8,736.7 378.8,706.2 444.8,706.2 	"/>
	<line class="st2" x1="379.8" y1="722.9" x2="392.7" y2="722.9"/>
	<polyline class="st2" points="400.3,722.9 410.5,722.9 410.5,707.8 	"/>
	<line class="st2" x1="378.8" y1="675.1" x2="378.8" y2="597.3"/>
	<line class="st2" x1="379.8" y1="590.2" x2="379.8" y2="583.8"/>
	<line class="st2" x1="379.8" y1="636.8" x2="443.8" y2="636.8"/>
	<line class="st2" x1="378.8" y1="693.3" x2="378.8" y2="684.4"/>
	<line class="st2" x1="379.8" y1="667.2" x2="386.3" y2="667.2"/>
	<polyline class="st2" points="392.7,666.2 398.3,666.2 398.3,626.2 389.4,626.2 	"/>
	<line class="st2" x1="389.4" y1="649.3" x2="397.4" y2="649.3"/>
	<line class="st2" x1="443.8" y1="661.5" x2="437.4" y2="661.5"/>
	<line class="st2" x1="430.3" y1="661.5" x2="398.3" y2="661.5"/>
	<polyline class="st2" points="389.4,605.1 398.3,605.1 398.3,612.2 430.3,612.2 	"/>
	<line class="st2" x1="437.4" y1="612.2" x2="443.8" y2="612.2"/>
	<line class="st2" x1="416.8" y1="648.2" x2="416.8" y2="625.2"/>
	<polyline class="st2" points="295.8,577.2 286.8,577.2 286.8,550.2 236.8,550.2 	"/>
	<line class="st2" x1="236.8" y1="561.5" x2="236.8" y2="359.2"/>
	<line class="st2" x1="236.8" y1="348.4" x2="236.8" y2="290.2"/>
	<polyline class="st2" points="236.8,282.7 236.8,274.4 294.1,274.4 294.1,462.4 373.2,462.4 	"/>
	<polyline class="st2" points="373.2,392.2 373.2,526.2 368.9,526.2 368.9,580.2 	"/>
	<line class="st2" x1="236.8" y1="338.9" x2="249.4" y2="338.9"/>
	<line class="st2" x1="257.8" y1="338.9" x2="293.2" y2="338.9"/>
	<line class="st2" x1="238.8" y1="301.2" x2="293.2" y2="301.2"/>
	<polyline class="st2" points="202.8,384.9 202.8,380.9 235.6,380.9 	"/>
	<line class="st2" x1="202.8" y1="392.2" x2="202.8" y2="414.2"/>
	<line class="st2" x1="202.8" y1="422.2" x2="202.8" y2="448.4"/>
	<line class="st2" x1="202.8" y1="456.7" x2="202.8" y2="475.8"/>
	<line class="st2" x1="202.8" y1="483.3" x2="202.8" y2="508"/>
	<line class="st2" x1="202.8" y1="515.8" x2="202.8" y2="562.4"/>
	<line class="st2" x1="235.6" y1="555.1" x2="226.1" y2="555.1"/>
	<line class="st2" x1="217.8" y1="555.2" x2="204" y2="555.2"/>
	<line class="st2" x1="204" y1="525.5" x2="235.6" y2="525.5"/>
	<line class="st2" x1="204" y1="489.1" x2="235.6" y2="489.1"/>
	<line class="st2" x1="204" y1="464.8" x2="235.6" y2="464.8"/>
	<line class="st2" x1="204" y1="437.8" x2="235.6" y2="437.8"/>
	<line class="st2" x1="204" y1="403.2" x2="236.8" y2="403.2"/>
	<line class="st2" x1="295.8" y1="431.8" x2="308.5" y2="431.8"/>
	<line class="st2" x1="295.8" y1="405.1" x2="308.5" y2="405.1"/>
	<line class="st2" x1="315.8" y1="405.2" x2="333.6" y2="405.2"/>
	<line class="st2" x1="338.9" y1="405.1" x2="371.1" y2="405.1"/>
	<polyline class="st2" points="345.2,406.2 345.2,414.2 345.2,422.2 345.2,431.8 315.8,431.8 	"/>
	<line class="st2" x1="335.4" y1="460.3" x2="335.4" y2="433.2"/>
	<line class="st2" x1="360.1" y1="434.7" x2="372.1" y2="434.7"/>
	<line class="st2" x1="380.9" y1="437.8" x2="374.5" y2="437.8"/>
	<line class="st2" x1="379.8" y1="456.7" x2="373.2" y2="456.7"/>
	<polyline class="st2" points="388.5,437.8 398.3,437.8 398.3,470 	"/>
	<line class="st2" x1="388.5" y1="456.7" x2="397.4" y2="456.7"/>
	<line class="st2" x1="374.5" y1="470" x2="429.2" y2="470"/>
	<line class="st2" x1="436.5" y1="470" x2="443.8" y2="470"/>
	<line class="st2" x1="374.5" y1="492.1" x2="443.8" y2="492.1"/>
	<line class="st2" x1="443.8" y1="514" x2="436.5" y2="514"/>
	<line class="st2" x1="421.8" y1="480.2" x2="421.8" y2="502.2"/>
	<line class="st2" x1="374.5" y1="514" x2="429.2" y2="514"/>
	<line class="st2" x1="421.8" y1="518.4" x2="421.8" y2="514.9"/>
	<line class="st2" x1="368.9" y1="546.4" x2="379.8" y2="546.4"/>
	<polyline class="st2" points="387.2,546.4 398.3,546.4 398.3,515.8 	"/>
	<line class="st2" x1="371.1" y1="527.1" x2="379.8" y2="527.1"/>
	<line class="st2" x1="388.5" y1="527.1" x2="397.4" y2="527.1"/>
	<polyline class="st2" points="399.4,531.1 421.8,531.1 421.8,525.5 	"/>
	<line class="st2" x1="373.2" y1="406.2" x2="452.8" y2="406.2"/>
	<line class="st2" x1="460.1" y1="406.2" x2="712.8" y2="406.2"/>
	<line class="st2" x1="720.9" y1="406.2" x2="796.5" y2="406.2"/>
	<line class="st2" x1="602.3" y1="603.5" x2="602.3" y2="452.2"/>
	<line class="st2" x1="602.3" y1="445.1" x2="602.3" y2="425.5"/>
	<line class="st2" x1="602.3" y1="418.2" x2="602.3" y2="408.2"/>
	<polyline class="st2" points="603.8,439.1 666.8,439.1 666.8,408.2 	"/>
	<line class="st2" x1="603.8" y1="463.3" x2="671.8" y2="463.3"/>
	<polyline class="st2" points="679.2,463.3 699.8,463.3 699.8,406.2 	"/>
	<line class="st2" x1="640.8" y1="462.2" x2="640.8" y2="441.2"/>
	<polygon class="st2" points="717.8,422.2 744.5,422.2 717.9,448.8 	"/>
	<path class="st2" d="M783.2,425.5"/>
	<line class="st2" x1="789.8" y1="383.2" x2="797.4" y2="383.2"/>
	<line class="st2" x1="789.8" y1="359.1" x2="798.7" y2="359.1"/>
	<polyline class="st2" points="783.2,359.1 772.3,359.1 772.3,352 762.9,352 	"/>
	<line class="st2" x1="755.6" y1="352" x2="697.8" y2="352"/>
	<line class="st2" x1="773.1" y1="360.2" x2="773.1" y2="383.2"/>
	<line class="st2" x1="781.8" y1="383.2" x2="568.8" y2="383.2"/>
	<line class="st2" x1="697.8" y1="381.8" x2="697.8" y2="213.2"/>
	<line class="st2" x1="556.9" y1="383.2" x2="402.8" y2="383.2"/>
	<line class="st2" x1="476.8" y1="382.2" x2="476.8" y2="375.8"/>
	<line class="st2" x1="476.8" y1="364.7" x2="476.8" y2="330.7"/>
	<polyline class="st2" points="478.8,357.2 533.8,357.2 550.1,347.7 	"/>
	<polyline class="st2" points="247.2,272.8 247.2,227.8 240.4,227.8 240.4,201.2 	"/>
	<line class="st2" x1="271.6" y1="272.8" x2="271.6" y2="268.8"/>
	<line class="st2" x1="271.6" y1="260.8" x2="271.6" y2="248.7"/>
	<polyline class="st2" points="271.6,240 271.6,228.4 297.4,228.4 	"/>
	<polyline class="st2" points="294.8,190.2 294.8,212.2 284.7,227.3 	"/>
	<line class="st2" x1="249.4" y1="235.3" x2="270.1" y2="235.3"/>
	<line class="st2" x1="248.8" y1="253.2" x2="271.6" y2="253.2"/>
	<polyline class="st2" points="306.8,329.2 306.8,376.4 328.5,376.4 328.5,329.2 	"/>
	<line class="st2" x1="374.5" y1="367.3" x2="374.5" y2="87.8"/>
	<line class="st2" x1="376.5" y1="174" x2="433.3" y2="174"/>
	<line class="st2" x1="447.6" y1="174" x2="556.8" y2="174"/>
	<line class="st2" x1="476.8" y1="175.1" x2="476.8" y2="181.3"/>
	<line class="st2" x1="476.8" y1="192.9" x2="476.8" y2="224.7"/>
	<polyline class="st2" points="478.8,202.2 533.8,202.2 550.1,213.1 	"/>
	<line class="st2" x1="463.8" y1="215.2" x2="475.8" y2="215.2"/>
	<path class="st2" d="M475.8,343.5h-23.1c0,0-21.4-69.4,1.3-128.4"/>
	<polyline class="st2" points="502.2,356.2 476.8,311.5 476.8,248.4 502.2,204.2 	"/>
	<path class="st2" d="M499.8,675.2h-24.8c0,0-9.5-3.1-9.3-12.1c0.2-8.9,0-222.9,0-222.9s0.2-8.6,11.2-9.3s22,0,22,0"/>
	<line class="st2" x1="603.8" y1="579.2" x2="614.8" y2="579.2"/>
	<line class="st2" x1="627.2" y1="579.2" x2="697.8" y2="579.2"/>
	<line class="st2" x1="685.4" y1="726.2" x2="685.4" y2="720.2"/>
	<line class="st2" x1="685.4" y1="708.9" x2="685.4" y2="698.9"/>
	<line class="st2" x1="602.3" y1="382.2" x2="602.3" y2="342.2"/>
	<line class="st2" x1="602.3" y1="222" x2="602.3" y2="164.2"/>
	<line class="st2" x1="602.3" y1="152.4" x2="602.3" y2="70.2"/>
	<polyline class="st2" points="584.8,142.2 625.8,142.2 625.8,174.2 	"/>
	<line class="st2" x1="568.8" y1="174" x2="632.5" y2="174"/>
	<line class="st2" x1="540.8" y1="172.2" x2="540.8" y2="165.8"/>
	<line class="st2" x1="502.2" y1="174" x2="502.2" y2="63.2"/>
	<line class="st2" x1="451.4" y1="63.2" x2="521.8" y2="63.2"/>
	<line class="st2" x1="503.8" y1="115.2" x2="540.1" y2="115.2"/>
	<line class="st2" x1="512.8" y1="134.2" x2="524.5" y2="134.2"/>
	<line class="st2" x1="524.8" y1="139.2" x2="524.8" y2="115.2"/>
	<line class="st2" x1="513.6" y1="152.4" x2="524.8" y2="152.4"/>
	<line class="st2" x1="524.8" y1="172.2" x2="524.8" y2="167.8"/>
	<line class="st2" x1="524.8" y1="159.8" x2="524.8" y2="147.1"/>
	<line class="st2" x1="526.8" y1="151.2" x2="540.8" y2="151.2"/>
	<line class="st2" x1="529.8" y1="63.2" x2="550.9" y2="63.2"/>
	<line class="st2" x1="558.5" y1="63.2" x2="580.7" y2="63.2"/>
	<line class="st2" x1="591.2" y1="63.2" x2="598.1" y2="63.2"/>
	<line class="st2" x1="510.8" y1="38.2" x2="521.9" y2="38.2"/>
	<line class="st2" x1="529.8" y1="38.2" x2="550.9" y2="38.2"/>
	<line class="st2" x1="561.2" y1="38.2" x2="580.7" y2="38.2"/>
	<line class="st2" x1="591.2" y1="38.2" x2="598.1" y2="38.2"/>
	<polyline class="st2" points="675.3,156.2 675.3,147.1 695.8,147.1 	"/>
	<line class="st2" x1="695.8" y1="125.8" x2="695.8" y2="156.2"/>
	<line class="st2" x1="675.3" y1="164.2" x2="675.3" y2="174.2"/>
	<line class="st2" x1="666.8" y1="174.2" x2="697.8" y2="174.2"/>
	<line class="st2" x1="697.8" y1="202.2" x2="697.8" y2="162.9"/>
	<line class="st2" x1="699.8" y1="170.7" x2="709.4" y2="170.7"/>
	<line class="st2" x1="699.8" y1="189.8" x2="710.3" y2="189.8"/>
	<polyline class="st2" points="717.8,170.7 726.7,170.7 740.3,159.8 	"/>
	<line class="st2" x1="746.8" y1="156.2" x2="749.7" y2="153.3"/>
	<line class="st2" x1="717.8" y1="189.8" x2="726.7" y2="189.8"/>
	<line class="st2" x1="726.7" y1="172.2" x2="726.7" y2="248"/>
	<line class="st2" x1="726.7" y1="255.5" x2="726.7" y2="266.2"/>
	<polyline class="st2" points="726.7,273.3 726.7,314.2 733.2,314.2 	"/>
	<line class="st2" x1="740.3" y1="314.2" x2="777.4" y2="314.2"/>
	<line class="st2" x1="727.8" y1="287.2" x2="777.4" y2="287.2"/>
	<line class="st2" x1="727.8" y1="260.9" x2="775.8" y2="260.9"/>
	<line class="st2" x1="727.8" y1="214.4" x2="761.4" y2="214.4"/>
	<path class="st2" d="M587.4,347.7v17l-2.6,4.9l-12-14.4l3.3-2.8c0,0-53.2-61-0.2-143.6l-3.1-2.6l10.8-13.3l3.8,4.2v18.1"/>
	<line class="st2" x1="479.9" y1="243.1" x2="529.8" y2="260.9"/>
	<line class="st2" x1="481.8" y1="317.2" x2="527.8" y2="300.2"/>
	<ellipse class="st2" cx="616.8" cy="283.2" rx="46" ry="49"/>
	<line class="st1" x1="482.3" y1="1727.7" x2="482.3" y2="1773"/>
	<line class="st1" x1="358.3" y1="1727.7" x2="358.3" y2="1773"/>
	<line class="st3" x1="479.9" y1="1773" x2="479.9" y2="1768.3"/>
	<line class="st1" x1="77.3" y1="977.9" x2="15.3" y2="977.9"/>
	<line class="st1" x1="77.3" y1="903.7" x2="15.3" y2="903.7"/>
	<line class="st2" x1="124.7" y1="368.4" x2="144.8" y2="368.4"/>
	<line class="st2" x1="124.7" y1="352.2" x2="144.8" y2="352.2"/>
	<line class="st2" x1="210.9" y1="260.8" x2="98.8" y2="260.8"/>
	<line class="st2" x1="211.8" y1="231.5" x2="98.8" y2="231.5"/>
	<line class="st2" x1="210.9" y1="201.2" x2="98.8" y2="201.2"/>
	<polyline class="st2" points="576.8,142.2 570.8,142.2 570.8,14.7 	"/>
	<line class="st2" x1="540.8" y1="158.2" x2="540.8" y2="14.7"/>
	<line class="st2" x1="510.8" y1="63.2" x2="510.8" y2="14.7"/>
	<polyline class="st2" points="387.8,146.2 403.8,146.2 403.8,14.7 	"/>
	<line class="st2" x1="797.4" y1="443.2" x2="791.8" y2="443.2"/>
	<line class="st2" x1="780.3" y1="443.2" x2="756" y2="443.2"/>
	<line class="st2" x1="797.4" y1="425.5" x2="791.8" y2="425.5"/>
	<line class="st2" x1="780.3" y1="425.5" x2="740.3" y2="425.5"/>
	<line class="st2" x1="720.9" y1="623.8" x2="679.8" y2="623.8"/>
	<line class="st2" x1="679.8" y1="603.5" x2="720.9" y2="603.5"/>
	<text transform="matrix(1 0 0 1 385.0427 1570.5746)" class="st4 st5">Холл</text>
	<text transform="matrix(1 0 0 1 378.5744 1368.8939)" class="st4 st5">Гардероб</text>
	<text transform="matrix(1 0 0 1 292.7658 1399.0209)" class="st4 st6">125</text>
	<text transform="matrix(1 0 0 1 295.2452 1334.1503)" class="st4 st6">124</text>
	<text transform="matrix(1 0 0 1 156.4895 1267.9789)" class="st4 st6">120</text>
	<text transform="matrix(1 0 0 1 153.7659 1228.2123)" class="st4 st6">121</text>
	<text transform="matrix(1 0 0 1 154.468 1197.7445)" class="st4 st6">122</text>
	<text transform="matrix(1 0 0 1 154.0002 1166.4047)" class="st4 st6">123</text>
	<text transform="matrix(1 0 0 1 707.7444 1041.5961)" class="st4 st6">108</text>
	<text transform="matrix(1 0 0 1 710.2452 1101.5546)" class="st4 st6">109</text>
	<text transform="matrix(1 0 0 1 579.2452 1092.5546)" class="st4 st6">116</text>
	<text transform="matrix(1 0 0 1 615.2452 1198.5546)" class="st4 st6">115</text>
	<text transform="matrix(1 0 0 1 452.2452 994.5546)" class="st4 st6">117</text>
	<text transform="matrix(1 0 0 1 510.2452 1236.5546)" class="st4 st6">113</text>
	<text transform="matrix(1 0 0 1 710.2452 1278.5546)" class="st4 st6">112</text>
	<text transform="matrix(1 0 0 1 615.2452 1246.5546)" class="st4 st6">114</text>
	<text transform="matrix(1 0 0 1 712.2452 1226.5546)" class="st4 st6">111</text>
	<text transform="matrix(1 0 0 1 710.2452 1155.5546)" class="st4 st6">110</text>
	<text transform="matrix(1 0 0 1 307.7658 1026.3617)" class="st4 st7">Л</text>
	<text transform="matrix(1 0 0 1 307.8705 1133.5684)" class="st4 st7">Л</text>
	<text transform="matrix(1 0 0 1 307.8705 1101.5684)" class="st4 st7">Л</text>
	<text transform="matrix(1 0 0 1 307.8705 1076.5684)" class="st4 st7">Л</text>
	<text transform="matrix(1 0 0 1 307.8705 1046.5684)" class="st4 st7">Л</text>
	<text transform="matrix(1 0 0 1 307.8705 1150.5684)" class="st4 st7">Л</text>
	<text transform="matrix(1 0 0 1 189.8705 847.6534)" class="st4 st7">Л</text>
	<text transform="matrix(1 0 0 1 337.0212 726.5745)" class="st4 st7">101</text>
	<text transform="matrix(1 0 0 1 402.8293 739.3616)" class="st4 st7">102</text>
	<text transform="matrix(1 0 0 1 398.3195 686.2343)" class="st4 st7">103</text>
	<text transform="matrix(1 0 0 1 404.8938 601.83)" class="st4 st7">104</text>
	<text transform="matrix(1 0 0 1 400.3195 562.2552)" class="st4 st7">105</text>
	<text transform="matrix(1 0 0 1 406.9787 443.5746)" class="st4 st7">106</text>
	<text transform="matrix(1 0 0 1 494.4465 551.3193)" class="st4 st7">Спорт-зона</text>
	<text transform="matrix(1 0 0 1 378.2766 252.8725)" class="st4 st8">Вестибюль</text>
	<text transform="matrix(6.123234e-17 -1 1 6.123234e-17 463.3249 301.5356)" class="st4 st8">Гардероб</text>
	<text transform="matrix(1 0 0 1 425.2766 129.9359)" class="st4 st8">Гардероб</text>
</g>
</svg>
