<?xml version="1.0" encoding="utf-8"?>
<!-- Generator: Adobe Illustrator 24.3.0, SVG Export Plug-In . SVG Version: 6.00 Build 0)  -->
<svg version="1.1" id="Слой_1" xmlns="http://www.w3.org/2000/svg" xmlns:xlink="http://www.w3.org/1999/xlink" x="0px" y="0px"
	 viewBox="0 0 746 1789.3" style="enable-background:new 0 0 746 1789.3;" xml:space="preserve">
<style type="text/css">
	.st0{opacity:0.25;}
	.st1{fill:#FFFFFF;stroke:#000000;stroke-miterlimit:10;}
	.st2{fill:none;stroke:#000000;stroke-width:10;stroke-miterlimit:10;}
	.st3{fill:none;stroke:#000000;stroke-width:5;stroke-miterlimit:10;}
	.st4{fill:#FFFFFF;stroke:#000000;stroke-width:5;stroke-miterlimit:10;}
	.st5{font-family:'ArialMT';}
	.st6{font-size:32px;}
	.st7{font-size:28px;}
	.st8{font-size:24px;}
	.st9{font-size:16px;}
	.st10{font-size:12px;}
</style>
<g id="Слой_1_1_" class="st0">
	<path class="st1" d="M457.6,1755.1"/>
</g>
<g id="Слой_2_1_">
	<path class="st1" d="M439.6,1734.1"/>
	<g>
		<path class="st2" d="M301.8,1750.1"/>
		<path class="st2" d="M411.6,58.6h124.6v8.9h93v52.1h28.6l39.4,44.9v71.6l16,31.7v51.4l21,29v69.9L658.2,477h-23.1v299.8h22.7
			l48.3,49.8v560l-35.2,37h-24.8v149h-102v46h-11.6v26h67.7c-3.1,7.8-9.9,22.4-23,40.2c-17.7,24.2-50.9,59.5-108.7,91.7l-10.8-26.4
			h-38.2"/>
		<path class="st2" d="M301.8,1750.1h-36l-11.3,26.9c-8.3-3.7-27.2-13-49.3-29.3c-25.9-19.1-61.3-52-86.1-101.1h68v-22h-23v-49h-93
			v-520.3H51.3l-39.2-43.6V779l35.8-59.4h19.2v-55.4l-28-22V349.5l23-16.3V84.6h119v19H311v-45h91.2"/>
	</g>
	<polyline class="st3" points="190.6,1651.1 190.6,1666.1 269.6,1666.1 269.6,1660.1 299.6,1660.1 	"/>
	<line class="st3" x1="269.6" y1="1622.1" x2="448.6" y2="1622.1"/>
	<polyline class="st3" points="418.6,1660.1 448.6,1660.1 448.6,1665.1 528.3,1665.1 528.3,1648 	"/>
	<line class="st3" x1="168.6" y1="1535.1" x2="168.6" y2="1622.1"/>
	<line class="st3" x1="190.6" y1="1556.3" x2="168.6" y2="1556.3"/>
	<line class="st3" x1="206.6" y1="1556.1" x2="212.6" y2="1556.1"/>
	<line class="st3" x1="224.6" y1="1556.1" x2="303.5" y2="1556.1"/>
	<line class="st3" x1="238.6" y1="1568.1" x2="238.6" y2="1545.1"/>
	<line class="st3" x1="297.4" y1="1568.1" x2="297.4" y2="1475.1"/>
	<line class="st3" x1="75.6" y1="1518.1" x2="168.6" y2="1518.1"/>
	<line class="st3" x1="168.6" y1="1522.9" x2="168.6" y2="1503.7"/>
	<line class="st3" x1="168.6" y1="1489.9" x2="168.6" y2="1472.5"/>
	<line class="st3" x1="168.6" y1="1461.1" x2="168.6" y2="1442.1"/>
	<line class="st3" x1="168.6" y1="1429.3" x2="168.6" y2="1405.1"/>
	<line class="st3" x1="168.6" y1="1380.8" x2="168.6" y2="1355.1"/>
	<line class="st3" x1="168.6" y1="1337.3" x2="168.6" y2="1318.4"/>
	<line class="st3" x1="168.6" y1="1304.8" x2="168.6" y2="1266.4"/>
	<line class="st3" x1="168.6" y1="1250.4" x2="168.6" y2="1225.6"/>
	<line class="st3" x1="168.6" y1="1213.3" x2="168.6" y2="1194.1"/>
	<line class="st3" x1="168.6" y1="1179.7" x2="168.6" y2="1154.1"/>
	<line class="st3" x1="168.6" y1="1133.3" x2="168.6" y2="1105.1"/>
	<line class="st3" x1="168.6" y1="1082.4" x2="168.6" y2="1044.1"/>
	<line class="st3" x1="168.6" y1="1024" x2="168.6" y2="965.1"/>
	<line class="st3" x1="168.6" y1="942.4" x2="168.6" y2="924.1"/>
	<line class="st3" x1="15.6" y1="989.1" x2="84.6" y2="989.1"/>
	<polyline class="st3" points="104.9,989.1 108.9,989.1 108.9,1027.1 	"/>
	<line class="st3" x1="110.6" y1="1022.1" x2="168.6" y2="1022.1"/>
	<line class="st3" x1="69.6" y1="1048.1" x2="133.6" y2="1048.1"/>
	<line class="st3" x1="148.1" y1="1048.1" x2="167.6" y2="1048.1"/>
	<line class="st3" x1="73.6" y1="1072.1" x2="167.6" y2="1072.1"/>
	<line class="st3" x1="73.6" y1="1117.1" x2="168.6" y2="1117.1"/>
	<line class="st3" x1="135.6" y1="1128.1" x2="135.6" y2="1119.2"/>
	<path class="st3" d="M74.6,1144.1c1,0,61,0,61,0"/>
	<line class="st3" x1="135.6" y1="1139.7" x2="135.6" y2="1146.9"/>
	<line class="st3" x1="135.6" y1="1156.5" x2="135.6" y2="1173.1"/>
	<line class="st3" x1="167.6" y1="1173.1" x2="74.6" y2="1173.1"/>
	<line class="st3" x1="74.6" y1="1206.4" x2="167.6" y2="1206.4"/>
	<line class="st3" x1="74.6" y1="1236" x2="167.6" y2="1236"/>
	<line class="st3" x1="129.1" y1="1238" x2="129.1" y2="1244.8"/>
	<line class="st3" x1="129.1" y1="1258.7" x2="129.1" y2="1298.1"/>
	<line class="st3" x1="167.6" y1="1296.5" x2="143.6" y2="1296.5"/>
	<line class="st3" x1="135.6" y1="1296.5" x2="126.7" y2="1296.5"/>
	<line class="st3" x1="73.6" y1="1280.5" x2="167.6" y2="1280.5"/>
	<line class="st3" x1="129.1" y1="1309.1" x2="129.1" y2="1327.9"/>
	<line class="st3" x1="74.6" y1="1323.5" x2="168.6" y2="1323.5"/>
	<line class="st3" x1="139.6" y1="1378.7" x2="139.6" y2="1366.4"/>
	<line class="st3" x1="74.6" y1="1366.4" x2="167.6" y2="1366.4"/>
	<line class="st3" x1="139.6" y1="1396.5" x2="139.6" y2="1388.1"/>
	<line class="st3" x1="139.6" y1="1392.3" x2="74.6" y2="1392.3"/>
	<line class="st3" x1="139.6" y1="1406.4" x2="139.6" y2="1422.4"/>
	<line class="st3" x1="167.6" y1="1422.4" x2="74.6" y2="1422.4"/>
	<line class="st3" x1="167.6" y1="1453.1" x2="74.6" y2="1453.1"/>
	<line class="st3" x1="167.6" y1="1485.1" x2="74.6" y2="1485.1"/>
	<polyline class="st3" points="170.2,1422.4 193.1,1422.4 193.1,1392.3 	"/>
	<polyline class="st3" points="228.6,1426.1 228.6,1394.1 257.6,1365.1 257.6,1336.3 	"/>
	<line class="st3" x1="257.6" y1="1324.5" x2="257.6" y2="1272"/>
	<line class="st3" x1="257.6" y1="1262.4" x2="257.6" y2="1217.1"/>
	<line class="st3" x1="257.6" y1="1201.9" x2="257.6" y2="1181.3"/>
	<polyline class="st3" points="257.6,1365.1 294.6,1365.1 294.6,1234.1 	"/>
	<line class="st3" x1="292.9" y1="1238" x2="257.6" y2="1238"/>
	<line class="st3" x1="258.6" y1="1301.1" x2="491" y2="1301.1"/>
	<line class="st3" x1="357.1" y1="1299.6" x2="357.1" y2="1237.1"/>
	<line class="st3" x1="353.1" y1="1237.1" x2="418.6" y2="1237.1"/>
	<line class="st3" x1="384.6" y1="1173.1" x2="384.6" y2="1236.1"/>
	<line class="st3" x1="433.1" y1="1238" x2="433.1" y2="1153.1"/>
	<line class="st3" x1="384.6" y1="1157.6" x2="384.6" y2="1148"/>
	<line class="st3" x1="297.6" y1="1462.1" x2="297.6" y2="1443.2"/>
	<polyline class="st3" points="297.6,1431.2 297.6,1384.1 365.6,1384.1 	"/>
	<polyline class="st3" points="320.6,1382.1 320.6,1366.4 346.6,1332.1 558.6,1332.1 576.6,1356.1 	"/>
	<line class="st3" x1="343" y1="1365.1" x2="550.6" y2="1365.1"/>
	<line class="st3" x1="298.6" y1="1423.1" x2="313.6" y2="1423.1"/>
	<polyline class="st3" points="343,1423.1 359.1,1423.1 359.1,1441.1 	"/>
	<line class="st3" x1="359.1" y1="1469.1" x2="359.1" y2="1483.7"/>
	<polyline class="st3" points="298.6,1498.1 359.1,1498.1 359.1,1568.1 	"/>
	<line class="st3" x1="313.6" y1="1528.5" x2="359.1" y2="1528.5"/>
	<line class="st3" x1="324.3" y1="1556.1" x2="493.6" y2="1556.1"/>
	<line class="st3" x1="504.9" y1="1556.1" x2="516.9" y2="1556.1"/>
	<line class="st3" x1="528.3" y1="1556.1" x2="542.6" y2="1556.1"/>
	<line class="st3" x1="542.6" y1="1568.1" x2="542.6" y2="1530.1"/>
	<line class="st3" x1="481.7" y1="1568.1" x2="481.7" y2="1530.1"/>
	<line class="st3" x1="421.7" y1="1568.1" x2="421.7" y2="1546.1"/>
	<line class="st3" x1="542.6" y1="1483.7" x2="542.6" y2="1463.1"/>
	<polyline class="st3" points="542.6,1440 542.6,1421.1 556.6,1421.1 	"/>
	<line class="st3" x1="586.2" y1="1421.1" x2="606.6" y2="1421.1"/>
	<line class="st3" x1="535.5" y1="1384.1" x2="628.6" y2="1384.1"/>
	<polyline class="st3" points="628.6,1378.9 628.6,1427.1 641.1,1427.1 	"/>
	<line class="st3" x1="628.6" y1="1362.9" x2="628.6" y2="1336.8"/>
	<line class="st3" x1="630.5" y1="1357.1" x2="702.6" y2="1357.1"/>
	<polygon class="st3" points="646.7,1378.9 676.6,1378.9 646.5,1409 	"/>
	<polyline class="st3" points="603.6,1353.1 592.6,1353.1 575.3,1332.1 575.3,1322.1 	"/>
	<polyline class="st3" points="516.9,1301.1 597.6,1301.1 597.6,1293.9 	"/>
	<line class="st3" x1="597.6" y1="1286.1" x2="597.6" y2="1262.1"/>
	<line class="st3" x1="597.6" y1="1253.9" x2="597.6" y2="1225.1"/>
	<line class="st3" x1="597.6" y1="1209.9" x2="597.6" y2="1168.1"/>
	<line class="st3" x1="597.6" y1="1154.9" x2="597.6" y2="1040.1"/>
	<line class="st3" x1="597.6" y1="1021.6" x2="597.6" y2="924.1"/>
	<polyline class="st3" points="540.6,1299.1 540.6,1174.1 596.4,1174.1 	"/>
	<line class="st3" x1="542.6" y1="1250.1" x2="596.4" y2="1250.1"/>
	<line class="st3" x1="542.6" y1="1278.1" x2="596.4" y2="1278.1"/>
	<polyline class="st3" points="554.6,1136.1 547.6,1136.1 547.6,1118.9 578.7,1118.9 578.7,1136.1 575.3,1136.1 	"/>
	<line class="st3" x1="560.9" y1="1136.1" x2="568.5" y2="1136.1"/>
	<line class="st3" x1="564.7" y1="1136.1" x2="564.7" y2="1120"/>
	<line class="st3" x1="547.6" y1="1110.7" x2="596.4" y2="1110.7"/>
	<path class="st3" d="M540.6,1153.1v-42.4h-42.2c0,0-2.1,3.2-7.5,9.3"/>
	<path class="st3" d="M479.6,1131.1c0,0-18.7,14.8-28.4,16.9"/>
	<path class="st3" d="M440.6,1152.1c0,0-59,9.8-91.5-24.6"/>
	<path class="st3" d="M336.1,1113.1c0,0-22.5-21.7-22.5-65.3h-23.2v64.3h-16.8"/>
	<circle class="st3" cx="415.6" cy="1048.1" r="83"/>
	<line class="st3" x1="527.6" y1="985.1" x2="527.6" y2="924.1"/>
	<line class="st3" x1="623.3" y1="1322.1" x2="623.3" y2="1258.4"/>
	<line class="st3" x1="623.3" y1="1242.9" x2="623.3" y2="1225.1"/>
	<line class="st3" x1="623.3" y1="1211.2" x2="623.3" y2="1134.1"/>
	<line class="st3" x1="623.3" y1="1118.9" x2="623.3" y2="1102.1"/>
	<line class="st3" x1="623.3" y1="1084" x2="623.3" y2="1038.1"/>
	<line class="st3" x1="623.3" y1="1024.5" x2="623.3" y2="977.1"/>
	<line class="st3" x1="623.3" y1="960" x2="623.3" y2="924.1"/>
	<line class="st3" x1="624.6" y1="954.6" x2="632.3" y2="954.6"/>
	<line class="st3" x1="650.2" y1="954.6" x2="702.6" y2="954.6"/>
	<line class="st3" x1="702.6" y1="983.5" x2="666.5" y2="983.5"/>
	<line class="st3" x1="650.2" y1="983.5" x2="624.6" y2="983.5"/>
	<line class="st3" x1="702.6" y1="1046.7" x2="624.6" y2="1046.7"/>
	<line class="st3" x1="624.6" y1="1075.7" x2="643.6" y2="1075.7"/>
	<line class="st3" x1="656.1" y1="1075.7" x2="702.6" y2="1075.7"/>
	<line class="st3" x1="624.6" y1="1110.5" x2="643.6" y2="1110.5"/>
	<line class="st3" x1="654.6" y1="1111.1" x2="702.6" y2="1111.1"/>
	<line class="st3" x1="624.6" y1="1174.1" x2="702.6" y2="1174.1"/>
	<line class="st3" x1="623.3" y1="1235.2" x2="702.6" y2="1235.2"/>
	<line class="st3" x1="624.6" y1="1266.1" x2="702.6" y2="1266.1"/>
	<polyline class="st3" points="243.1,1162.4 237.6,1162.4 237.6,1089.6 	"/>
	<line class="st3" x1="237.6" y1="1082.4" x2="237.6" y2="1069.9"/>
	<line class="st3" x1="237.6" y1="1061.9" x2="237.6" y2="1042.1"/>
	<line class="st3" x1="286.5" y1="942.4" x2="286.5" y2="922.6"/>
	<line class="st3" x1="272.6" y1="1008.1" x2="272.6" y2="1119.2"/>
	<line class="st3" x1="273.6" y1="1128.1" x2="273.6" y2="1139.5"/>
	<line class="st3" x1="273.6" y1="1146.9" x2="273.6" y2="1164.8"/>
	<line class="st3" x1="237.6" y1="1150.4" x2="272.6" y2="1150.4"/>
	<line class="st3" x1="255.1" y1="1152.8" x2="255.1" y2="1163.5"/>
	<line class="st3" x1="239.3" y1="1133.3" x2="273.6" y2="1133.3"/>
	<line class="st3" x1="239.6" y1="1115.1" x2="271" y2="1115.1"/>
	<line class="st3" x1="239.6" y1="1076.1" x2="271" y2="1076.1"/>
	<line class="st3" x1="239.6" y1="1058.7" x2="271" y2="1058.7"/>
	<line class="st3" x1="239.6" y1="1045.9" x2="271" y2="1045.9"/>
	<line class="st3" x1="239.6" y1="1027.7" x2="271" y2="1027.7"/>
	<line class="st3" x1="237.6" y1="1033.1" x2="237.6" y2="1022.1"/>
	<polyline class="st3" points="237.6,1013.9 237.6,1006.7 286.5,1006.7 286.5,965.1 	"/>
	<line class="st3" x1="15.6" y1="922.6" x2="181.7" y2="922.6"/>
	<line class="st3" x1="193.1" y1="922.6" x2="374.8" y2="922.6"/>
	<line class="st3" x1="385.9" y1="922.6" x2="493.6" y2="922.6"/>
	<line class="st3" x1="515.8" y1="922.6" x2="603.6" y2="922.6"/>
	<line class="st3" x1="621.1" y1="922.1" x2="702.6" y2="922.1"/>
	<line class="st3" x1="80.6" y1="921.1" x2="80.6" y2="842.6"/>
	<line class="st3" x1="72.6" y1="842.6" x2="89.3" y2="842.6"/>
	<polyline class="st4" points="97.8,842.6 210.6,842.6 210.6,836.1 	"/>
	<polyline class="st4" points="81.6,886.1 169.6,886.1 169.6,875.6 	"/>
	<line class="st3" x1="169.6" y1="867.1" x2="169.6" y2="843.9"/>
	<line class="st3" x1="156.6" y1="887.1" x2="156.6" y2="890.6"/>
	<line class="st3" x1="156.6" y1="902.8" x2="156.6" y2="921.1"/>
	<path class="st4" d="M119.6,871.1"/>
	<line class="st3" x1="146" y1="843.9" x2="146" y2="867.1"/>
	<line class="st3" x1="146" y1="875.6" x2="146" y2="884.4"/>
	<line class="st3" x1="120.6" y1="884.4" x2="120.6" y2="843.9"/>
	<line class="st3" x1="144.6" y1="852.1" x2="121.6" y2="852.1"/>
	<line class="st3" x1="118.6" y1="873.1" x2="81.6" y2="873.1"/>
	<polyline class="st4" points="176.6,819.1 161.6,819.1 161.6,794.1 	"/>
	<line class="st3" x1="211.6" y1="827.1" x2="211.6" y2="819.1"/>
	<polyline class="st3" points="203.8,819.1 263.6,819.1 263.6,740.9 	"/>
	<line class="st3" x1="244.6" y1="817.1" x2="244.6" y2="813.1"/>
	<line class="st3" x1="244.6" y1="804.8" x2="244.6" y2="794.1"/>
	<line class="st3" x1="144.6" y1="794.1" x2="262" y2="794.1"/>
	<line class="st3" x1="156.6" y1="792.9" x2="156.6" y2="774.9"/>
	<polyline class="st3" points="72.6,790.8 78.5,790.8 78.5,778.1 	"/>
	<line class="st3" x1="78.5" y1="736.6" x2="78.5" y2="722.1"/>
	<line class="st3" x1="97.8" y1="722.1" x2="65.6" y2="722.1"/>
	<line class="st3" x1="141.6" y1="722.1" x2="174.6" y2="722.1"/>
	<line class="st3" x1="156.6" y1="734.9" x2="156.6" y2="714.1"/>
	<line class="st3" x1="42.6" y1="604.1" x2="53.3" y2="604.1"/>
	<polyline class="st3" points="63.5,604.1 105.6,604.1 105.6,517.6 	"/>
	<line class="st3" x1="42.6" y1="542.1" x2="49.3" y2="542.1"/>
	<line class="st3" x1="58.8" y1="542.1" x2="92.6" y2="542.1"/>
	<line class="st3" x1="100.6" y1="542.1" x2="104.1" y2="542.1"/>
	<line class="st3" x1="103.6" y1="526.1" x2="100.6" y2="526.1"/>
	<polyline class="st3" points="92.6,526.1 88.3,526.1 88.3,541.1 	"/>
	<polyline class="st3" points="41.6,510.1 86.6,510.1 86.6,497.3 	"/>
	<line class="st3" x1="86.6" y1="489.8" x2="86.6" y2="442.8"/>
	<line class="st3" x1="86.6" y1="434.6" x2="86.6" y2="381.1"/>
	<line class="st3" x1="85.6" y1="400.1" x2="42.6" y2="400.1"/>
	<polyline class="st3" points="86.6,375.1 86.6,368.6 111.6,368.6 111.6,335.1 	"/>
	<polyline class="st3" points="105.6,510.1 105.6,398.5 111.6,398.5 	"/>
	<line class="st3" x1="120" y1="398.5" x2="176.6" y2="398.5"/>
	<line class="st3" x1="132.6" y1="428.1" x2="176.6" y2="428.1"/>
	<polyline class="st3" points="140.6,507.1 134.2,507.1 134.2,479.4 176.6,479.4 	"/>
	<line class="st3" x1="148.3" y1="507.1" x2="176.6" y2="507.1"/>
	<line class="st3" x1="83.1" y1="335.1" x2="152.6" y2="335.1"/>
	<polyline class="st3" points="113.1,355.1 153.6,355.1 153.6,350.1 	"/>
	<line class="st3" x1="153.6" y1="339.4" x2="153.6" y2="322.3"/>
	<line class="st3" x1="132.6" y1="352.6" x2="132.6" y2="336.7"/>
	<line class="st3" x1="65.6" y1="303.1" x2="152.6" y2="303.1"/>
	<line class="st3" x1="65.6" y1="272.3" x2="152.6" y2="272.3"/>
	<line class="st3" x1="65.6" y1="241.4" x2="152.6" y2="241.4"/>
	<line class="st3" x1="65.6" y1="210.3" x2="152.6" y2="210.3"/>
	<line class="st3" x1="65.6" y1="178" x2="152.6" y2="178"/>
	<path class="st3" d="M152.6,150.3"/>
	<path class="st3" d="M65.6,150.3"/>
	<line class="st3" x1="153.6" y1="314.9" x2="153.6" y2="290.3"/>
	<line class="st3" x1="153.6" y1="282.5" x2="153.6" y2="235.1"/>
	<line class="st3" x1="153.6" y1="226.1" x2="153.6" y2="197.8"/>
	<line class="st3" x1="153.6" y1="186.7" x2="153.6" y2="167.1"/>
	<path class="st3" d="M154.6,156.7"/>
	<polyline class="st3" points="153.6,156.7 153.6,149.1 65.6,149.1 	"/>
	<line class="st3" x1="120" y1="147.8" x2="120" y2="132.1"/>
	<line class="st3" x1="119.6" y1="121.1" x2="119.6" y2="85.1"/>
	<polyline class="st3" points="233.6,660.1 233.6,536.3 226.6,536.3 	"/>
	<polyline class="st3" points="231.6,593.1 204.6,593.1 204.6,537.1 	"/>
	<polyline class="st3" points="218.1,536.3 177.8,536.3 177.8,301.9 231.6,301.9 231.6,340.1 	"/>
	<polyline class="st3" points="231.6,347.8 231.6,448.1 241.1,457.6 241.1,479.1 244.5,479.1 	"/>
	<line class="st3" x1="179.6" y1="317.1" x2="215.6" y2="317.1"/>
	<line class="st3" x1="208.6" y1="321.1" x2="208.6" y2="318.4"/>
	<polyline class="st3" points="179.6,336.7 208.6,336.7 208.6,329.1 	"/>
	<line class="st3" x1="196.6" y1="338.1" x2="196.6" y2="349.1"/>
	<line class="st3" x1="196.6" y1="357.1" x2="196.6" y2="360.6"/>
	<line class="st3" x1="179.6" y1="360.6" x2="213.3" y2="360.6"/>
	<line class="st3" x1="220.6" y1="360.6" x2="230.1" y2="360.6"/>
	<line class="st3" x1="263.6" y1="729.1" x2="263.6" y2="479.1"/>
	<line class="st3" x1="257.1" y1="479.1" x2="276.6" y2="479.1"/>
	<polyline class="st3" points="238,291.4 238,299.3 210.5,299.3 210.5,240.1 238,240.1 238,245.8 	"/>
	<polyline class="st3" points="185.6,301.1 185.6,240.1 179.6,240.1 179.6,173.1 181.6,173.1 181.6,107.1 	"/>
	<line class="st3" x1="187.6" y1="274.1" x2="209.6" y2="274.1"/>
	<line class="st3" x1="187.6" y1="246.1" x2="208.6" y2="247.1"/>
	<polyline class="st3" points="731.6,412.1 632.6,412.1 632.6,423.2 	"/>
	<line class="st3" x1="632.6" y1="434.7" x2="632.6" y2="478.1"/>
	<polygon class="st3" points="652.9,434.7 676.6,434.7 652.9,458.4 	"/>
	<line class="st3" x1="630.6" y1="441.1" x2="574.6" y2="441.1"/>
	<line class="st3" x1="630.6" y1="476.3" x2="574.6" y2="476.3"/>
	<line class="st3" x1="630.6" y1="531.2" x2="561.6" y2="531.2"/>
	<line class="st3" x1="632.6" y1="593.9" x2="562.6" y2="593.9"/>
	<polyline class="st3" points="630.6,626.4 586.6,626.4 586.6,644.1 	"/>
	<line class="st3" x1="586.6" y1="651.5" x2="586.6" y2="658.1"/>
	<line class="st3" x1="631.5" y1="658.1" x2="562.6" y2="658.1"/>
	<path class="st3" d="M631.5,719.2"/>
	<path class="st3" d="M562.6,751.1"/>
	<path class="st3" d="M631.6,751.1"/>
	<polyline class="st3" points="702.6,846.9 626.6,846.9 626.6,807.1 	"/>
	<polyline class="st3" points="626.6,800 626.6,783.7 639.6,783.7 	"/>
	<polyline class="st3" points="626.6,816 562.6,816 562.6,805.3 	"/>
	<path class="st3" d="M562.6,797.3"/>
	<polyline class="st3" points="562.6,797.3 562.6,751.1 631.6,751.1 	"/>
	<line class="st3" x1="571.6" y1="749.1" x2="571.6" y2="740.1"/>
	<line class="st3" x1="571.6" y1="729.1" x2="571.6" y2="720.3"/>
	<polyline class="st3" points="631.5,719.2 562.6,719.2 562.6,673.1 	"/>
	<line class="st3" x1="562.6" y1="665.6" x2="562.6" y2="651.5"/>
	<line class="st3" x1="561.6" y1="644.1" x2="561.6" y2="545.3"/>
	<line class="st3" x1="561.6" y1="538.1" x2="561.6" y2="524.5"/>
	<polyline class="st3" points="561.6,517.1 561.6,441.1 567.5,441.1 	"/>
	<line class="st3" x1="567.5" y1="476.3" x2="562.6" y2="476.3"/>
	<line class="st3" x1="596.1" y1="922.1" x2="596.1" y2="889.9"/>
	<polyline class="st3" points="596.1,883.2 596.1,845.3 311.6,845.3 311.6,922.6 	"/>
	<line class="st3" x1="396.6" y1="922.1" x2="396.6" y2="906"/>
	<line class="st3" x1="396.6" y1="898.7" x2="396.6" y2="835.1"/>
	<line class="st3" x1="397.6" y1="888.1" x2="401.9" y2="888.1"/>
	<line class="st3" x1="397.6" y1="864.5" x2="401.9" y2="864.5"/>
	<line class="st3" x1="408.9" y1="864.5" x2="431.6" y2="864.5"/>
	<line class="st3" x1="408.9" y1="888.1" x2="431.6" y2="888.1"/>
	<line class="st3" x1="438.2" y1="864.5" x2="442.6" y2="864.5"/>
	<line class="st3" x1="438.2" y1="888.1" x2="442.6" y2="888.1"/>
	<polyline class="st3" points="442.6,846.9 442.6,888.1 455.5,888.1 460.6,893.1 	"/>
	<polyline class="st3" points="465.7,898.7 470.4,903.4 470.4,922.1 	"/>
	<line class="st3" x1="443.5" y1="922.1" x2="443.5" y2="917.1"/>
	<line class="st3" x1="488.3" y1="922.1" x2="488.3" y2="900.1"/>
	<line class="st3" x1="488.3" y1="891.7" x2="488.3" y2="846.9"/>
	<polyline class="st3" points="311.6,690.4 311.6,780 352.6,780 352.6,719.1 346.6,719.1 	"/>
	<line class="st3" x1="336.1" y1="719.2" x2="312.6" y2="719.2"/>
	<line class="st3" x1="311.6" y1="636.5" x2="311.6" y2="525.3"/>
	<polyline class="st3" points="312.6,536.3 350.6,536.3 350.6,602.1 344.6,602.1 	"/>
	<line class="st3" x1="336.1" y1="602.1" x2="312.6" y2="602.1"/>
	<line class="st3" x1="311.6" y1="483.2" x2="311.6" y2="477.6"/>
	<polyline class="st3" points="291.5,477.6 314.6,477.6 314.6,417.6 531.6,417.6 	"/>
	<line class="st3" x1="338.6" y1="416.1" x2="338.6" y2="406.7"/>
	<line class="st3" x1="396.6" y1="828.5" x2="396.6" y2="816"/>
	<line class="st3" x1="396.6" y1="810.7" x2="396.6" y2="780"/>
	<line class="st3" x1="396.6" y1="770.9" x2="396.6" y2="760.3"/>
	<line class="st3" x1="396.6" y1="753.1" x2="396.6" y2="743.1"/>
	<line class="st3" x1="396.6" y1="735.2" x2="396.6" y2="724.7"/>
	<line class="st3" x1="396.6" y1="716.5" x2="396.6" y2="685.1"/>
	<line class="st3" x1="396.6" y1="677.6" x2="396.6" y2="669.3"/>
	<line class="st3" x1="396.6" y1="662.9" x2="396.6" y2="652.8"/>
	<line class="st3" x1="396.6" y1="645.9" x2="396.6" y2="635.2"/>
	<line class="st3" x1="396.6" y1="627.7" x2="396.6" y2="564.8"/>
	<line class="st3" x1="396.6" y1="558.1" x2="396.6" y2="546.9"/>
	<line class="st3" x1="396.6" y1="539.1" x2="396.6" y2="529.1"/>
	<line class="st3" x1="396.6" y1="520.1" x2="396.6" y2="511.5"/>
	<line class="st3" x1="396.6" y1="503.7" x2="396.6" y2="445.9"/>
	<line class="st3" x1="396.6" y1="438.4" x2="396.6" y2="428"/>
	<line class="st3" x1="529.6" y1="426.1" x2="529.6" y2="520.1"/>
	<line class="st3" x1="529.6" y1="526.9" x2="529.6" y2="538.1"/>
	<line class="st3" x1="529.6" y1="545.3" x2="529.6" y2="645.9"/>
	<line class="st3" x1="529.6" y1="654.8" x2="529.6" y2="685.1"/>
	<line class="st3" x1="529.6" y1="693.3" x2="529.6" y2="736.3"/>
	<line class="st3" x1="529.6" y1="743.1" x2="529.6" y2="753.1"/>
	<line class="st3" x1="529.6" y1="760.3" x2="529.6" y2="808.1"/>
	<line class="st3" x1="529.6" y1="816" x2="529.6" y2="845.3"/>
	<line class="st3" x1="397.6" y1="822.3" x2="451.6" y2="822.3"/>
	<line class="st3" x1="397.6" y1="765.6" x2="451.6" y2="765.6"/>
	<line class="st3" x1="397.6" y1="729.9" x2="451.6" y2="729.9"/>
	<line class="st3" x1="397.6" y1="673.5" x2="451.6" y2="673.5"/>
	<line class="st3" x1="397.6" y1="640.5" x2="451.6" y2="640.5"/>
	<line class="st3" x1="397.6" y1="552.5" x2="451.6" y2="552.5"/>
	<line class="st3" x1="397.6" y1="515.8" x2="451.6" y2="515.8"/>
	<line class="st3" x1="397.6" y1="433.2" x2="451.6" y2="433.2"/>
	<line class="st3" x1="412.6" y1="435.1" x2="412.6" y2="515.8"/>
	<line class="st3" x1="412.6" y1="552.5" x2="412.6" y2="640.5"/>
	<line class="st3" x1="412.6" y1="674.7" x2="412.6" y2="729.1"/>
	<line class="st3" x1="412.6" y1="766.9" x2="412.6" y2="822.3"/>
	<line class="st3" x1="397.6" y1="748.1" x2="529.6" y2="748.1"/>
	<line class="st3" x1="397.6" y1="657.9" x2="529.6" y2="657.9"/>
	<line class="st3" x1="397.6" y1="534.1" x2="527.6" y2="534.1"/>
	<line class="st3" x1="498.6" y1="419.1" x2="498.6" y2="503.7"/>
	<line class="st3" x1="498.6" y1="563.2" x2="498.6" y2="719.1"/>
	<line class="st3" x1="498.6" y1="776.5" x2="498.6" y2="845.3"/>
	<line class="st3" x1="527.6" y1="765.6" x2="488.3" y2="765.6"/>
	<line class="st3" x1="527.6" y1="729.9" x2="488.3" y2="729.9"/>
	<line class="st3" x1="527.6" y1="549.9" x2="488.3" y2="549.9"/>
	<line class="st3" x1="527.6" y1="515.8" x2="488.3" y2="515.8"/>
	<polyline class="st3" points="244.5,405.1 244.5,352.6 266.9,352.6 266.9,405.1 	"/>
	<polyline class="st3" points="632.6,397.1 632.6,231.1 627.5,231.1 627.5,117.1 	"/>
	<polyline class="st3" points="666.6,135.1 659.6,142.1 659.6,151.1 	"/>
	<polyline class="st3" points="659.6,158.7 659.6,231.2 651.6,231.2 	"/>
	<line class="st3" x1="642.2" y1="231.2" x2="627.5" y2="231.2"/>
	<line class="st3" x1="693.6" y1="217.1" x2="659.6" y2="217.1"/>
	<line class="st3" x1="634.9" y1="290.4" x2="666.6" y2="290.4"/>
	<line class="st3" x1="678.5" y1="290.4" x2="710.6" y2="290.4"/>
	<line class="st3" x1="634.9" y1="352.3" x2="705.6" y2="352.3"/>
	<line class="st3" x1="632.6" y1="383.5" x2="714.6" y2="383.5"/>
	<line class="st3" x1="723.3" y1="383.5" x2="731.6" y2="383.5"/>
	<line class="st3" x1="705.6" y1="383.5" x2="705.6" y2="345.1"/>
	<path class="st3" d="M614.6,147.1"/>
	<line class="st3" x1="599.6" y1="176.1" x2="627.5" y2="176.1"/>
	<polyline class="st3" points="630.6,383.5 479.6,383.5 431.6,371.1 409.6,386.1 338.6,386.1 338.6,396.1 	"/>
	<polyline class="st3" points="393.6,400.1 489.6,400.1 489.6,385.1 	"/>
	<line class="st3" x1="527.6" y1="396.1" x2="527.6" y2="385.1"/>
	<line class="st3" x1="535.6" y1="342.1" x2="535.6" y2="383.5"/>
	<polyline class="st3" points="354.5,385.1 338.6,357.1 338.6,346.4 	"/>
	<line class="st3" x1="338.6" y1="331.7" x2="338.6" y2="322.9"/>
	<line class="st3" x1="338.6" y1="241.1" x2="338.6" y2="231.2"/>
	<polyline class="st3" points="338.6,216.3 338.6,204.5 350.6,180.3 	"/>
	<polyline class="st3" points="291.5,180.3 409.6,180.3 430.6,193.1 475.6,178.1 565.1,178.1 	"/>
	<polyline class="st3" points="396.6,385.1 416.6,358.1 467.6,358.1 484.6,346.4 	"/>
	<polyline class="st3" points="397.6,181.3 415.6,204.1 466.6,204.1 482.6,214.1 	"/>
	<polyline class="st3" points="354.5,251.5 364.1,251.5 364.1,310.1 344.6,310.1 	"/>
	<polyline class="st3" points="344.6,294.4 344.6,321.1 308.1,321.1 308.1,274.1 	"/>
	<polyline class="st3" points="308.1,262.7 308.1,241.1 343.6,241.1 343.6,282.7 339.8,282.7 	"/>
	<line class="st3" x1="325.8" y1="243.2" x2="325.8" y2="283.1"/>
	<line class="st3" x1="317.4" y1="282.7" x2="331.6" y2="282.7"/>
	<line class="st3" x1="309.6" y1="296.1" x2="324.5" y2="296.1"/>
	<line class="st3" x1="317.4" y1="297.6" x2="317.4" y2="308.1"/>
	<line class="st3" x1="317.1" y1="319.8" x2="317.1" y2="316"/>
	<line class="st3" x1="309.6" y1="180.3" x2="309.6" y2="172.8"/>
	<line class="st3" x1="309.6" y1="157.3" x2="309.6" y2="103.2"/>
	<line class="st3" x1="311.6" y1="150.4" x2="317.1" y2="150.4"/>
	<line class="st3" x1="338.6" y1="178.1" x2="338.6" y2="168.8"/>
	<line class="st3" x1="338.6" y1="159.5" x2="338.6" y2="62.1"/>
	<line class="st3" x1="331.6" y1="150.4" x2="343.6" y2="150.4"/>
	<line class="st3" x1="350.6" y1="150.4" x2="382.6" y2="150.4"/>
	<polyline class="st3" points="390.2,150.4 394.7,150.4 394.7,62.1 	"/>
	<line class="st3" x1="366.6" y1="148.5" x2="366.6" y2="62.1"/>
	<line class="st3" x1="352.1" y1="130.3" x2="352.1" y2="85.1"/>
	<line class="st3" x1="380.6" y1="130.3" x2="380.6" y2="84"/>
	<line class="st3" x1="354.3" y1="112.8" x2="380.6" y2="112.8"/>
	<polyline class="st3" points="392.5,164.8 411.6,164.8 411.6,148.5 475.6,148.5 475.6,178.1 	"/>
	<line class="st3" x1="409.6" y1="101.1" x2="394.7" y2="101.1"/>
	<line class="st3" x1="414.6" y1="67.1" x2="414.6" y2="60.1"/>
	<line class="st3" x1="412.6" y1="119.2" x2="448.6" y2="119.2"/>
	<line class="st3" x1="456.6" y1="119.1" x2="491.6" y2="119.1"/>
	<line class="st3" x1="498.6" y1="119.1" x2="501.9" y2="119.1"/>
	<line class="st3" x1="535.6" y1="225.9" x2="535.6" y2="67.1"/>
	<line class="st3" x1="533.4" y1="148.5" x2="518.6" y2="148.5"/>
	<polyline class="st3" points="509.4,148.5 503.6,148.5 503.6,60.1 	"/>
	<line class="st3" x1="501.9" y1="100" x2="486.7" y2="100"/>
	<line class="st3" x1="474.1" y1="117.6" x2="474.1" y2="62.1"/>
	<line class="st3" x1="460.3" y1="101.1" x2="444.6" y2="101.1"/>
	<line class="st3" x1="444.6" y1="119.1" x2="444.6" y2="62.1"/>
	<line class="st2" x1="421.7" y1="1725.4" x2="421.7" y2="1771.6"/>
	<line class="st2" x1="299.6" y1="1725.4" x2="299.6" y2="1771.6"/>
	<line class="st3" x1="474.1" y1="56.6" x2="474.1" y2="9.6"/>
	<line class="st3" x1="376.8" y1="56.6" x2="376.8" y2="9.6"/>
	<line class="st3" x1="369.8" y1="9.6" x2="481.5" y2="9.6"/>
	<text transform="matrix(1 0 0 1 328.6809 1686.0424)" class="st5 st6">Холл</text>
	<text transform="matrix(1 0 0 1 365.4895 1469.0209)" class="st5 st6">Досуг центр</text>
	<text transform="matrix(1 0 0 1 93.7659 1555.9359)" class="st5 st6">221</text>
	<text transform="matrix(1 0 0 1 91.9148 1513.723)" class="st5 st6">222</text>
	<text transform="matrix(1 0 0 1 92.9787 1481.3402)" class="st5 st6">223</text>
	<text transform="matrix(1 0 0 1 93.8513 1447.2982)" class="st5 st6">224</text>
	<text transform="matrix(1 0 0 1 84.8513 1417.1918)" class="st5 st6">225</text>
	<text transform="matrix(1 0 0 1 85.8298 1388.0209)" class="st5 st7">226</text>
	<text transform="matrix(1 0 0 1 94.8083 1231.7875)" class="st5 st6">227</text>
	<text transform="matrix(1 0 0 1 96.7449 1199.5316)" class="st5 st6">228</text>
	<text transform="matrix(1 0 0 1 83.6594 1169.3832)" class="st5 st6">229</text>
	<text transform="matrix(1 0 0 1 81.2126 1140.4681)" class="st5 st6">230</text>
	<text transform="matrix(1 0 0 1 96.1492 1105.0853)" class="st5 st6">231</text>
	<text transform="matrix(1 0 0 1 41.2551 1027.8939)" class="st5 st6">232</text>
	<text transform="matrix(1 0 0 1 85.4255 969.6381)" class="st5 st6">233</text>
	<text transform="matrix(1 0 0 1 250.1445 1042.6012)" class="st5 st8">л</text>
	<text transform="matrix(1 0 0 1 250.2879 1024.4272)" class="st5 st8">л</text>
	<text transform="matrix(1 0 0 1 250.2879 1073.4272)" class="st5 st8">л</text>
	<text transform="matrix(1 0 0 1 247.5858 1100.8315)" class="st5 st8">л</text>
	<text transform="matrix(1 0 0 1 248.5858 1129.8315)" class="st5 st8">л</text>
	<text transform="matrix(1 0 0 1 249.5858 1147.8315)" class="st5 st8">л</text>
	<text transform="matrix(1 0 0 1 351.8083 1052.2767)" class="st5 st8">Библиотека</text>
	<text transform="matrix(1 0 0 1 443.9363 1227.5531)" class="st5 st9">Кафедра</text>
	<text transform="matrix(1 0 0 1 443.9363 1246.7531)" class="st5 st9">приема</text>
	<text transform="matrix(1 0 0 1 443.9363 1265.9531)" class="st5 st9">литературы</text>
	<text transform="matrix(1 0 0 1 561.9787 1268.2982)" class="st5 st9">Т</text>
	<text transform="matrix(1 0 0 1 561.6809 1295.1918)" class="st5 st9">Т</text>
	<text transform="matrix(1 0 0 1 649.468 1024.0853)" class="st5 st9">213</text>
	<text transform="matrix(1 0 0 1 638.5745 1099.2767)" class="st5 st9">214</text>
	<text transform="matrix(1 0 0 1 648.2131 1210.8724)" class="st5 st9">215</text>
	<text transform="matrix(1 0 0 1 648.8088 1255.5316)" class="st5 st9">216</text>
	<text transform="matrix(1 0 0 1 648.6174 1321.0638)" class="st5 st9">217</text>
	<text transform="matrix(1 0 0 1 554.2766 1221.7875)" class="st5 st9">218</text>
	<text transform="matrix(1 0 0 1 637.3401 1137.3187)" class="st5 st9">Отдел</text>
	<text transform="matrix(1 0 0 1 637.3401 1156.5187)" class="st5 st9">кадров</text>
	<text transform="matrix(1 0 0 1 628.6594 889.8939)" class="st5 st9">Холл</text>
	<text transform="matrix(1 0 0 1 584.1487 462.6385)" class="st5 st9">205</text>
	<text transform="matrix(1 0 0 1 582.9788 506.9788)" class="st5 st9">206</text>
	<text transform="matrix(1 0 0 1 581.7874 565.0853)" class="st5 st9">207</text>
	<text transform="matrix(1 0 0 1 577.0422 616.3187)" class="st5 st9">208</text>
	<text transform="matrix(1 0 0 1 584.8723 696.1702)" class="st5 st9">209</text>
	<text transform="matrix(1 0 0 1 642.6594 824.0424)" class="st5 st9">210</text>
	<text transform="matrix(1 0 0 1 529.9358 889.5961)" class="st5 st9">211</text>
	<text transform="matrix(1 0 0 1 454.2336 873.4252)" class="st5 st9">212</text>
	<text transform="matrix(1 0 0 1 581.681 789.59)" class="st5 st9">210</text>
	<text transform="matrix(1 0 0 1 453.7873 795.766)" class="st5 st9">201</text>
	<text transform="matrix(1 0 0 1 455.0852 704.5745)" class="st5 st9">202</text>
	<text transform="matrix(1 0 0 1 455.6379 599.4252)" class="st5 st9">203</text>
	<text transform="matrix(1 0 0 1 456.1487 473.3403)" class="st5 st9">204</text>
	<text transform="matrix(1 0 0 1 327.3616 574.3618)" class="st5 st9">Т</text>
	<text transform="matrix(1 0 0 1 327.5745 752.7874)" class="st5 st9">Т</text>
	<text transform="matrix(6.123234e-17 -1 1 6.123234e-17 320.3516 270.9242)" class="st5 st10">205</text>
	<text transform="matrix(1 0 0 1 450.1062 286.6385)" class="st5 st10">Зрительный зал</text>
	<text transform="matrix(1 0 0 1 414.2336 94.1278)" class="st5 st10">201</text>
	<text transform="matrix(1 0 0 1 449.8293 88.7235)" class="st5 st10">202</text>
	<text transform="matrix(1 0 0 1 481.3401 89.0853)" class="st5 st10">203</text>
	<text transform="matrix(1 0 0 1 658.8293 264.1703)" class="st5 st10">204</text>
</g>
</svg>
