<?xml version="1.0" encoding="utf-8"?>
<!-- Generator: Adobe Illustrator 24.3.0, SVG Export Plug-In . SVG Version: 6.00 Build 0)  -->
<svg version="1.1" id="Слой_1" xmlns="http://www.w3.org/2000/svg" xmlns:xlink="http://www.w3.org/1999/xlink" x="0px" y="0px"
	 viewBox="0 0 704.6 1585" style="enable-background:new 0 0 704.6 1585;" xml:space="preserve">
<style type="text/css">
	.st0{opacity:0.5;}
	.st1{fill:none;stroke:#000000;stroke-width:10;stroke-miterlimit:10;}
	.st2{fill:none;stroke:#000000;stroke-width:5;stroke-miterlimit:10;}
	.st3{font-family:'ArialMT';}
	.st4{font-size:32px;}
	.st5{font-size:24px;}
	.st6{font-size:20px;}
	.st7{font-size:16px;}
	.st8{font-size:14px;}
</style>
<g id="Слой_1_1_" class="st0">
</g>
<g id="Слой_2_1_">
	<g>
		<polyline class="st1" points="362.8,43.1 494.3,43.1 494.3,90.1 587.3,90.1 587.3,119.1 613.9,119.1 652.3,167.9 652.3,245.4 
			669.3,271.6 669.3,331.8 692.3,362.8 692.3,436.9 629.4,493.1 607.3,493.1 607.3,824.1 629.2,824.1 684.3,880.2 684.3,1429 
			653.6,1459.6 622.3,1459.6 622.3,1577.1 39.3,1577.1 39.3,720.3 16.3,694.3 16.3,349.3 39.3,326.9 39.3,72.1 144.3,72.1 
			144.3,87.1 281.3,87.1 281.3,43.1 352.9,43.1 		"/>
	</g>
	<line class="st2" x1="138.8" y1="1575.6" x2="138.8" y2="1542.6"/>
	<line class="st2" x1="138.8" y1="1529.9" x2="138.8" y2="1507.6"/>
	<line class="st2" x1="138.8" y1="1488.4" x2="138.8" y2="1468.6"/>
	<line class="st2" x1="138.8" y1="1456.1" x2="138.8" y2="1448.4"/>
	<line class="st2" x1="138.8" y1="1435.9" x2="138.8" y2="1413.6"/>
	<line class="st2" x1="138.8" y1="1401" x2="138.8" y2="1392.6"/>
	<path class="st2" d="M138.8,1292.6"/>
	<line class="st2" x1="138.8" y1="1279.3" x2="138.8" y2="1268.6"/>
	<line class="st2" x1="138.8" y1="1255" x2="138.8" y2="1232.6"/>
	<line class="st2" x1="138.8" y1="1218.4" x2="138.8" y2="1209.5"/>
	<line class="st2" x1="138.8" y1="1195" x2="138.8" y2="1173"/>
	<line class="st2" x1="138.8" y1="1158.8" x2="138.8" y2="1144.4"/>
	<line class="st2" x1="138.8" y1="1131.7" x2="138.8" y2="1071.9"/>
	<line class="st2" x1="138.8" y1="1054.1" x2="138.8" y2="983.1"/>
	<line class="st2" x1="42.8" y1="1513.6" x2="137.8" y2="1513.6"/>
	<line class="st2" x1="42.8" y1="1482.6" x2="137.8" y2="1482.6"/>
	<line class="st2" x1="42.8" y1="1452.3" x2="138.8" y2="1452.3"/>
	<line class="st2" x1="42.8" y1="1423.7" x2="137.8" y2="1423.7"/>
	<line class="st2" x1="42.8" y1="1395.7" x2="139.8" y2="1395.7"/>
	<line class="st2" x1="42.8" y1="1360.4" x2="138.8" y2="1360.4"/>
	<line class="st2" x1="123.8" y1="1394.6" x2="123.8" y2="1384.6"/>
	<line class="st2" x1="123.8" y1="1372.1" x2="123.8" y2="1361.3"/>
	<polyline class="st2" points="73.8,1358.6 73.8,1344.4 77.8,1344.4 	"/>
	<polyline class="st2" points="102.4,1344.4 138.8,1344.4 138.8,1292.6 	"/>
	<line class="st2" x1="42.8" y1="1314.1" x2="137.8" y2="1314.1"/>
	<line class="st2" x1="90.3" y1="1315.7" x2="90.3" y2="1347.7"/>
	<line class="st2" x1="42.8" y1="1274" x2="136.8" y2="1274"/>
	<line class="st2" x1="136.8" y1="1243.8" x2="41.8" y2="1243.8"/>
	<line class="st2" x1="137.8" y1="1213.9" x2="42.8" y2="1213.9"/>
	<line class="st2" x1="136.8" y1="1184" x2="42.8" y2="1184"/>
	<line class="st2" x1="42.8" y1="1153" x2="137.8" y2="1153"/>
	<line class="st2" x1="42.8" y1="1115.5" x2="137.8" y2="1115.5"/>
	<polyline class="st2" points="201.8,1573.6 201.8,1527.5 219.2,1510.1 246.2,1510.1 	"/>
	<line class="st2" x1="217.8" y1="1505.6" x2="217.8" y2="1511.5"/>
	<polyline class="st2" points="217.8,1482.6 217.8,1421.6 554.8,1421.6 	"/>
	<polyline class="st2" points="583.1,1421.6 566.8,1421.6 566.8,1443.6 	"/>
	<polyline class="st2" points="566.8,1455.6 566.8,1461.5 618.4,1461.5 	"/>
	<line class="st2" x1="583.1" y1="1542.1" x2="583.1" y2="1509.6"/>
	<line class="st2" x1="566.8" y1="1461.5" x2="561.7" y2="1461.5"/>
	<line class="st2" x1="552.6" y1="1461.5" x2="502.8" y2="1461.5"/>
	<line class="st2" x1="484.4" y1="1461.5" x2="462.4" y2="1461.5"/>
	<line class="st2" x1="444.8" y1="1461.6" x2="427.8" y2="1461.6"/>
	<line class="st2" x1="419.8" y1="1461.6" x2="402.8" y2="1461.6"/>
	<polyline class="st2" points="255.9,1510.1 261.1,1510.1 261.1,1573.6 	"/>
	<line class="st2" x1="219.8" y1="1475.6" x2="246.2" y2="1475.6"/>
	<line class="st2" x1="255.9" y1="1475.6" x2="304.8" y2="1475.6"/>
	<line class="st2" x1="313.9" y1="1475.6" x2="364.8" y2="1475.6"/>
	<polyline class="st2" points="374.8,1475.6 389.8,1475.6 389.8,1422.6 	"/>
	<line class="st2" x1="261.8" y1="1473.6" x2="261.8" y2="1422.6"/>
	<line class="st2" x1="329.3" y1="1474.6" x2="329.3" y2="1422.6"/>
	<line class="st2" x1="433.8" y1="1459.6" x2="433.8" y2="1422.6"/>
	<line class="st2" x1="523.8" y1="1471.6" x2="523.8" y2="1422.6"/>
	<line class="st2" x1="523.8" y1="1482.6" x2="523.8" y2="1516.8"/>
	<line class="st2" x1="523.8" y1="1533.7" x2="523.8" y2="1574.4"/>
	<line class="st2" x1="462.4" y1="1574.4" x2="462.4" y2="1529.5"/>
	<polyline class="st2" points="462.4,1521.5 462.4,1481 473.4,1481 473.4,1509.6 426.6,1509.6 	"/>
	<line class="st2" x1="400.2" y1="1509.6" x2="369.8" y2="1509.6"/>
	<line class="st2" x1="389.8" y1="1509.6" x2="389.8" y2="1574.6"/>
	<polyline class="st2" points="261.8,1530.4 328.4,1530.4 328.4,1550.4 	"/>
	<path class="st2" d="M328.8,1548.6"/>
	<line class="st2" x1="328.8" y1="1563" x2="328.8" y2="1574.6"/>
	<path class="st2" d="M584.2,1461.5"/>
	<line class="st2" x1="624.8" y1="1455.6" x2="624.8" y2="1409.1"/>
	<polygon class="st2" points="634.4,1412.6 664.8,1412.6 634.6,1442.8 	"/>
	<line class="st2" x1="584.2" y1="1409.1" x2="584.2" y2="1461.5"/>
	<polyline class="st2" points="195.8,1375.6 187.8,1367.6 187.8,1301.6 214.8,1274.6 405.8,1274.6 405.8,1197.9 	"/>
	<polyline class="st2" points="206.8,1386.6 218.1,1398 466.8,1398 	"/>
	<polyline class="st2" points="481.9,1398 552.6,1398 552.6,1383.6 582.5,1353.8 582.5,1327.6 	"/>
	<polyline class="st2" points="580.8,1337.6 519.7,1337.6 519.7,1202.6 	"/>
	<line class="st2" x1="519.8" y1="1188.6" x2="519.8" y2="1155.6"/>
	<line class="st2" x1="582.5" y1="1319.5" x2="582.5" y2="1303.6"/>
	<line class="st2" x1="582.5" y1="1297" x2="582.5" y2="1257.5"/>
	<line class="st2" x1="583.1" y1="1243" x2="583.1" y2="1201.7"/>
	<line class="st2" x1="521.7" y1="1311.6" x2="580.8" y2="1311.6"/>
	<line class="st2" x1="521.7" y1="1288.8" x2="580.8" y2="1288.8"/>
	<line class="st2" x1="521.7" y1="1210.8" x2="582.5" y2="1210.8"/>
	<line class="st2" x1="583.1" y1="1185.9" x2="583.1" y2="1140.1"/>
	<path class="st2" d="M582.5,1154.4H476.8c0,0-19,25.4-43,33.3"/>
	<polyline class="st2" points="558.8,1179.6 564.2,1179.6 564.2,1162.1 533.7,1162.1 533.7,1179.6 537.7,1179.6 	"/>
	<line class="st2" x1="545.1" y1="1179.6" x2="552.1" y2="1179.6"/>
	<line class="st2" x1="548.6" y1="1179.6" x2="548.6" y2="1163.7"/>
	<path class="st2" d="M420.8,1194.6c0,0-40,21-97-24"/>
	<path class="st2" d="M313.9,1161.3c0,0-23.2-19.6-24.2-64.6h-21.2v59.3h-18.8"/>
	<line class="st2" x1="269.8" y1="1396.6" x2="269.8" y2="1331.7"/>
	<polyline class="st2" points="397.1,1396.6 397.1,1336.6 458.8,1336.6 	"/>
	<line class="st2" x1="408.2" y1="1336.6" x2="408.2" y2="1396.6"/>
	<line class="st2" x1="232.8" y1="1274" x2="232.8" y2="1254.6"/>
	<line class="st2" x1="232.8" y1="1242.6" x2="232.8" y2="1221.7"/>
	<line class="st2" x1="232.8" y1="1209.5" x2="232.8" y2="1195"/>
	<polyline class="st2" points="220.8,1202.3 213.1,1202.3 213.1,1135 	"/>
	<line class="st2" x1="213.1" y1="1127.3" x2="213.1" y2="1116.6"/>
	<line class="st2" x1="213.1" y1="1108.1" x2="213.1" y2="1089.9"/>
	<line class="st2" x1="213.1" y1="1082.4" x2="213.1" y2="1070.6"/>
	<polyline class="st2" points="213.1,1063.3 213.1,1057.5 248.8,1057.5 248.8,1163 	"/>
	<line class="st2" x1="248.8" y1="1171" x2="248.8" y2="1181.9"/>
	<polyline class="st2" points="248.8,1189 248.8,1195 213.1,1195 	"/>
	<line class="st2" x1="214.4" y1="1176.5" x2="247.1" y2="1176.5"/>
	<line class="st2" x1="214.4" y1="1157.3" x2="247.1" y2="1157.3"/>
	<line class="st2" x1="214.4" y1="1120.4" x2="247.1" y2="1120.4"/>
	<line class="st2" x1="214.4" y1="1105.3" x2="247.1" y2="1105.3"/>
	<line class="st2" x1="214.8" y1="1093.6" x2="247.1" y2="1093.6"/>
	<line class="st2" x1="214.4" y1="1076.5" x2="247.1" y2="1076.5"/>
	<line class="st2" x1="361.1" y1="1274" x2="361.1" y2="1214.6"/>
	<line class="st2" x1="361.1" y1="1201" x2="361.1" y2="1192.6"/>
	<polyline class="st2" points="680.6,1398 607.7,1398 607.7,1358.6 	"/>
	<line class="st2" x1="607.8" y1="1344.6" x2="607.8" y2="1327.6"/>
	<line class="st2" x1="607.8" y1="1312.6" x2="607.8" y2="1176.4"/>
	<line class="st2" x1="607.8" y1="1161" x2="607.8" y2="1143.5"/>
	<polyline class="st2" points="607.8,1129.6 607.8,1029.6 624.8,1029.6 	"/>
	<line class="st2" x1="637.5" y1="1029.6" x2="681.7" y2="1029.6"/>
	<line class="st2" x1="607.8" y1="1121.5" x2="681.7" y2="1121.5"/>
	<line class="st2" x1="609.8" y1="1154.6" x2="680.6" y2="1154.6"/>
	<line class="st2" x1="609.8" y1="1195.7" x2="626.4" y2="1195.7"/>
	<polyline class="st2" points="637.5,1195.7 655.1,1195.7 655.1,1154.6 	"/>
	<line class="st2" x1="609.8" y1="1251" x2="627.8" y2="1251"/>
	<line class="st2" x1="638.4" y1="1251" x2="680.6" y2="1251"/>
	<line class="st2" x1="680.6" y1="1274.1" x2="607.8" y2="1274.1"/>
	<line class="st2" x1="608.6" y1="1337.6" x2="680.6" y2="1337.6"/>
	<circle class="st2" cx="390.3" cy="1105.1" r="73.5"/>
	<polyline class="st2" points="248.8,1057.5 258.8,1039.6 258.8,983.1 	"/>
	<line class="st2" x1="395.8" y1="1007.6" x2="395.8" y2="983.1"/>
	<polyline class="st2" points="582.8,1125.6 582.8,1010.6 539.9,1010.6 539.9,983.1 	"/>
	<polyline class="st2" points="517.8,982.1 517.8,1034.6 505.1,1034.6 505.1,983.1 	"/>
	<line class="st2" x1="605.8" y1="1010.6" x2="680.6" y2="1010.6"/>
	<line class="st2" x1="40.4" y1="983.1" x2="160.8" y2="983.1"/>
	<line class="st2" x1="175.3" y1="983.1" x2="190.8" y2="983.1"/>
	<line class="st2" x1="206.8" y1="983.1" x2="295.8" y2="983.1"/>
	<line class="st2" x1="309.3" y1="983.1" x2="365.8" y2="983.1"/>
	<line class="st2" x1="384.2" y1="983.1" x2="455.5" y2="983.1"/>
	<line class="st2" x1="469.1" y1="983.1" x2="481.1" y2="983.1"/>
	<line class="st2" x1="495.5" y1="983.1" x2="520.8" y2="983.1"/>
	<line class="st2" x1="529.9" y1="983.1" x2="681.7" y2="983.1"/>
	<line class="st2" x1="502.8" y1="1095.6" x2="532.2" y2="1095.6"/>
	<line class="st2" x1="126.9" y1="983.1" x2="126.9" y2="966.6"/>
	<line class="st2" x1="126.9" y1="952.1" x2="126.9" y2="935.6"/>
	<polyline class="st2" points="126.8,926.6 126.8,900.6 206.8,900.6 206.8,923.5 	"/>
	<polyline class="st2" points="247.1,922.8 247.1,900.6 508.2,900.6 508.2,429.1 235.6,429.1 	"/>
	<line class="st2" x1="42.8" y1="948.6" x2="126.8" y2="948.6"/>
	<polyline class="st2" points="89.8,946.6 89.8,908.6 126.8,908.6 	"/>
	<line class="st2" x1="42.8" y1="898.8" x2="52.8" y2="898.8"/>
	<line class="st2" x1="60.8" y1="898.6" x2="76.6" y2="898.6"/>
	<polyline class="st2" points="84.8,898.6 91.6,898.6 91.6,908.6 	"/>
	<line class="st2" x1="68.7" y1="900.6" x2="68.7" y2="948.6"/>
	<line class="st2" x1="288.6" y1="983.1" x2="288.6" y2="900.6"/>
	<line class="st2" x1="357.9" y1="900.6" x2="357.9" y2="982.1"/>
	<polyline class="st2" points="440.9,982.1 440.9,965.5 437.8,959.6 	"/>
	<polyline class="st2" points="432.8,952.6 429.8,947.6 418.3,947.6 418.3,900.6 	"/>
	<line class="st2" x1="368.8" y1="948.6" x2="406.3" y2="948.6"/>
	<line class="st2" x1="387.5" y1="947.1" x2="387.5" y2="900.6"/>
	<line class="st2" x1="569.8" y1="982.6" x2="569.8" y2="952.6"/>
	<line class="st2" x1="569.8" y1="941.9" x2="569.8" y2="900.6"/>
	<polyline class="st2" points="502.8,914.6 527.3,914.6 527.3,900.6 681.7,900.6 538.3,900.6 538.3,892.6 	"/>
	<line class="st2" x1="537.8" y1="884.6" x2="537.8" y2="837.5"/>
	<polyline class="st2" points="537.8,826.8 537.8,795.1 605.8,795.1 	"/>
	<line class="st2" x1="544.6" y1="795.1" x2="544.6" y2="783.5"/>
	<line class="st2" x1="544.6" y1="771.5" x2="544.6" y2="760.1"/>
	<polyline class="st2" points="604.3,760.1 537.8,760.1 537.8,710.1 	"/>
	<line class="st2" x1="537.8" y1="701.5" x2="537.8" y2="687.8"/>
	<line class="st2" x1="537.8" y1="676" x2="537.8" y2="620.1"/>
	<line class="st2" x1="537.8" y1="608.8" x2="537.8" y2="574.5"/>
	<polyline class="st2" points="537.8,563.8 537.8,460.6 605.8,460.6 605.8,494.5 	"/>
	<polyline class="st2" points="605.8,446.5 605.8,431.1 690.6,431.1 	"/>
	<polygon class="st2" points="619.8,454.6 645.8,454.6 620.7,479.7 	"/>
	<line class="st2" x1="539.9" y1="694.6" x2="604.3" y2="694.6"/>
	<line class="st2" x1="537.8" y1="626.1" x2="603.8" y2="626.1"/>
	<line class="st2" x1="286.8" y1="832.6" x2="286.8" y2="742.6"/>
	<line class="st2" x1="286.8" y1="629.8" x2="286.8" y2="528.8"/>
	<line class="st2" x1="342.3" y1="900.6" x2="342.3" y2="869.6"/>
	<line class="st2" x1="342.3" y1="861.1" x2="342.3" y2="826.8"/>
	<line class="st2" x1="342.3" y1="817.5" x2="342.3" y2="768.8"/>
	<line class="st2" x1="342.3" y1="758.8" x2="342.3" y2="723.1"/>
	<line class="st2" x1="342.3" y1="714.1" x2="342.3" y2="658.8"/>
	<line class="st2" x1="342.3" y1="649.8" x2="342.3" y2="602.5"/>
	<line class="st2" x1="342.3" y1="593.5" x2="342.3" y2="523.1"/>
	<line class="st2" x1="342.3" y1="513.8" x2="342.3" y2="471.8"/>
	<line class="st2" x1="342.3" y1="463.5" x2="342.3" y2="430.6"/>
	<line class="st2" x1="342.3" y1="791.8" x2="508.2" y2="791.8"/>
	<line class="st2" x1="342.3" y1="692.1" x2="508.2" y2="692.1"/>
	<line class="st2" x1="342.3" y1="558.3" x2="508.2" y2="558.3"/>
	<polyline class="st2" points="395.8,899.5 395.8,876.6 428.8,876.6 	"/>
	<polyline class="st2" points="428.8,813.1 395.8,813.1 395.8,771.5 428.8,771.5 	"/>
	<polyline class="st2" points="428.8,710.1 395.8,710.1 395.8,674.5 428.8,674.5 	"/>
	<polyline class="st2" points="428.8,579.3 395.8,579.3 395.8,538.6 428.8,538.6 	"/>
	<polyline class="st2" points="428.8,448.5 395.8,448.5 395.8,430.6 	"/>
	<line class="st2" x1="471.9" y1="899.5" x2="471.9" y2="811"/>
	<line class="st2" x1="471.9" y1="771.5" x2="471.9" y2="578.1"/>
	<line class="st2" x1="471.9" y1="538.6" x2="471.9" y2="430.6"/>
	<line class="st2" x1="457.3" y1="538.6" x2="508.2" y2="538.6"/>
	<line class="st2" x1="457.3" y1="579.3" x2="508.2" y2="579.3"/>
	<line class="st2" x1="456.8" y1="771.6" x2="508.2" y2="771.6"/>
	<line class="st2" x1="457.3" y1="813.1" x2="508.2" y2="813.1"/>
	<polyline class="st2" points="40.4,859.5 144.8,859.5 144.8,795.5 97.9,795.5 	"/>
	<line class="st2" x1="89.8" y1="795.5" x2="76.6" y2="795.5"/>
	<line class="st2" x1="76.6" y1="859.5" x2="76.6" y2="777.6"/>
	<line class="st2" x1="76.6" y1="766.8" x2="76.6" y2="707.6"/>
	<line class="st2" x1="76.8" y1="698.6" x2="76.8" y2="684.6"/>
	<line class="st2" x1="76.8" y1="676" x2="76.8" y2="623.6"/>
	<line class="st2" x1="42.8" y1="760.8" x2="76.6" y2="760.8"/>
	<line class="st2" x1="18.6" y1="691.6" x2="76.6" y2="691.6"/>
	<polyline class="st2" points="18.6,623.6 178.8,623.6 178.8,758.8 109.8,758.8 109.8,706.6 	"/>
	<line class="st2" x1="109.8" y1="696.6" x2="109.8" y2="684.6"/>
	<line class="st2" x1="109.8" y1="676" x2="109.8" y2="623.6"/>
	<line class="st2" x1="109.8" y1="690.6" x2="178.8" y2="690.6"/>
	<line class="st2" x1="91.3" y1="623.6" x2="91.3" y2="617.5"/>
	<line class="st2" x1="91.3" y1="609.5" x2="91.3" y2="569.5"/>
	<line class="st2" x1="18.6" y1="587.1" x2="91.3" y2="587.1"/>
	<line class="st2" x1="90.8" y1="560.6" x2="90.8" y2="536.5"/>
	<line class="st2" x1="88.8" y1="554.6" x2="18.6" y2="554.6"/>
	<line class="st2" x1="90.8" y1="528.8" x2="90.8" y2="516.1"/>
	<line class="st2" x1="88.8" y1="522.5" x2="16.6" y2="522.5"/>
	<line class="st2" x1="90.8" y1="508.1" x2="90.8" y2="471.8"/>
	<line class="st2" x1="88.8" y1="490" x2="18.6" y2="490"/>
	<line class="st2" x1="90.8" y1="462.1" x2="90.8" y2="452.1"/>
	<line class="st2" x1="90.8" y1="457.1" x2="16.8" y2="457.1"/>
	<line class="st2" x1="90.8" y1="442.8" x2="90.8" y2="405.8"/>
	<line class="st2" x1="90.8" y1="395.8" x2="90.8" y2="388.5"/>
	<line class="st2" x1="90.8" y1="378.5" x2="90.8" y2="335.5"/>
	<polyline class="st2" points="90.8,326.5 90.8,316.8 57.9,316.8 57.9,300.5 39.9,300.5 	"/>
	<line class="st2" x1="88.8" y1="425.5" x2="16.8" y2="425.5"/>
	<line class="st2" x1="90.8" y1="392.1" x2="16.8" y2="392.1"/>
	<line class="st2" x1="18.6" y1="358.5" x2="88.8" y2="358.5"/>
	<line class="st2" x1="91.3" y1="427.5" x2="106.3" y2="427.5"/>
	<line class="st2" x1="120.9" y1="427.5" x2="157.9" y2="427.5"/>
	<line class="st2" x1="172.3" y1="427.5" x2="221.6" y2="427.5"/>
	<line class="st2" x1="41.8" y1="266.6" x2="118.8" y2="266.6"/>
	<polyline class="st2" points="118.8,256.5 118.8,300.5 85.8,300.5 	"/>
	<line class="st2" x1="76.8" y1="300.5" x2="69.9" y2="300.5"/>
	<line class="st2" x1="62.6" y1="300.5" x2="57.9" y2="300.5"/>
	<line class="st2" x1="73.4" y1="300.5" x2="73.4" y2="266.6"/>
	<polyline class="st2" points="118.8,244.8 118.8,235.5 41.8,235.5 	"/>
	<line class="st2" x1="101.3" y1="235.5" x2="101.3" y2="202.5"/>
	<line class="st2" x1="101.3" y1="193.8" x2="101.3" y2="181.5"/>
	<line class="st2" x1="101.3" y1="187.6" x2="41.8" y2="187.6"/>
	<polyline class="st2" points="101.3,172.1 101.3,100.5 80.3,100.5 80.3,74.8 	"/>
	<line class="st2" x1="141.8" y1="89.6" x2="141.8" y2="147.8"/>
	<polyline class="st2" points="130.8,298.6 196.8,298.6 196.8,291.6 	"/>
	<polyline class="st2" points="196.9,240.1 196.9,231.8 165.8,231.8 165.8,298.6 	"/>
	<polyline class="st2" points="141.8,298.6 141.8,231.8 131.9,231.8 	"/>
	<line class="st2" x1="141.8" y1="238.8" x2="163.8" y2="238.8"/>
	<line class="st2" x1="144.3" y1="267.8" x2="163.8" y2="267.8"/>
	<line class="st2" x1="283.3" y1="427.5" x2="283.3" y2="418.1"/>
	<line class="st2" x1="283.3" y1="407.5" x2="283.3" y2="219"/>
	<line class="st2" x1="283.3" y1="195.5" x2="283.3" y2="166.8"/>
	<line class="st2" x1="283.3" y1="149.5" x2="283.3" y2="81.5"/>
	<line class="st2" x1="283.3" y1="396.5" x2="319.8" y2="396.5"/>
	<line class="st2" x1="333.3" y1="396.5" x2="672.8" y2="396.5"/>
	<line class="st2" x1="683.3" y1="396.5" x2="690.6" y2="396.5"/>
	<line class="st2" x1="605.8" y1="411.8" x2="605.8" y2="398.1"/>
	<line class="st2" x1="596.3" y1="396.5" x2="596.3" y2="378.8"/>
	<polyline class="st2" points="314.8,395.6 314.8,363.6 308.8,347.6 	"/>
	<polyline class="st2" points="365.3,395.6 336.8,331.6 336.8,237.8 360.8,175.6 	"/>
	<line class="st2" x1="284.9" y1="175.6" x2="420.8" y2="175.6"/>
	<polyline class="st2" points="351,203.5 429.8,203.5 429.8,152.1 329.3,152.1 	"/>
	<polyline class="st2" points="319.8,152.1 308.8,152.1 308.8,46.6 	"/>
	<line class="st2" x1="308.8" y1="142.8" x2="293.3" y2="142.8"/>
	<line class="st2" x1="308.8" y1="175.6" x2="308.8" y2="166.8"/>
	<polyline class="st2" points="503,396.5 503,381.5 575.8,381.5 575.8,215.5 558.8,215.5 558.8,193.6 503,193.6 503,175.6 
		467.3,175.6 431.3,175.6 588.9,175.6 588.9,117.5 	"/>
	<path class="st2" d="M467.8,161.6"/>
	<line class="st2" x1="467.8" y1="147.1" x2="467.8" y2="46.6"/>
	<line class="st2" x1="468.9" y1="142.8" x2="482.7" y2="142.8"/>
	<line class="st2" x1="497.8" y1="91.6" x2="497.8" y2="158.5"/>
	<line class="st2" x1="497.8" y1="168.8" x2="497.8" y2="175.6"/>
	<line class="st2" x1="513.3" y1="175.6" x2="513.3" y2="168.8"/>
	<polyline class="st2" points="513.3,159.8 513.3,152.1 498.9,152.1 	"/>
	<line class="st2" x1="467.8" y1="161.6" x2="467.8" y2="175.6"/>
	<line class="st2" x1="666.3" y1="395.6" x2="666.3" y2="358.8"/>
	<line class="st2" x1="664.8" y1="365.6" x2="609.8" y2="365.6"/>
	<polyline class="st2" points="615.8,363.6 615.8,336.5 593.8,336.5 593.8,191.1 	"/>
	<line class="st2" x1="596.3" y1="224.8" x2="600.6" y2="224.8"/>
	<polyline class="st2" points="634.8,340.6 664.8,340.6 664.8,319.8 619.8,319.8 	"/>
	<line class="st2" x1="635.9" y1="319.8" x2="635.9" y2="326.8"/>
	<line class="st2" x1="617.8" y1="269.6" x2="666.3" y2="269.6"/>
	<line class="st2" x1="609.8" y1="224.8" x2="649.8" y2="224.8"/>
	<line class="st2" x1="619.8" y1="240.5" x2="619.8" y2="161.6"/>
	<polyline class="st2" points="619.8,152.1 619.8,141.1 624.8,137.6 	"/>
	<line class="st2" x1="344.8" y1="56.6" x2="344.8" y2="6.6"/>
	<line class="st2" x1="440.2" y1="56.6" x2="440.2" y2="6.6"/>
	<line class="st2" x1="337.7" y1="6.6" x2="445.8" y2="6.6"/>
	<text transform="matrix(1 0 0 1 71.6384 1552.7017)" class="st3 st4">336</text>
	<text transform="matrix(1 0 0 1 69.6384 1507.5532)" class="st3 st4">337</text>
	<text transform="matrix(1 0 0 1 70.1916 1475.3833)" class="st3 st4">338</text>
	<text transform="matrix(1 0 0 1 70.6809 1445.6597)" class="st3 st4">339</text>
	<text transform="matrix(1 0 0 1 70.6809 1419.4897)" class="st3 st4">340</text>
	<text transform="matrix(1 0 0 1 71.7019 1302.4468)" class="st3 st4">341</text>
	<text transform="matrix(1 0 0 1 71.7873 1268.8296)" class="st3 st4">342</text>
	<text transform="matrix(1 0 0 1 72.8083 1239.6597)" class="st3 st4">343</text>
	<text transform="matrix(1 0 0 1 73.404 1209.5532)" class="st3 st4">344</text>
	<text transform="matrix(1 0 0 1 73.4255 1178.3833)" class="st3 st4">345</text>
	<text transform="matrix(1 0 0 1 72.9787 1076.6812)" class="st3 st4">346</text>
	<text transform="matrix(1 0 0 1 224.447 1073.4897)" class="st3 st5">л</text>
	<text transform="matrix(1 0 0 1 223.7777 1173.4269)" class="st3 st5">л</text>
	<text transform="matrix(1 0 0 1 222.7777 1191.4269)" class="st3 st5">л</text>
	<text transform="matrix(1 0 0 1 223.7777 1141.4269)" class="st3 st5">л</text>
	<text transform="matrix(1 0 0 1 224.7777 1118.4269)" class="st3 st6">л</text>
	<text transform="matrix(1 0 0 1 223.7777 1090.4269)" class="st3 st6">л</text>
	<text transform="matrix(1 0 0 1 224.9363 1460.106)" class="st3 st6">328</text>
	<text transform="matrix(1 0 0 1 278.2341 1460.7876)" class="st3 st6">329</text>
	<text transform="matrix(1 0 0 1 347.2766 1460.0425)" class="st3 st6">330</text>
	<text transform="matrix(1 0 0 1 397.5315 1449.4683)" class="st3 st6">331</text>
	<text transform="matrix(1 0 0 1 459.2766 1448.7231)" class="st3 st6">332</text>
	<text transform="matrix(1 0 0 1 539.1272 1507.9995)" class="st3 st6">333</text>
	<text transform="matrix(1 0 0 1 404.7239 1552.979)" class="st3 st6">334А</text>
	<text transform="matrix(1 0 0 1 218.5745 1549.9995)" class="st3 st6">335</text>
	<text transform="matrix(1 0 0 1 415.0471 1252.9546)" class="st3 st7">Социально-</text>
	<text transform="matrix(1 0 0 1 415.0471 1272.1545)" class="st3 st7">гуманитарная</text>
	<text transform="matrix(1 0 0 1 415.0471 1291.3546)" class="st3 st7">литература</text>
	<text transform="matrix(1 0 0 1 465.426 1120.1274)" class="st3 st7">Художественная</text>
	<text transform="matrix(1 0 0 1 465.426 1139.3274)" class="st3 st7">литература</text>
	<text transform="matrix(1 0 0 1 534.9573 1203.3618)" class="st3 st7">347</text>
	<text transform="matrix(1 0 0 1 537.9573 1255.1274)" class="st3 st7">327</text>
	<text transform="matrix(1 0 0 1 628.8723 1366.2554)" class="st3 st7">326</text>
	<text transform="matrix(1 0 0 1 627.8938 1316.979)" class="st3 st7">325</text>
	<text transform="matrix(1 0 0 1 618.1487 1180.106)" class="st3 st7">324</text>
	<text transform="matrix(1 0 0 1 622.8088 1142.7876)" class="st3 st7">323</text>
	<text transform="matrix(1 0 0 1 620.3616 1062.6167)" class="st3 st7">322</text>
	<text transform="matrix(1 0 0 1 596.5315 952.7236)" class="st3 st7">322</text>
	<text transform="matrix(1 0 0 1 187.7873 953.915)" class="st3 st7">Холл</text>
	<text transform="matrix(1 0 0 1 94.7873 829.5742)" class="st3 st7">301</text>
	<text transform="matrix(1 0 0 1 45.7659 819.3618)" class="st3 st7">302</text>
	<text transform="matrix(1 0 0 1 45.7659 725.4043)" class="st3 st7">303</text>
	<text transform="matrix(1 0 0 1 42.404 676.4892)" class="st3 st7">304</text>
	<text transform="matrix(1 0 0 1 122.8298 676.1489)" class="st3 st7">305</text>
	<text transform="matrix(1 0 0 1 122.3616 720.2979)" class="st3 st7">306</text>
	<text transform="matrix(1 0 0 1 51.0002 613.0639)" class="st3 st7">307</text>
	<text transform="matrix(1 0 0 1 51.468 574.7661)" class="st3 st7">308</text>
	<text transform="matrix(1 0 0 1 50.9573 543.1064)" class="st3 st7">309</text>
	<text transform="matrix(1 0 0 1 50.447 510)" class="st3 st7">310</text>
	<text transform="matrix(1 0 0 1 50.9787 478.3403)" class="st3 st7">311</text>
	<text transform="matrix(1 0 0 1 50.532 446.5957)" class="st3 st7">312</text>
	<text transform="matrix(1 0 0 1 50.468 413)" class="st3 st7">313</text>
	<text transform="matrix(1 0 0 1 50.1277 382.2554)" class="st3 st7">314</text>
	<text transform="matrix(1 0 0 1 49.8513 348.5532)" class="st3 st7">315</text>
	<text transform="matrix(1 0 0 1 60.468 214.7661)" class="st3 st7">316</text>
	<text transform="matrix(1 0 0 1 60.532 162.1704)" class="st3 st7">317</text>
	<text transform="matrix(1 0 0 1 222.447 695.2763)" class="st3 st7">Холл</text>
	<text transform="matrix(1 0 0 1 554.426 855.1704)" class="st3 st7">321</text>
	<text transform="matrix(1 0 0 1 553.8508 740.213)" class="st3 st7">320</text>
	<text transform="matrix(1 0 0 1 553.3401 670.7661)" class="st3 st7">319</text>
	<text transform="matrix(1 0 0 1 554.4045 580.8936)" class="st3 st7">318</text>
	<text transform="matrix(1 0 0 1 615.1272 301.5742)" class="st3 st7">т304</text>
	<text transform="matrix(1 0 0 1 607.9788 259.7021)" class="st3 st7">т303</text>
	<text transform="matrix(1 0 0 1 519.1272 142.2554)" class="st3 st7">т302</text>
	<text transform="matrix(1 0 0 1 377.1702 116.2129)" class="st3 st7">т302</text>
	<text transform="matrix(1 0 0 1 286.4255 290.8936)" class="st3 st8">Балкон</text>
</g>
</svg>
