<?xml version="1.0" encoding="utf-8"?>
<!-- Generator: Adobe Illustrator 24.3.0, SVG Export Plug-In . SVG Version: 6.00 Build 0)  -->
<svg version="1.1" id="Слой_1" xmlns="http://www.w3.org/2000/svg" xmlns:xlink="http://www.w3.org/1999/xlink" x="0px" y="0px"
	 viewBox="0 0 729.2 1476.8" style="enable-background:new 0 0 729.2 1476.8;" xml:space="preserve">
<style type="text/css">
	.st0{opacity:0.5;}
	.st1{fill:none;stroke:#000000;stroke-width:5;stroke-miterlimit:10;}
	.st2{font-family:'ArialMT';}
	.st3{font-size:32px;}
	.st4{font-size:16px;}
	.st5{font-size:20px;}
	.st6{font-size:12px;}
</style>
<g id="Слой_1_1_" class="st0">
</g>
<g id="Слой_2_1_">
	<g>
		<g>
			<path d="M508.9,18.1v42v10h10h127v82h-25h-10v10v121v10h10h89v67l-74.3,55h-15.7h-10v10v1037h-571v-837V621L36,618l-20.6-20.6
				V299.1l20.7-20.7l2.9-2.9v-4.1V78.1h114.8h10v-10v-10h121h10v-10v-30H508.9 M518.9,8.1h-234v40h-131v20H29.1v203.2L5.4,294.9
				v306.7l23.5,23.5v847h591v-1047h19l81-60v-82h-99v-121h35v-102h-137L518.9,8.1L518.9,8.1z"/>
		</g>
		<line class="st1" x1="127.9" y1="1464.1" x2="127.9" y2="1430.1"/>
		<line class="st1" x1="127.9" y1="1416.6" x2="127.9" y2="1370.1"/>
		<line class="st1" x1="127.9" y1="1354.9" x2="127.9" y2="1309.1"/>
		<line class="st1" x1="127.9" y1="1137.6" x2="127.9" y2="1127.6"/>
		<line class="st1" x1="127.9" y1="1109.6" x2="127.9" y2="1056.3"/>
		<line class="st1" x1="127.9" y1="1409.3" x2="35.1" y2="1409.3"/>
		<line class="st1" x1="127.9" y1="1347.3" x2="36.4" y2="1347.3"/>
		<polyline class="st1" points="35.9,1295.1 127.9,1295.1 127.9,1277.3 		"/>
		<polyline class="st1" points="127.9,1263.3 127.9,1257.6 35.9,1257.6 		"/>
		<polyline class="st1" points="63.4,1257.6 63.4,1240.3 69.4,1240.3 		"/>
		<line class="st1" x1="76.1" y1="1240.3" x2="84.1" y2="1240.3"/>
		<polyline class="st1" points="92.1,1240.3 127.9,1240.3 127.9,1153.9 		"/>
		<line class="st1" x1="36.4" y1="1203.3" x2="127.9" y2="1203.3"/>
		<line class="st1" x1="80.1" y1="1240.3" x2="80.1" y2="1203.3"/>
		<line class="st1" x1="127.9" y1="1132.6" x2="36.4" y2="1132.6"/>
		<line class="st1" x1="36.4" y1="1065.9" x2="127.9" y2="1065.9"/>
		<polyline class="st1" points="36.4,1040.6 127.9,1040.6 127.9,1022.3 		"/>
		<line class="st1" x1="127.9" y1="1010.9" x2="127.9" y2="994.9"/>
		<line class="st1" x1="127.9" y1="981.6" x2="127.9" y2="949.3"/>
		<line class="st1" x1="127.9" y1="934.3" x2="127.9" y2="898.6"/>
		<line class="st1" x1="127.9" y1="886.6" x2="127.9" y2="849.3"/>
		<line class="st1" x1="125.9" y1="1000.1" x2="36.4" y2="1000.1"/>
		<line class="st1" x1="127.9" y1="974.3" x2="35.1" y2="974.3"/>
		<line class="st1" x1="125.9" y1="911.9" x2="34.9" y2="911.9"/>
		<polyline class="st1" points="197.1,1464.1 197.1,1362.1 218.4,1362.1 		"/>
		<line class="st1" x1="231.7" y1="1362.1" x2="266.1" y2="1362.1"/>
		<line class="st1" x1="290.7" y1="1362.1" x2="329.1" y2="1362.1"/>
		<line class="st1" x1="342.4" y1="1362.1" x2="393.1" y2="1362.1"/>
		<line class="st1" x1="405.7" y1="1362.1" x2="456.4" y2="1362.1"/>
		<line class="st1" x1="469.1" y1="1362.1" x2="519.9" y2="1362.1"/>
		<line class="st1" x1="532.7" y1="1362.1" x2="554.7" y2="1362.1"/>
		<line class="st1" x1="567.4" y1="1362.1" x2="575.7" y2="1362.1"/>
		<line class="st1" x1="259.7" y1="1464.1" x2="259.7" y2="1362.1"/>
		<line class="st1" x1="323.4" y1="1464.1" x2="323.4" y2="1362.1"/>
		<line class="st1" x1="387.4" y1="1464.1" x2="387.4" y2="1362.1"/>
		<line class="st1" x1="450.4" y1="1464.1" x2="450.4" y2="1363.3"/>
		<line class="st1" x1="512.7" y1="1464.1" x2="512.7" y2="1363.3"/>
		<polyline class="st1" points="610.9,1371.1 575.7,1371.1 575.7,1312.1 		"/>
		<line class="st1" x1="270.9" y1="1324.1" x2="250.9" y2="1324.1"/>
		<polyline class="st1" points="236.1,1324.1 199.9,1324.1 177.4,1301.6 177.4,1267.1 		"/>
		<polyline class="st1" points="177.4,1251.9 177.4,1186.1 181.2,1182.3 		"/>
		<line class="st1" x1="194.9" y1="1220.1" x2="194.9" y2="1163.9"/>
		<polyline class="st1" points="194.9,1176.6 210.2,1161.3 295.4,1161.3 		"/>
		<line class="st1" x1="259.7" y1="1324.1" x2="259.7" y2="1161.3"/>
		<line class="st1" x1="289.4" y1="1324.1" x2="405.7" y2="1324.1"/>
		<polyline class="st1" points="419.1,1324.1 450.4,1324.1 473.9,1285.1 494.5,1285.1 		"/>
		<line class="st1" x1="508.1" y1="1285.1" x2="613.1" y2="1285.1"/>
		<line class="st1" x1="512.7" y1="1283.6" x2="512.7" y2="1263.1"/>
		<line class="st1" x1="512.7" y1="1250.3" x2="512.7" y2="1109.1"/>
		<line class="st1" x1="512.9" y1="1093.1" x2="512.9" y2="1080.9"/>
		<line class="st1" x1="512.9" y1="1066.6" x2="512.9" y2="1031.1"/>
		<line class="st1" x1="514.9" y1="1114.1" x2="522.7" y2="1114.1"/>
		<line class="st1" x1="532.7" y1="1114.1" x2="575.7" y2="1114.1"/>
		<line class="st1" x1="610.9" y1="1109.1" x2="594.7" y2="1109.1"/>
		<polyline class="st1" points="583.7,1109.1 574.4,1109.1 574.4,1157.1 613.1,1157.1 		"/>
		<line class="st1" x1="610.9" y1="1088.6" x2="512.9" y2="1088.6"/>
		<path class="st1" d="M580.9,1040.1v-9H469.1c0,0-0.2,1-6.2,8"/>
		<polyline class="st1" points="534.9,1058.1 529,1058.1 529,1035.6 562.7,1035.6 562.7,1058.1 557.9,1058.1 		"/>
		<line class="st1" x1="548.5" y1="1058.1" x2="541.4" y2="1058.1"/>
		<line class="st1" x1="545" y1="1036.9" x2="545" y2="1058.1"/>
		<polyline class="st1" points="484.3,1283.6 484.3,1090.1 470.1,1075.9 		"/>
		<line class="st1" x1="463.9" y1="1069.1" x2="448.9" y2="1054.1"/>
		<path class="st1" d="M455.4,1046.8c0,0-13.3,15.2-32.9,22.2"/>
		<line class="st1" x1="385.9" y1="1323.1" x2="385.9" y2="1078.1"/>
		<line class="st1" x1="317.4" y1="1283.6" x2="384.9" y2="1283.6"/>
		<line class="st1" x1="309.2" y1="1161.3" x2="384.9" y2="1161.3"/>
		<line class="st1" x1="341.9" y1="1160.1" x2="341.9" y2="1094.1"/>
		<path class="st1" d="M407.9,1074.1c0,0-56,15-96-24"/>
		<path class="st1" d="M300.9,1040.1c0,0-25-26-24-68h-21.1"/>
		<line class="st1" x1="220.7" y1="1161.3" x2="220.7" y2="1144.7"/>
		<line class="st1" x1="220.7" y1="1122.3" x2="220.7" y2="1104.9"/>
		<line class="st1" x1="220.7" y1="1090" x2="220.7" y2="1076.1"/>
		<polyline class="st1" points="207.9,1086.1 197.9,1086.1 197.9,1015.1 		"/>
		<line class="st1" x1="197.9" y1="1006.1" x2="197.9" y2="994.9"/>
		<line class="st1" x1="197.9" y1="987.2" x2="197.9" y2="967.6"/>
		<line class="st1" x1="197.9" y1="958.7" x2="197.9" y2="946.6"/>
		<polyline class="st1" points="197.9,938.7 197.9,933.1 236.1,933.1 236.1,1043.1 		"/>
		<line class="st1" x1="236.1" y1="1052.3" x2="236.1" y2="1062.1"/>
		<line class="st1" x1="236.1" y1="1069.2" x2="236.1" y2="1083.1"/>
		<line class="st1" x1="197.9" y1="1075.4" x2="236.1" y2="1075.4"/>
		<line class="st1" x1="199.4" y1="1057.2" x2="236.1" y2="1057.2"/>
		<line class="st1" x1="199.4" y1="1038.9" x2="236.1" y2="1038.9"/>
		<line class="st1" x1="199.4" y1="1000.1" x2="236.1" y2="1000.1"/>
		<line class="st1" x1="199.4" y1="982.9" x2="235.2" y2="982.9"/>
		<line class="st1" x1="199.4" y1="971.2" x2="235.2" y2="971.2"/>
		<line class="st1" x1="199.9" y1="952.1" x2="235.2" y2="952.1"/>
		<circle class="st1" cx="381.9" cy="973.1" r="84"/>
		<polyline class="st1" points="174.7,849.3 174.7,890.3 187.2,902.8 202.9,902.8 		"/>
		<polyline class="st1" points="213.7,902.8 249.4,902.8 249.4,849.3 		"/>
		<polyline class="st1" points="499.9,849.6 499.9,904.1 511.1,904.1 511.1,849.3 		"/>
		<polyline class="st1" points="543.9,849.1 543.9,876.7 594.7,876.7 		"/>
		<line class="st1" x1="545.9" y1="906.6" x2="614.9" y2="906.6"/>
		<line class="st1" x1="613.1" y1="849.1" x2="163.9" y2="849.1"/>
		<line class="st1" x1="136.1" y1="849.1" x2="36.4" y2="849.1"/>
		<line class="st1" x1="121.9" y1="848.1" x2="121.9" y2="832.1"/>
		<line class="st1" x1="121.9" y1="820.7" x2="121.9" y2="807.1"/>
		<polyline class="st1" points="121.9,798.7 121.9,777.1 149.9,777.1 		"/>
		<line class="st1" x1="160.7" y1="777.1" x2="212.7" y2="777.1"/>
		<line class="st1" x1="219.9" y1="777.1" x2="512.9" y2="777.1"/>
		<line class="st1" x1="120.9" y1="816.1" x2="35.1" y2="816.1"/>
		<line class="st1" x1="36.4" y1="775.2" x2="47.9" y2="775.2"/>
		<line class="st1" x1="54.7" y1="775.2" x2="71.9" y2="775.2"/>
		<polyline class="st1" points="79,775.2 84.9,775.2 84.9,815.1 		"/>
		<line class="st1" x1="120.9" y1="784.7" x2="84.9" y2="784.7"/>
		<line class="st1" x1="61.4" y1="777.1" x2="61.4" y2="815.1"/>
		<line class="st1" x1="119.9" y1="754.1" x2="119.9" y2="729.8"/>
		<line class="st1" x1="119.9" y1="723.6" x2="119.9" y2="676.3"/>
		<line class="st1" x1="119.9" y1="669.8" x2="119.9" y2="617.4"/>
		<line class="st1" x1="119.9" y1="610.7" x2="119.9" y2="561.2"/>
		<line class="st1" x1="119.9" y1="554.7" x2="119.9" y2="502.5"/>
		<line class="st1" x1="119.9" y1="495.6" x2="119.9" y2="441.6"/>
		<line class="st1" x1="119.9" y1="434.9" x2="119.9" y2="383.1"/>
		<line class="st1" x1="119.9" y1="376" x2="119.9" y2="326.1"/>
		<line class="st1" x1="119.9" y1="319.2" x2="119.9" y2="291.8"/>
		<line class="st1" x1="119.9" y1="285.6" x2="119.9" y2="261.2"/>
		<line class="st1" x1="117.9" y1="749.1" x2="36.4" y2="749.1"/>
		<line class="st1" x1="36.4" y1="710.3" x2="118.7" y2="710.3"/>
		<line class="st1" x1="118.7" y1="656.5" x2="36.4" y2="656.5"/>
		<line class="st1" x1="36.4" y1="623.8" x2="96.5" y2="623.8"/>
		<line class="st1" x1="105.6" y1="623.8" x2="118.7" y2="623.8"/>
		<line class="st1" x1="118.7" y1="594.5" x2="13.9" y2="594.5"/>
		<line class="st1" x1="12.9" y1="536.1" x2="119.9" y2="536.1"/>
		<line class="st1" x1="118.9" y1="476.1" x2="11.9" y2="476.1"/>
		<line class="st1" x1="12.9" y1="418.3" x2="118.7" y2="418.3"/>
		<line class="st1" x1="118.9" y1="358" x2="11.9" y2="358"/>
		<line class="st1" x1="13.9" y1="300" x2="118.7" y2="300"/>
		<line class="st1" x1="118.9" y1="277.1" x2="31.9" y2="277.1"/>
		<line class="st1" x1="36.4" y1="246.7" x2="60.9" y2="246.7"/>
		<line class="st1" x1="67.9" y1="246.7" x2="77.6" y2="246.7"/>
		<polyline class="st1" points="83.9,246.7 118.9,246.7 118.9,206.3 		"/>
		<line class="st1" x1="72.7" y1="246.7" x2="72.7" y2="217.2"/>
		<polyline class="st1" points="55.9,248.1 55.9,261.2 98.5,261.2 		"/>
		<line class="st1" x1="105.6" y1="261.2" x2="127.9" y2="261.2"/>
		<polyline class="st1" points="137.2,261.2 143.2,261.2 143.2,184.3 134.9,184.3 		"/>
		<line class="st1" x1="36.4" y1="217.2" x2="118.7" y2="217.2"/>
		<line class="st1" x1="118.7" y1="196.5" x2="118.7" y2="178.7"/>
		<line class="st1" x1="118.9" y1="168.1" x2="118.9" y2="130.3"/>
		<line class="st1" x1="117.6" y1="187.6" x2="36.4" y2="187.6"/>
		<line class="st1" x1="36.4" y1="130.3" x2="143.2" y2="130.3"/>
		<line class="st1" x1="149.9" y1="130.3" x2="179" y2="130.3"/>
		<line class="st1" x1="186.3" y1="130.3" x2="223.2" y2="130.3"/>
		<line class="st1" x1="159.9" y1="129.1" x2="159.9" y2="72.1"/>
		<polyline class="st1" points="211.9,211.1 211.9,202.1 202.9,184.1 168.9,184.1 168.9,243.1 		"/>
		<line class="st1" x1="166.9" y1="191.1" x2="143.2" y2="191.1"/>
		<line class="st1" x1="144.3" y1="217.2" x2="167.6" y2="217.2"/>
		<polyline class="st1" points="144.3,243.1 204.9,243.1 211.9,226.5 211.9,218.5 		"/>
		<polyline class="st1" points="223.2,56.5 223.2,159.1 237,184.1 247,184.1 		"/>
		<line class="st1" x1="254.1" y1="184.3" x2="288.9" y2="184.3"/>
		<line class="st1" x1="288.9" y1="239.8" x2="254.1" y2="239.8"/>
		<polyline class="st1" points="247,239.8 239,239.8 223.9,266.1 223.9,300 		"/>
		<line class="st1" x1="227.9" y1="257.1" x2="219.9" y2="253.1"/>
		<line class="st1" x1="211.9" y1="248.9" x2="201.6" y2="243.1"/>
		<polyline class="st1" points="287.9,54.1 287.9,301.1 213.9,301.1 		"/>
		<polyline class="st1" points="206.8,301.1 199.6,301.1 199.6,360.1 		"/>
		<line class="st1" x1="205.9" y1="776.1" x2="205.9" y2="718.1"/>
		<line class="st1" x1="281" y1="849.1" x2="281" y2="302.1"/>
		<polyline class="st1" points="279.9,360.1 186.3,360.1 186.3,716.9 279.9,716.9 		"/>
		<polyline class="st1" points="355.9,777.1 355.9,820.1 359.6,820.1 		"/>
		<line class="st1" x1="366.4" y1="820.1" x2="404.9" y2="820.1"/>
		<polyline class="st1" points="411.9,820.1 415.4,820.1 415.4,779.1 		"/>
		<line class="st1" x1="355.9" y1="849.1" x2="355.9" y2="837.4"/>
		<line class="st1" x1="415.4" y1="849.1" x2="415.4" y2="837.4"/>
		<polyline class="st1" points="438.9,848.1 438.9,833.1 434.9,828.1 		"/>
		<polyline class="st1" points="431.9,823.1 427.9,818.1 415.4,818.1 		"/>
		<line class="st1" x1="385" y1="818.1" x2="385" y2="777.1"/>
		<polyline class="st1" points="611.9,776.1 528.5,776.1 528.5,793.1 505.5,793.1 505.5,778 		"/>
		<line class="st1" x1="614.9" y1="155.1" x2="614.9" y2="147.6"/>
		<line class="st1" x1="614.9" y1="137.2" x2="614.9" y2="68.3"/>
		<line class="st1" x1="613.9" y1="128.1" x2="474.1" y2="128.1"/>
		<line class="st1" x1="467" y1="128.1" x2="288.9" y2="128.1"/>
		<line class="st1" x1="515.2" y1="128.1" x2="515.2" y2="120"/>
		<line class="st1" x1="515.2" y1="112.9" x2="515.2" y2="65.1"/>
		<line class="st1" x1="483.9" y1="127.1" x2="483.9" y2="120"/>
		<line class="st1" x1="483.9" y1="108" x2="483.9" y2="14.1"/>
		<polyline class="st1" points="481.9,98.1 456.9,98.1 456.9,80.5 424.9,80.5 424.9,63.1 		"/>
		<line class="st1" x1="410.9" y1="45.1" x2="424.9" y2="45.1"/>
		<line class="st1" x1="424.9" y1="54.1" x2="424.9" y2="15.2"/>
		<line class="st1" x1="422.9" y1="30.1" x2="347.9" y2="30.1"/>
		<line class="st1" x1="347.9" y1="16.7" x2="347.9" y2="74.1"/>
		<line class="st1" x1="347.9" y1="80.6" x2="347.9" y2="106.1"/>
		<polyline class="st1" points="412.5,127.1 412.5,106.1 330.9,106.1 		"/>
		<line class="st1" x1="317.6" y1="127.1" x2="317.6" y2="119.1"/>
		<line class="st1" x1="317.9" y1="111.1" x2="317.9" y2="15.2"/>
		<polyline class="st1" points="457.9,129.1 457.9,147.6 584.9,147.6 584.9,308.5 457.9,308.5 457.9,330.1 		"/>
		<line class="st1" x1="613.9" y1="290.5" x2="613.9" y2="304"/>
		<line class="st1" x1="614.9" y1="311.8" x2="614.9" y2="329.1"/>
		<polyline class="st1" points="686.5,290.5 686.5,330.1 281,330.1 		"/>
		<line class="st1" x1="711.9" y1="359.1" x2="526.9" y2="359.1"/>
		<line class="st1" x1="516.3" y1="359.1" x2="281" y2="359.1"/>
		<polygon class="st1" points="636.9,380.1 660.7,380.1 636.9,404 		"/>
		<line class="st1" x1="635.9" y1="383.1" x2="561.4" y2="383.1"/>
		<polyline class="st1" points="613.9,384.3 613.9,414.3 550.9,414.3 550.9,384.1 		"/>
		<polyline class="st1" points="555.4,383.1 541.2,383.1 541.2,462.1 		"/>
		<line class="st1" x1="541.2" y1="471.4" x2="541.2" y2="584.1"/>
		<polyline class="st1" points="541.2,593.2 541.2,655.4 611.9,655.4 		"/>
		<line class="st1" x1="548.3" y1="656.3" x2="548.3" y2="665.2"/>
		<line class="st1" x1="547.9" y1="675.1" x2="547.9" y2="684.3"/>
		<polyline class="st1" points="611.9,685.6 541.2,685.6 541.2,714.7 		"/>
		<line class="st1" x1="541.2" y1="722" x2="541.2" y2="775.1"/>
		<line class="st1" x1="494.5" y1="776.1" x2="494.5" y2="696.1"/>
		<line class="st1" x1="494.5" y1="684.3" x2="494.5" y2="360.1"/>
		<line class="st1" x1="493.6" y1="462.1" x2="463.6" y2="462.1"/>
		<line class="st1" x1="452.1" y1="462.1" x2="281.9" y2="462.1"/>
		<line class="st1" x1="493.9" y1="564.1" x2="463.6" y2="564.1"/>
		<line class="st1" x1="452.1" y1="564.1" x2="281.9" y2="564.1"/>
		<line class="st1" x1="492.9" y1="668.1" x2="463.6" y2="668.1"/>
		<line class="st1" x1="452.1" y1="668.1" x2="281.9" y2="668.1"/>
		<text transform="matrix(1 0 0 1 63.7021 889.4889)" class="st2 st3">438</text>
		<text transform="matrix(1 0 0 1 61.4257 952.7233)" class="st2 st3">437</text>
		<text transform="matrix(1 0 0 1 73.4043 991.5534)" class="st2 st4">436</text>
		<text transform="matrix(1 0 0 1 73.4467 1056.7867)" class="st2 st4">435</text>
		<text transform="matrix(1 0 0 1 61.915 1109.149)" class="st2 st3">434</text>
		<text transform="matrix(1 0 0 1 61.4043 1177.0641)" class="st2 st3">433</text>
		<text transform="matrix(1 0 0 1 63.4257 1329.4469)" class="st2 st3">432</text>
		<text transform="matrix(1 0 0 1 63.4257 1383.319)" class="st2 st3">431</text>
		<text transform="matrix(1 0 0 1 63.4043 1444.7867)" class="st2 st3">430</text>
		<text transform="matrix(1 0 0 1 48.6811 1229.1705)" class="st2 st3">т</text>
		<text transform="matrix(1 0 0 1 94.6381 1227.6383)" class="st2 st3">т</text>
		<text transform="matrix(1 0 0 1 188.5532 883.8512)" class="st2 st3">439</text>
		<text transform="matrix(1 0 0 1 210.4682 946.3405)" class="st2 st5">л</text>
		<text transform="matrix(1 0 0 1 210.7724 965.5722)" class="st2 st5">л</text>
		<text transform="matrix(1 0 0 1 210.7724 996.5722)" class="st2 st5">л</text>
		<text transform="matrix(1 0 0 1 210.7724 1022.5722)" class="st2 st5">л</text>
		<text transform="matrix(1 0 0 1 210.7724 1052.5721)" class="st2 st5">л</text>
		<text transform="matrix(1 0 0 1 210.7724 1071.5721)" class="st2 st5">л</text>
		<text transform="matrix(1 0 0 1 203.6171 1414.0211)" class="st2 st3">429</text>
		<text transform="matrix(1 0 0 1 265.915 1416.5953)" class="st2 st3">428</text>
		<text transform="matrix(1 0 0 1 332.6381 1416.7867)" class="st2 st3">427</text>
		<text transform="matrix(1 0 0 1 396.7451 1416.8082)" class="st2 st3">426</text>
		<text transform="matrix(1 0 0 1 456.957 1417.5533)" class="st2 st3">425</text>
		<text transform="matrix(1 0 0 1 533.1279 1416.5953)" class="st2 st3">424</text>
		<text transform="matrix(1 0 0 1 194.6811 1266.7018)" class="st2 st3">420</text>
		<text transform="matrix(1 0 0 1 277.5747 1250.3824)" class="st2 st3">421</text>
		<text transform="matrix(1 0 0 1 537.7021 1217.9576)" class="st2 st3">422</text>
		<text transform="matrix(1 0 0 1 95.2978 807.319)" class="st2 st3">л</text>
		<text transform="matrix(1 0 0 1 56.3193 740.298)" class="st2 st3">401</text>
		<text transform="matrix(1 0 0 1 57.1489 689.1491)" class="st2 st3">402</text>
		<text transform="matrix(1 0 0 1 57.4467 651.6169)" class="st2 st3">403</text>
		<text transform="matrix(1 0 0 1 54.5107 620.4894)" class="st2 st3">404</text>
		<text transform="matrix(1 0 0 1 55.3403 570.8937)" class="st2 st3">405</text>
		<text transform="matrix(1 0 0 1 55.7021 513.1276)" class="st2 st3">406</text>
		<text transform="matrix(1 0 0 1 55.936 457.1276)" class="st2 st3">407</text>
		<text transform="matrix(1 0 0 1 56.7661 393.7233)" class="st2 st3">408</text>
		<text transform="matrix(1 0 0 1 55.4682 337.2556)" class="st2 st3">409</text>
		<text transform="matrix(1 0 0 1 72.4682 294.6169)" class="st2 st4">410</text>
		<text transform="matrix(1 0 0 1 72.936 273.383)" class="st2 st6">411</text>
		<text transform="matrix(1 0 0 1 54.7661 167.6808)" class="st2 st3">412</text>
		<text transform="matrix(1 0 0 1 77.2978 116.6808)" class="st2 st3">413</text>
		<text transform="matrix(1 0 0 1 166.83 108.5104)" class="st2 st3">414</text>
		<text transform="matrix(1 0 0 1 232.6596 133.3405)" class="st2 st3">415</text>
		<text transform="matrix(1 0 0 1 230.3618 284.383)" class="st2 st3">416</text>
		<text transform="matrix(1 0 0 1 215.3618 342.7868)" class="st2 st3">417</text>
	</g>
</g>
</svg>
