<?xml version="1.0" encoding="utf-8"?>
<!-- Generator: Adobe Illustrator 24.3.0, SVG Export Plug-In . SVG Version: 6.00 Build 0)  -->
<svg version="1.1" id="Слой_1" xmlns="http://www.w3.org/2000/svg" xmlns:xlink="http://www.w3.org/1999/xlink" x="0px" y="0px"
	 viewBox="0 0 610 1376" style="enable-background:new 0 0 610 1376;" xml:space="preserve">
<style type="text/css">
	.st0{opacity:0.5;}
	.st1{fill:none;stroke:#000000;stroke-width:5;stroke-miterlimit:10;}
	.st2{font-family:'ArialMT';}
	.st3{font-size:24px;}
	.st4{font-size:20px;}
</style>
<g id="Слой_1_1_" class="st0">
</g>
<g id="Слой_2_1_">
	<g>
		<g>
			<path d="M236,20v40v10h10h3v626v10h10h334.3v655H20V36h109h10V26v-6H236 M246,10H129v16H10v1345h593.3V696H259V60h-13V10L246,10z
				"/>
		</g>
		<polyline class="st1" points="113.5,1364.5 113.5,1336.5 104.3,1336.5 104.3,1193.3 241.5,1193.3 241.5,1070 		"/>
		<line class="st1" x1="192.7" y1="1193.3" x2="192.7" y2="1171.5"/>
		<line class="st1" x1="192.7" y1="1156.7" x2="192.7" y2="1106.5"/>
		<polyline class="st1" points="192.7,1092 192.7,1070 187.5,1061.5 		"/>
		<line class="st1" x1="17.5" y1="1319.5" x2="104.3" y2="1319.5"/>
		<line class="st1" x1="17.5" y1="1257.3" x2="92.5" y2="1257.3"/>
		<line class="st1" x1="84.5" y1="1255.5" x2="84.5" y2="1223.5"/>
		<line class="st1" x1="92.5" y1="1210.3" x2="17.5" y2="1210.3"/>
		<line class="st1" x1="17.5" y1="1162" x2="92.5" y2="1162"/>
		<polyline class="st1" points="73.5,1147.5 108.5,1147.5 108.5,1090.7 		"/>
		<line class="st1" x1="108.5" y1="1074.3" x2="108.5" y2="1057"/>
		<line class="st1" x1="108.5" y1="1045" x2="108.5" y2="997.5"/>
		<line class="st1" x1="108.5" y1="983" x2="108.5" y2="932.3"/>
		<line class="st1" x1="108.5" y1="919" x2="108.5" y2="900.7"/>
		<line class="st1" x1="108.5" y1="890" x2="108.5" y2="872.5"/>
		<line class="st1" x1="108.5" y1="856.7" x2="108.5" y2="845"/>
		<line class="st1" x1="108.5" y1="829" x2="108.5" y2="805"/>
		<line class="st1" x1="108.5" y1="793.3" x2="108.5" y2="762.7"/>
		<line class="st1" x1="59" y1="1147.5" x2="66.7" y2="1147.5"/>
		<polyline class="st1" points="51.3,1147.5 44.5,1147.5 44.5,1162 		"/>
		<line class="st1" x1="62.8" y1="1145.7" x2="62.8" y2="1110.7"/>
		<line class="st1" x1="108.5" y1="1110.7" x2="17.5" y2="1110.7"/>
		<line class="st1" x1="108.5" y1="1068.3" x2="17.5" y2="1068.3"/>
		<line class="st1" x1="17.5" y1="1006.3" x2="108.5" y2="1006.3"/>
		<line class="st1" x1="108.5" y1="955.7" x2="17.5" y2="955.7"/>
		<line class="st1" x1="108.5" y1="909.8" x2="17.5" y2="909.8"/>
		<line class="st1" x1="108.5" y1="882.3" x2="15.7" y2="882.3"/>
		<line class="st1" x1="108.5" y1="849.7" x2="17.5" y2="849.7"/>
		<line class="st1" x1="108.5" y1="818.3" x2="15.7" y2="818.3"/>
		<line class="st1" x1="595.5" y1="825.5" x2="577.5" y2="825.5"/>
		<polyline class="st1" points="566.7,825.5 528.5,825.5 528.5,765.7 		"/>
		<line class="st1" x1="579" y1="795.6" x2="528.5" y2="795.6"/>
		<line class="st1" x1="595.5" y1="948.3" x2="578.5" y2="948.3"/>
		<polyline class="st1" points="564.5,948.5 492,948.5 492,990.5 503.7,990.5 503.7,948.5 		"/>
		<line class="st1" x1="553.8" y1="994.7" x2="553.8" y2="948.5"/>
		<polyline class="st1" points="537.5,974.5 542.3,974.5 542.3,955.5 512.3,955.5 512.3,974.5 517.3,974.5 		"/>
		<line class="st1" x1="524" y1="974.5" x2="531" y2="974.5"/>
		<line class="st1" x1="527.3" y1="974.5" x2="527.3" y2="955.5"/>
		<line class="st1" x1="175.3" y1="1364.5" x2="175.3" y2="1338"/>
		<line class="st1" x1="239.7" y1="1364.5" x2="239.7" y2="1336.7"/>
		<line class="st1" x1="303.3" y1="1364.5" x2="303.3" y2="1010.3"/>
		<polyline class="st1" points="367.7,1364.5 367.7,1010.3 395.3,1010.3 		"/>
		<line class="st1" x1="404.5" y1="1010.5" x2="467.7" y2="1010.5"/>
		<polyline class="st1" points="484.3,1010.5 553.8,1010.5 553.8,1042.5 		"/>
		<line class="st1" x1="553.8" y1="1054.7" x2="553.8" y2="1145.7"/>
		<line class="st1" x1="553.8" y1="1157.7" x2="553.8" y2="1197.5"/>
		<line class="st1" x1="595.5" y1="1197.5" x2="494.5" y2="1197.5"/>
		<line class="st1" x1="492" y1="1010.5" x2="492" y2="1364.5"/>
		<line class="st1" x1="490.3" y1="1070" x2="192.7" y2="1070"/>
		<line class="st1" x1="429" y1="1010.5" x2="429" y2="1364.5"/>
		<line class="st1" x1="497.5" y1="822.5" x2="497.5" y2="765.5"/>
		<line class="st1" x1="324.3" y1="1070" x2="324.3" y2="1006.3"/>
		<line class="st1" x1="324.3" y1="996" x2="324.3" y2="980.7"/>
		<line class="st1" x1="494.5" y1="885.7" x2="475" y2="885.7"/>
		<path class="st1" d="M369.3,990.5c0,0-38.8,2-69.8-28"/>
		<path class="st1" d="M286.5,950.5c0,0-20-16-24-67H244"/>
		<line class="st1" x1="190.1" y1="1043" x2="190.1" y2="1031"/>
		<line class="st1" x1="190.1" y1="1016.7" x2="190.1" y2="924.3"/>
		<line class="st1" x1="190.1" y1="915.7" x2="190.1" y2="905"/>
		<line class="st1" x1="190.1" y1="896.7" x2="190.1" y2="877"/>
		<line class="st1" x1="190.1" y1="868.3" x2="190.1" y2="858.7"/>
		<polyline class="st1" points="190.1,850.8 190.1,845 221,845 221,953.5 		"/>
		<line class="st1" x1="221" y1="962.5" x2="221" y2="970.5"/>
		<line class="st1" x1="219.7" y1="966.5" x2="192.7" y2="966.5"/>
		<line class="st1" x1="192.7" y1="942" x2="219.7" y2="942"/>
		<line class="st1" x1="192.7" y1="910.3" x2="219.7" y2="910.3"/>
		<line class="st1" x1="190.1" y1="891.3" x2="219.7" y2="891.3"/>
		<line class="st1" x1="190.1" y1="881.2" x2="219.7" y2="881.2"/>
		<line class="st1" x1="190.1" y1="863.5" x2="219.7" y2="863.5"/>
		<polyline class="st1" points="221,980.7 221,988.3 190.1,988.3 		"/>
		<polyline class="st1" points="221,947.3 244,947.3 244,762.7 		"/>
		<polyline class="st1" points="241.5,815.7 210,815.7 210,810.3 182,810.3 		"/>
		<polyline class="st1" points="171,810.3 161,810.3 161,762.7 		"/>
		<line class="st1" x1="17.5" y1="762.7" x2="142.5" y2="762.7"/>
		<polyline class="st1" points="152.5,762.5 255.5,762.5 255.5,704.5 		"/>
		<line class="st1" x1="272.7" y1="762.5" x2="295.3" y2="762.5"/>
		<line class="st1" x1="303.3" y1="762.5" x2="331.7" y2="762.5"/>
		<line class="st1" x1="349.7" y1="762.5" x2="383.5" y2="762.5"/>
		<line class="st1" x1="400.7" y1="762.7" x2="467.7" y2="762.7"/>
		<polyline class="st1" points="484.8,762.7 497.5,762.7 595.5,762.7 		"/>
		<path class="st1" d="M497.5,754"/>
		<line class="st1" x1="497.5" y1="742" x2="497.5" y2="704.5"/>
		<line class="st1" x1="497.5" y1="754" x2="497.5" y2="762.7"/>
		<line class="st1" x1="434.2" y1="704.5" x2="434.2" y2="724.3"/>
		<line class="st1" x1="434.2" y1="738" x2="434.2" y2="762.5"/>
		<line class="st1" x1="367.7" y1="704.5" x2="367.7" y2="762.5"/>
		<line class="st1" x1="291.5" y1="760.5" x2="291.5" y2="704.5"/>
		<polyline class="st1" points="313,760.5 313,716.5 291.5,716.5 		"/>
		<line class="st1" x1="324.3" y1="736.7" x2="356.5" y2="736.7"/>
		<line class="st1" x1="340.4" y1="704.5" x2="340.4" y2="735.3"/>
		<circle class="st1" cx="369.5" cy="886.5" r="84"/>
		<line class="st1" x1="99" y1="760.5" x2="99" y2="750.7"/>
		<line class="st1" x1="99" y1="743.3" x2="99" y2="722.5"/>
		<polyline class="st1" points="98.5,713.5 98.5,696 129.7,696 		"/>
		<line class="st1" x1="142.5" y1="696" x2="174.7" y2="696"/>
		<line class="st1" x1="182" y1="696" x2="251" y2="696"/>
		<line class="st1" x1="161" y1="760.5" x2="161" y2="696"/>
		<line class="st1" x1="98.5" y1="733.5" x2="18.5" y2="733.5"/>
		<line class="st1" x1="98.5" y1="701.7" x2="68" y2="701.7"/>
		<polyline class="st1" points="68,732.5 68,689 60.5,689 		"/>
		<line class="st1" x1="53" y1="689" x2="34.5" y2="689"/>
		<line class="st1" x1="27" y1="689" x2="17.5" y2="689"/>
		<line class="st1" x1="41.3" y1="690.5" x2="41.3" y2="732.9"/>
		<line class="st1" x1="192" y1="696" x2="192" y2="647.3"/>
		<line class="st1" x1="192" y1="639.7" x2="192" y2="609.5"/>
		<line class="st1" x1="193.5" y1="621.5" x2="250.5" y2="621.5"/>
		<line class="st1" x1="192" y1="602" x2="192" y2="585.3"/>
		<line class="st1" x1="192" y1="577.7" x2="192" y2="538"/>
		<line class="st1" x1="192" y1="530.3" x2="192" y2="501.7"/>
		<line class="st1" x1="192" y1="494.3" x2="192" y2="432.3"/>
		<line class="st1" x1="192" y1="425.7" x2="192" y2="402"/>
		<line class="st1" x1="192" y1="395.3" x2="192" y2="378.7"/>
		<line class="st1" x1="192" y1="372" x2="192" y2="349"/>
		<line class="st1" x1="192" y1="342" x2="192" y2="294.3"/>
		<polyline class="st1" points="192,288 192,218.5 211.8,190.7 221,190.7 		"/>
		<line class="st1" x1="228.5" y1="190.5" x2="250.5" y2="190.5"/>
		<line class="st1" x1="200.7" y1="206.3" x2="196.5" y2="202.5"/>
		<line class="st1" x1="192" y1="198.3" x2="184.5" y2="192.5"/>
		<polyline class="st1" points="234.5,136.5 234.5,170.5 250.5,170.5 		"/>
		<line class="st1" x1="192" y1="593.7" x2="253" y2="593.7"/>
		<line class="st1" x1="192" y1="568.7" x2="252.5" y2="568.7"/>
		<line class="st1" x1="192" y1="516" x2="252.5" y2="516"/>
		<line class="st1" x1="193.5" y1="441.3" x2="251" y2="441.3"/>
		<line class="st1" x1="193.5" y1="413.8" x2="253" y2="413.8"/>
		<line class="st1" x1="193.5" y1="387" x2="252.5" y2="387"/>
		<line class="st1" x1="193.5" y1="362" x2="252.5" y2="362"/>
		<line class="st1" x1="192" y1="312" x2="252.5" y2="312"/>
		<line class="st1" x1="192" y1="260.7" x2="251" y2="260.7"/>
		<line class="st1" x1="192" y1="231.7" x2="207.7" y2="231.7"/>
		<line class="st1" x1="214.5" y1="231.5" x2="251" y2="231.5"/>
		<line class="st1" x1="250.5" y1="128.5" x2="227.3" y2="128.5"/>
		<polyline class="st1" points="219,128.5 214.5,128.5 193.5,96.3 193.5,65.7 		"/>
		<line class="st1" x1="250.5" y1="91.5" x2="212.7" y2="91.5"/>
		<line class="st1" x1="206.2" y1="91.5" x2="193.5" y2="91.5"/>
		<line class="st1" x1="237.3" y1="65.7" x2="158.6" y2="65.7"/>
		<line class="st1" x1="150.5" y1="65.5" x2="135.5" y2="65.5"/>
		<polyline class="st1" points="135.5,34 135.5,78.5 116.5,78.5 		"/>
		<polyline class="st1" points="107.7,78.5 91.5,78.5 91.5,114.5 		"/>
		<line class="st1" x1="17.5" y1="101" x2="91.5" y2="101"/>
		<line class="st1" x1="91.5" y1="121.3" x2="91.5" y2="130.5"/>
		<polyline class="st1" points="17.5,130.5 97.3,130.5 97.3,140.3 		"/>
		<polyline class="st1" points="97.3,147.7 97.3,192.5 69.5,192.5 		"/>
		<polyline class="st1" points="112.5,208.5 126,208.5 126,130.5 		"/>
		<polyline class="st1" points="127.3,195.4 182,195.4 192,180 192,166.7 		"/>
		<polyline class="st1" points="191.5,160.5 191.5,147.7 181.5,132.5 152,132.5 152,149 		"/>
		<line class="st1" x1="152" y1="156" x2="152" y2="177"/>
		<line class="st1" x1="152" y1="183.3" x2="152" y2="194.3"/>
		<line class="st1" x1="127.3" y1="138.7" x2="152" y2="138.7"/>
		<line class="st1" x1="150.5" y1="166.5" x2="126" y2="166.5"/>
		<line class="st1" x1="96" y1="156" x2="17.5" y2="156"/>
		<line class="st1" x1="62.7" y1="192.5" x2="56.8" y2="192.5"/>
		<line class="st1" x1="59.7" y1="157.7" x2="59.7" y2="190.7"/>
		<polyline class="st1" points="104.3,208.5 46.7,208.5 46.7,192.5 17.5,192.5 		"/>
		<line class="st1" x1="86.5" y1="209.5" x2="86.5" y2="233.5"/>
		<line class="st1" x1="86.5" y1="241.3" x2="86.5" y2="274.5"/>
		<line class="st1" x1="86.5" y1="281" x2="86.5" y2="332"/>
		<line class="st1" x1="86.5" y1="339" x2="86.5" y2="380.5"/>
		<line class="st1" x1="86.5" y1="387" x2="86.5" y2="421.5"/>
		<line class="st1" x1="86.5" y1="428.7" x2="86.5" y2="470.3"/>
		<line class="st1" x1="86.5" y1="478" x2="86.5" y2="523"/>
		<polyline class="st1" points="86.5,530.3 86.5,634.5 79.5,640.5 		"/>
		<polyline class="st1" points="72.5,645.5 64.2,653 17.5,653 		"/>
		<line class="st1" x1="17.5" y1="589" x2="68" y2="589"/>
		<line class="st1" x1="76.5" y1="588.5" x2="86.5" y2="588.5"/>
		<line class="st1" x1="17.5" y1="562.3" x2="86.5" y2="562.3"/>
		<line class="st1" x1="17.5" y1="510" x2="86.5" y2="510"/>
		<line class="st1" x1="17.5" y1="457" x2="86.5" y2="457"/>
		<line class="st1" x1="17.5" y1="407.3" x2="86.5" y2="407.3"/>
		<line class="st1" x1="17.5" y1="357.7" x2="86.5" y2="357.7"/>
		<line class="st1" x1="17.5" y1="310" x2="86.5" y2="310"/>
		<line class="st1" x1="17.5" y1="260.7" x2="83.4" y2="260.7"/>
		<rect x="126" y="248.7" class="st1" width="29.7" height="174.3"/>
		<rect x="126" y="446.3" class="st1" width="29.7" height="189"/>
		<text transform="matrix(1 0 0 1 32.1274 1292.3613)" class="st2 st3">529А</text>
		<text transform="matrix(1 0 0 1 29.8296 1244.1064)" class="st2 st3">530</text>
		<text transform="matrix(1 0 0 1 47.4893 1097.043)" class="st2 st3">531</text>
		<text transform="matrix(1 0 0 1 48.6172 1053.3828)" class="st2 st3">532</text>
		<text transform="matrix(1 0 0 1 46.9785 989.9785)" class="st2 st3">533</text>
		<text transform="matrix(1 0 0 1 48.8511 905.1914)" class="st2 st3">534</text>
		<text transform="matrix(1 0 0 1 49.2554 877.2129)" class="st2 st3">535</text>
		<text transform="matrix(1 0 0 1 48.0215 842.7446)" class="st2 st3">536</text>
		<text transform="matrix(1 0 0 1 48.3193 804.6807)" class="st2 st3">537</text>
		<text transform="matrix(1 0 0 1 176.8936 798.3193)" class="st2 st3">528</text>
		<text transform="matrix(1 0 0 1 199.4043 1143.5742)" class="st2 st3">529</text>
		<text transform="matrix(1 0 0 1 197.7451 858.3193)" class="st2 st4">л</text>
		<text transform="matrix(1 0 0 1 198.0061 876.9766)" class="st2 st4">л</text>
		<text transform="matrix(1 0 0 1 198.0061 904.9766)" class="st2 st4">л</text>
		<text transform="matrix(1 0 0 1 198.0061 931.9766)" class="st2 st4">л</text>
		<text transform="matrix(1 0 0 1 198.0061 958.9766)" class="st2 st4">л</text>
		<text transform="matrix(1 0 0 1 198.0061 982.9766)" class="st2 st4">л</text>
		<text transform="matrix(1 0 0 1 197.1494 836.3618)" class="st2 st4">528А</text>
		<text transform="matrix(1 0 0 1 258.8721 786.3193)" class="st2 st4">Литература по</text>
		<text transform="matrix(1 0 0 1 258.8721 810.3193)" class="st2 st4">физ-ре</text>
		<text transform="matrix(1 0 0 1 476.6357 852.0674)" class="st2 st4">Литература</text>
		<text transform="matrix(1 0 0 1 476.6357 876.0674)" class="st2 st4">по биологии</text>
		<text transform="matrix(1 0 0 1 476.3408 902.4043)" class="st2 st4">Литература</text>
		<text transform="matrix(1 0 0 1 476.3408 926.4043)" class="st2 st4">по медицине</text>
		<text transform="matrix(1 0 0 1 510.3408 992.957)" class="st2 st4">539</text>
		<text transform="matrix(1 0 0 1 450.5322 1034.2344)" class="st2 st4">540</text>
		<text transform="matrix(1 0 0 1 380.9785 1034.4893)" class="st2 st4">541</text>
		<text transform="matrix(1 0 0 1 447.2979 744.3403)" class="st2 st4">539</text>
		<text transform="matrix(1 0 0 1 259.1279 736.9575)" class="st2 st4">538</text>
		<text transform="matrix(1 0 0 1 187.9365 731.1489)" class="st2 st4">527</text>
		<text transform="matrix(1 0 0 1 208.5957 655.5317)" class="st2 st4">526</text>
		<text transform="matrix(1 0 0 1 207.2979 616.2979)" class="st2 st4">525</text>
		<text transform="matrix(1 0 0 1 206.6597 588)" class="st2 st4">524</text>
		<text transform="matrix(1 0 0 1 207.3618 546.0215)" class="st2 st4">523</text>
		<text transform="matrix(1 0 0 1 207.6382 498.7871)" class="st2 st4">522</text>
		<text transform="matrix(1 0 0 1 208.0215 432.1489)" class="st2 st4">521</text>
		<text transform="matrix(1 0 0 1 206.0215 407.4893)" class="st2 st4">520</text>
		<text transform="matrix(1 0 0 1 206.7236 381.8936)" class="st2 st4">519</text>
		<text transform="matrix(1 0 0 1 207.085 348.2554)" class="st2 st4">518</text>
		<text transform="matrix(1 0 0 1 206.7871 293.9575)" class="st2 st4">517</text>
		<text transform="matrix(1 0 0 1 206.064 250.7021)" class="st2 st4">516</text>
		<text transform="matrix(1 0 0 1 209.4043 218.5107)" class="st2 st4">515</text>
		<text transform="matrix(1 0 0 1 214.4253 116)" class="st2 st4">514</text>
		<text transform="matrix(1 0 0 1 202.4893 85.6597)" class="st2 st4">513</text>
		<text transform="matrix(1 0 0 1 166.4683 53.1489)" class="st2 st4">512</text>
		<text transform="matrix(1 0 0 1 51.8726 65.5747)" class="st2 st4">511</text>
		<text transform="matrix(1 0 0 1 35.5532 122.3193)" class="st2 st4">510</text>
		<text transform="matrix(1 0 0 1 45.915 242.7661)" class="st2 st4">509</text>
		<text transform="matrix(1 0 0 1 44.6597 289.1914)" class="st2 st4">508</text>
		<text transform="matrix(1 0 0 1 43.3828 338.9575)" class="st2 st4">507</text>
		<text transform="matrix(1 0 0 1 43.9785 389.085)" class="st2 st4">506</text>
		<text transform="matrix(1 0 0 1 42.6807 434.5532)" class="st2 st4">505</text>
		<text transform="matrix(1 0 0 1 40.7661 486.0215)" class="st2 st4">504</text>
		<text transform="matrix(1 0 0 1 41.4468 540.7236)" class="st2 st4">503</text>
		<text transform="matrix(1 0 0 1 41.1704 582.1704)" class="st2 st4">502</text>
		<text transform="matrix(1 0 0 1 41.5532 624.5747)" class="st2 st4">501</text>
	</g>
</g>
</svg>
