<?xml version="1.0" encoding="utf-8"?>
<!-- Generator: Adobe Illustrator 24.3.0, SVG Export Plug-In . SVG Version: 6.00 Build 0)  -->
<svg version="1.1" id="Слой_1" xmlns="http://www.w3.org/2000/svg" xmlns:xlink="http://www.w3.org/1999/xlink" x="0px" y="0px"
	 viewBox="0 0 608.7 1054" style="enable-background:new 0 0 608.7 1054;" xml:space="preserve">
<style type="text/css">
	.st0{opacity:0.5;}
	.st1{fill:#FFFFFF;stroke:#000000;stroke-miterlimit:10;}
	.st2{fill:none;stroke:#000000;stroke-width:5;stroke-miterlimit:10;}
	.st3{font-family:'ArialMT';}
	.st4{font-size:12px;}
</style>
<g id="Слой_1_1_" class="st0">
	<path class="st1" d="M45.7,893.5"/>
</g>
<g id="Слой_2_1_">
	<g>
		<g>
			<path d="M232.2,17v35v10h10h2v609v10h10h337v355h-572V39h113h10V29V17H232.2 M242.2,7h-110v22H9.2v1017h592V671h-347V52h-12V7
				L242.2,7z"/>
		</g>
		<line class="st2" x1="109.7" y1="1037.5" x2="109.7" y2="996.5"/>
		<line class="st2" x1="109.7" y1="983.7" x2="109.7" y2="924.5"/>
		<line class="st2" x1="109.7" y1="914.6" x2="109.7" y2="896.5"/>
		<line class="st2" x1="109.7" y1="879.7" x2="109.7" y2="864.5"/>
		<line class="st2" x1="108.7" y1="909.5" x2="17.2" y2="909.5"/>
		<line class="st2" x1="17.2" y1="871" x2="109.7" y2="871"/>
		<line class="st2" x1="109.7" y1="850.6" x2="109.7" y2="815.5"/>
		<line class="st2" x1="109.7" y1="802.8" x2="109.7" y2="742.5"/>
		<line class="st2" x1="108.7" y1="842.4" x2="17.2" y2="842.4"/>
		<line class="st2" x1="17.2" y1="780.8" x2="108.7" y2="780.8"/>
		<line class="st2" x1="186.7" y1="1011.5" x2="186.7" y2="990.4"/>
		<line class="st2" x1="186.7" y1="965.5" x2="186.7" y2="882.4"/>
		<line class="st2" x1="186.7" y1="874.6" x2="186.7" y2="863.5"/>
		<line class="st2" x1="186.7" y1="855.5" x2="186.7" y2="836.2"/>
		<line class="st2" x1="186.7" y1="827.9" x2="186.7" y2="815.5"/>
		<polyline class="st2" points="186.7,809 186.7,802.8 222.7,802.8 222.7,911.9 		"/>
		<line class="st2" x1="222.7" y1="919.7" x2="222.7" y2="930.5"/>
		<polyline class="st2" points="222.7,937.9 222.7,943.9 177.7,943.9 		"/>
		<line class="st2" x1="169.9" y1="943.9" x2="161.7" y2="943.9"/>
		<polyline class="st2" points="153.2,943.9 147.2,943.9 147.2,899.3 186.7,899.3 		"/>
		<line class="st2" x1="165.8" y1="943.9" x2="165.8" y2="900.5"/>
		<line class="st2" x1="222.7" y1="925.1" x2="187.9" y2="925.1"/>
		<line class="st2" x1="220.7" y1="907.5" x2="187.9" y2="907.5"/>
		<line class="st2" x1="187.7" y1="869.5" x2="222.7" y2="869.5"/>
		<line class="st2" x1="187.9" y1="851.7" x2="220.7" y2="851.7"/>
		<line class="st2" x1="187.9" y1="839.7" x2="221.9" y2="839.7"/>
		<line class="st2" x1="187.9" y1="821.7" x2="221.9" y2="821.7"/>
		<polyline class="st2" points="243.7,986.5 243.7,775.5 171.7,775.5 		"/>
		<line class="st2" x1="202.3" y1="802.8" x2="202.3" y2="795.9"/>
		<line class="st2" x1="202.7" y1="787.5" x2="202.7" y2="777.9"/>
		<line class="st2" x1="223.7" y1="903.5" x2="242.8" y2="903.5"/>
		<polyline class="st2" points="283.7,1037.5 283.7,976.5 290.3,976.5 		"/>
		<line class="st2" x1="302.3" y1="976.5" x2="334.1" y2="976.5"/>
		<line class="st2" x1="334.1" y1="968.6" x2="334.1" y2="1037.5"/>
		<path class="st2" d="M371.2,1037.5v-105c0,0-55.3-3.2-80.9-32.6"/>
		<line class="st2" x1="426.7" y1="963.5" x2="371.2" y2="963.5"/>
		<path class="st2" d="M280.7,887.5c0,0-11-12-10-47h-27"/>
		<line class="st2" x1="490.7" y1="1005.5" x2="490.7" y2="982.8"/>
		<line class="st2" x1="526.3" y1="1037.5" x2="526.3" y2="1005.5"/>
		<line class="st2" x1="526.3" y1="988.6" x2="526.3" y2="968.7"/>
		<polyline class="st2" points="512.1,968.7 556.7,968.7 556.7,904.4 		"/>
		<polyline class="st2" points="500.3,968.7 493.7,968.7 493.7,903.5 593.7,903.5 		"/>
		<polyline class="st2" points="513.7,929.5 509.2,929.5 509.2,911 539.7,911 539.7,929.5 534.4,929.5 		"/>
		<line class="st2" x1="528.1" y1="929.5" x2="520.8" y2="929.5"/>
		<line class="st2" x1="524.4" y1="929.5" x2="524.4" y2="912.4"/>
		<circle class="st2" cx="363.2" cy="837" r="73.5"/>
		<line class="st2" x1="592.7" y1="779.5" x2="578.1" y2="779.5"/>
		<polyline class="st2" points="560.1,779.5 482.7,779.5 482.7,720.5 		"/>
		<line class="st2" x1="490.7" y1="778.6" x2="490.7" y2="679.5"/>
		<polyline class="st2" points="524.4,778.6 524.4,744.2 509.2,744.2 		"/>
		<line class="st2" x1="592.7" y1="750" x2="578.1" y2="750"/>
		<line class="st2" x1="563.6" y1="750" x2="524.4" y2="750"/>
		<line class="st2" x1="237.2" y1="775.5" x2="237.2" y2="726.5"/>
		<line class="st2" x1="158.3" y1="775.5" x2="158.3" y2="726.5"/>
		<line class="st2" x1="17.2" y1="726.5" x2="125.4" y2="726.5"/>
		<polyline class="st2" points="135.4,726.5 250.7,726.5 250.7,677.5 		"/>
		<line class="st2" x1="592.7" y1="720.5" x2="477.6" y2="720.5"/>
		<line class="st2" x1="461.9" y1="720.5" x2="396.5" y2="720.5"/>
		<line class="st2" x1="378.5" y1="720.5" x2="346.7" y2="720.5"/>
		<line class="st2" x1="327.9" y1="720.5" x2="302.3" y2="720.5"/>
		<line class="st2" x1="293.2" y1="720.5" x2="282.7" y2="720.5"/>
		<line class="st2" x1="270.8" y1="720.5" x2="250.7" y2="720.5"/>
		<line class="st2" x1="290.3" y1="718.4" x2="290.3" y2="679.5"/>
		<polyline class="st2" points="309.2,718.4 309.2,691.5 290.3,691.5 		"/>
		<line class="st2" x1="363.2" y1="719.3" x2="363.2" y2="679.5"/>
		<line class="st2" x1="310.7" y1="708.5" x2="314.1" y2="708.5"/>
		<line class="st2" x1="321" y1="708.5" x2="349.6" y2="708.5"/>
		<line class="st2" x1="356.2" y1="708.5" x2="362.6" y2="708.5"/>
		<line class="st2" x1="335.3" y1="708.5" x2="335.3" y2="679.5"/>
		<line class="st2" x1="429.2" y1="720.5" x2="429.2" y2="679.5"/>
		<line class="st2" x1="160.3" y1="726.5" x2="160.3" y2="668.5"/>
		<line class="st2" x1="99.7" y1="724.5" x2="99.7" y2="715.3"/>
		<line class="st2" x1="99.7" y1="709.5" x2="99.7" y2="690.8"/>
		<polyline class="st2" points="99.7,683.9 99.7,668.5 132.8,668.5 		"/>
		<line class="st2" x1="141" y1="668.5" x2="171.2" y2="668.5"/>
		<line class="st2" x1="178.5" y1="668.5" x2="246.7" y2="668.5"/>
		<line class="st2" x1="98.7" y1="704.5" x2="17.2" y2="704.5"/>
		<line class="st2" x1="98.7" y1="676.2" x2="67.7" y2="676.2"/>
		<polyline class="st2" points="67.7,703.3 67.7,661.9 60.3,661.9 		"/>
		<line class="st2" x1="52.5" y1="661.9" x2="32.7" y2="661.9"/>
		<line class="st2" x1="25.6" y1="661.9" x2="14.7" y2="661.9"/>
		<line class="st2" x1="41.9" y1="661.9" x2="41.9" y2="703.3"/>
		<line class="st2" x1="189.7" y1="667.5" x2="189.7" y2="653.5"/>
		<line class="st2" x1="189.7" y1="645.7" x2="189.7" y2="612.5"/>
		<line class="st2" x1="189.7" y1="604.8" x2="189.7" y2="576.5"/>
		<line class="st2" x1="189.7" y1="569.5" x2="189.7" y2="501.5"/>
		<line class="st2" x1="189.7" y1="494.6" x2="189.7" y2="469"/>
		<line class="st2" x1="189.7" y1="462.2" x2="189.7" y2="404.5"/>
		<line class="st2" x1="189.7" y1="398.2" x2="189.7" y2="323.5"/>
		<line class="st2" x1="189.7" y1="317.5" x2="189.7" y2="294.5"/>
		<line class="st2" x1="189.7" y1="288.6" x2="189.7" y2="246.5"/>
		<polyline class="st2" points="189.7,240.2 189.7,199.5 210.7,176.5 220.3,176.5 		"/>
		<line class="st2" x1="227.4" y1="176.5" x2="245.7" y2="176.5"/>
		<line class="st2" x1="190.7" y1="630.5" x2="245.4" y2="630.5"/>
		<line class="st2" x1="190.7" y1="590.7" x2="246.7" y2="590.7"/>
		<line class="st2" x1="190.7" y1="536.8" x2="246.7" y2="536.8"/>
		<line class="st2" x1="190.7" y1="483" x2="246.7" y2="483"/>
		<line class="st2" x1="190.7" y1="431.5" x2="246.7" y2="431.5"/>
		<line class="st2" x1="190.7" y1="386.6" x2="245.4" y2="386.6"/>
		<line class="st2" x1="190.7" y1="306.8" x2="246.7" y2="306.8"/>
		<line class="st2" x1="190.7" y1="279.9" x2="246.7" y2="279.9"/>
		<line class="st2" x1="190.7" y1="230.2" x2="247.7" y2="230.2"/>
		<line class="st2" x1="202.7" y1="185.3" x2="197.7" y2="181.5"/>
		<line class="st2" x1="191.6" y1="176.5" x2="185.7" y2="172.5"/>
		<polyline class="st2" points="192.7,148.5 192.7,160.5 181.2,176.5 127,176.5 		"/>
		<polyline class="st2" points="192.7,142.4 192.7,129.5 183.7,116.5 153.4,116.5 153.4,133.5 		"/>
		<line class="st2" x1="153.4" y1="139.9" x2="153.4" y2="159.5"/>
		<line class="st2" x1="153.7" y1="165.5" x2="153.7" y2="175.5"/>
		<line class="st2" x1="152.7" y1="123.5" x2="127" y2="123.5"/>
		<line class="st2" x1="151.9" y1="148.5" x2="126.7" y2="148.5"/>
		<line class="st2" x1="245.4" y1="108.6" x2="227.4" y2="108.6"/>
		<polyline class="st2" points="221.7,108.5 214.1,108.5 195.7,84.5 195.7,61.3 		"/>
		<line class="st2" x1="233.7" y1="59.5" x2="165.6" y2="59.5"/>
		<line class="st2" x1="157.6" y1="59.5" x2="137.7" y2="59.5"/>
		<polyline class="st2" points="137.7,37.3 137.7,90.6 120.7,90.6 		"/>
		<line class="st2" x1="112.8" y1="90.6" x2="15.7" y2="90.6"/>
		<line class="st2" x1="91.7" y1="91.5" x2="91.7" y2="100.8"/>
		<line class="st2" x1="91.7" y1="106.6" x2="91.7" y2="117.9"/>
		<polyline class="st2" points="16.8,117.9 98.3,117.9 98.3,126.6 		"/>
		<polyline class="st2" points="98.3,133 98.3,175.5 71,175.5 		"/>
		<line class="st2" x1="62.7" y1="175.5" x2="55.9" y2="175.5"/>
		<line class="st2" x1="49.7" y1="175.5" x2="45.7" y2="175.5"/>
		<line class="st2" x1="97.2" y1="142.4" x2="16.8" y2="142.4"/>
		<line class="st2" x1="59.3" y1="174.5" x2="59.3" y2="143.5"/>
		<line class="st2" x1="16.8" y1="176.5" x2="44.5" y2="176.5"/>
		<polyline class="st2" points="44.5,172.5 44.5,190.5 107.7,190.5 		"/>
		<polyline class="st2" points="115.6,190.5 125.9,190.5 125.9,116.5 		"/>
		<line class="st2" x1="85.7" y1="191.5" x2="85.7" y2="212.5"/>
		<line class="st2" x1="85.7" y1="218.6" x2="85.7" y2="256.5"/>
		<line class="st2" x1="85.7" y1="262.4" x2="85.7" y2="306"/>
		<line class="st2" x1="85.7" y1="312.4" x2="85.7" y2="341"/>
		<line class="st2" x1="85.7" y1="348.2" x2="85.7" y2="394.5"/>
		<line class="st2" x1="85.7" y1="401.3" x2="85.7" y2="443.5"/>
		<line class="st2" x1="85.7" y1="450.2" x2="85.7" y2="494.6"/>
		<line class="st2" x1="85.7" y1="501.5" x2="85.7" y2="626.5"/>
		<polyline class="st2" points="17.2,626.5 69.7,626.5 69.7,616.6 		"/>
		<line class="st2" x1="69.7" y1="608.8" x2="69.7" y2="591.5"/>
		<line class="st2" x1="85.7" y1="591.5" x2="80.7" y2="591.5"/>
		<line class="st2" x1="74.5" y1="591.5" x2="15.9" y2="591.5"/>
		<line class="st2" x1="17.2" y1="539" x2="84.3" y2="539"/>
		<line class="st2" x1="84.3" y1="483" x2="17.7" y2="483"/>
		<line class="st2" x1="17.2" y1="431.5" x2="84.3" y2="431.5"/>
		<line class="st2" x1="17.7" y1="386.6" x2="85.7" y2="386.6"/>
		<line class="st2" x1="84.6" y1="356.4" x2="79.7" y2="356.4"/>
		<line class="st2" x1="71" y1="356.4" x2="15.9" y2="356.4"/>
		<line class="st2" x1="62.7" y1="355.3" x2="62.7" y2="348.2"/>
		<line class="st2" x1="62.7" y1="341.9" x2="62.7" y2="335.3"/>
		<line class="st2" x1="84.6" y1="334.2" x2="17.2" y2="334.2"/>
		<line class="st2" x1="17.7" y1="281" x2="84.6" y2="281"/>
		<line class="st2" x1="17.7" y1="232.5" x2="85.7" y2="232.5"/>
		<rect x="124.3" y="233.5" class="st2" width="31.4" height="159"/>
		<rect x="124.3" y="416.2" class="st2" width="31.4" height="182.4"/>
		<text transform="matrix(1 0 0 1 261.7657 705.4039)" class="st3 st4">632</text>
		<text transform="matrix(1 0 0 1 378.8936 705.7877)" class="st3 st4">633</text>
		<text transform="matrix(1 0 0 1 455.4259 705.8297)" class="st3 st4">634</text>
		<text transform="matrix(1 0 0 1 524.4678 851.8297)" class="st3 st4">635А</text>
		<text transform="matrix(1 0 0 1 554.4893 996.7661)" class="st3 st4">635</text>
		<text transform="matrix(1 0 0 1 406.7237 921.8726)" class="st3 st4">Точка кипения</text>
		<text transform="matrix(1 0 0 1 71.0851 965.4899)" class="st3 st4">628</text>
		<text transform="matrix(1 0 0 1 71.4254 864.9995)" class="st3 st4">629</text>
		<text transform="matrix(1 0 0 1 72.234 812.4468)" class="st3 st4">630</text>
		<text transform="matrix(1 0 0 1 72.3404 753.1705)" class="st3 st4">631</text>
		<text transform="matrix(1 0 0 1 177.17 764.4039)" class="st3 st4">626</text>
		<text transform="matrix(1 0 0 1 213.4254 791.8082)" class="st3 st4">627</text>
		<text transform="matrix(1 0 0 1 206.0641 815.4683)" class="st3 st4">л</text>
		<text transform="matrix(1 0 0 1 155.213 929.3405)" class="st3 st4">т</text>
		<text transform="matrix(1 0 0 1 172.17 929.8297)" class="st3 st4">т</text>
		<text transform="matrix(1 0 0 1 205.9738 832.9263)" class="st3 st4">л</text>
		<text transform="matrix(1 0 0 1 204.9738 937.9263)" class="st3 st4">л</text>
		<text transform="matrix(1 0 0 1 205.9738 919.9263)" class="st3 st4">л</text>
		<text transform="matrix(1 0 0 1 205.9738 889.9263)" class="st3 st4">л</text>
		<text transform="matrix(1 0 0 1 205.9738 863.9263)" class="st3 st4">л</text>
		<text transform="matrix(1 0 0 1 193.0001 703.6382)" class="st3 st4">625</text>
		<text transform="matrix(1 0 0 1 116.3404 700.5748)" class="st3 st4">Холл</text>
		<text transform="matrix(1 0 0 1 83.1275 693.9362)" class="st3 st4">л</text>
		<text transform="matrix(1 0 0 1 209.5318 653.2764)" class="st3 st4">624</text>
		<text transform="matrix(1 0 0 1 208.234 616.8087)" class="st3 st4">623</text>
		<text transform="matrix(1 0 0 1 208.6808 566.085)" class="st3 st4">622</text>
		<text transform="matrix(1 0 0 1 208.7447 507.9785)" class="st3 st4">621</text>
		<text transform="matrix(1 0 0 1 209.3619 461.8297)" class="st3 st4">620</text>
		<text transform="matrix(1 0 0 1 208.8297 408.5318)" class="st3 st4">619</text>
		<text transform="matrix(1 0 0 1 209.4894 328.8297)" class="st3 st4">618</text>
		<text transform="matrix(1 0 0 1 209.0211 294.149)" class="st3 st4">617</text>
		<text transform="matrix(1 0 0 1 209.0851 251.8936)" class="st3 st4">616</text>
		<text transform="matrix(1 0 0 1 208.6383 208.1915)" class="st3 st4">615</text>
		<text transform="matrix(1 0 0 1 213.17 87.5532)" class="st3 st4">614</text>
		<text transform="matrix(1 0 0 1 173.1275 39.7662)" class="st3 st4">613</text>
		<text transform="matrix(1 0 0 1 78.213 66.213)" class="st3 st4">612</text>
		<text transform="matrix(1 0 0 1 47.7662 108.5742)" class="st3 st4">611</text>
		<text transform="matrix(1 0 0 1 47.3189 212.064)" class="st3 st4">610</text>
		<text transform="matrix(1 0 0 1 46.7662 259.4893)" class="st3 st4">609</text>
		<text transform="matrix(1 0 0 1 46.8722 313.0855)" class="st3 st4">608</text>
		<text transform="matrix(1 0 0 1 32.3829 348.4468)" class="st3 st4">607</text>
		<text transform="matrix(1 0 0 1 45.9576 374.2974)" class="st3 st4">606</text>
		<text transform="matrix(1 0 0 1 45.9576 408.0855)" class="st3 st4">605</text>
		<text transform="matrix(1 0 0 1 46.4894 452.3189)" class="st3 st4">604</text>
		<text transform="matrix(1 0 0 1 46.0211 507.7017)" class="st3 st4">603</text>
		<text transform="matrix(1 0 0 1 46.0641 576.5952)" class="st3 st4">602</text>
		<text transform="matrix(1 0 0 1 45.6383 616.8511)" class="st3 st4">601</text>
	</g>
</g>
</svg>
