<?xml version="1.0" encoding="utf-8"?>
<!-- Generator: Adobe Illustrator 24.3.0, SVG Export Plug-In . SVG Version: 6.00 Build 0)  -->
<svg version="1.1" id="Слой_1" xmlns="http://www.w3.org/2000/svg" xmlns:xlink="http://www.w3.org/1999/xlink" x="0px" y="0px"
	 viewBox="0 0 263 1103" style="enable-background:new 0 0 263 1103;" xml:space="preserve">
<style type="text/css">
	.st0{opacity:0.5;}
	.st1{fill:none;stroke:#000000;stroke-width:5;stroke-miterlimit:10;}
	.st2{font-family:'ArialMT';}
	.st3{font-size:12px;}
</style>
<g id="Слой_1_1_" class="st0">
</g>
<g id="Слой_2_1_">
	<g>
		<g>
			<path d="M226,16v50v10h10h10v1011H144v-1v-10h-10H19V60h108h10V50V16H226 M236,6H127v44H9v1036h125v11h122V66h-20V6L236,6z"/>
		</g>
		<line class="st1" x1="248.5" y1="133.5" x2="220.5" y2="133.5"/>
		<polyline class="st1" points="214.1,133.5 205.5,133.5 188.5,105.5 188.5,74.1 		"/>
		<line class="st1" x1="227.5" y1="72.5" x2="178.5" y2="72.5"/>
		<line class="st1" x1="171.7" y1="72.5" x2="149.2" y2="72.5"/>
		<line class="st1" x1="142.1" y1="72.5" x2="132.5" y2="72.5"/>
		<line class="st1" x1="166.5" y1="14.5" x2="166.5" y2="72.5"/>
		<polyline class="st1" points="132.5,58.6 132.5,94.5 115.5,94.5 		"/>
		<polyline class="st1" points="108.8,94.5 70.5,94.5 70.5,57.7 		"/>
		<line class="st1" x1="97.5" y1="95.5" x2="97.5" y2="115.5"/>
		<line class="st1" x1="97.5" y1="123.2" x2="97.5" y2="155.5"/>
		<polyline class="st1" points="97.5,162.6 97.5,213.5 73,213.5 		"/>
		<line class="st1" x1="67.9" y1="213.5" x2="58.5" y2="213.5"/>
		<line class="st1" x1="55" y1="213.5" x2="16.5" y2="213.5"/>
		<line class="st1" x1="95.5" y1="144.5" x2="13.7" y2="144.5"/>
		<line class="st1" x1="16.5" y1="173.2" x2="97.5" y2="173.2"/>
		<line class="st1" x1="63.2" y1="213.5" x2="63.2" y2="174.6"/>
		<polyline class="st1" points="50.5,209.5 50.5,230.1 101.5,230.1 		"/>
		<polyline class="st1" points="112.8,230.1 123,230.1 123,152.5 147.5,152.5 		"/>
		<line class="st1" x1="124" y1="182.3" x2="147.5" y2="182.3"/>
		<line class="st1" x1="147.5" y1="213.5" x2="147.5" y2="200.6"/>
		<line class="st1" x1="147.5" y1="194" x2="147.5" y2="171.2"/>
		<polyline class="st1" points="147.5,163.9 147.5,144.5 174.5,144.5 183.5,158.5 183.5,173.2 		"/>
		<polyline class="st1" points="183.5,180.8 183.5,195 172.8,213.5 124,213.5 		"/>
		<line class="st1" x1="177.2" y1="209.5" x2="183.5" y2="214.3"/>
		<line class="st1" x1="189.4" y1="219.8" x2="195.5" y2="224.5"/>
		<line class="st1" x1="246.6" y1="211.9" x2="220.5" y2="211.9"/>
		<polyline class="st1" points="213,211.9 205.7,211.9 186.5,239.5 186.5,294.8 		"/>
		<line class="st1" x1="186.5" y1="302.1" x2="186.5" y2="345.5"/>
		<line class="st1" x1="186.5" y1="353" x2="186.5" y2="400.8"/>
		<line class="st1" x1="186.5" y1="408.1" x2="186.5" y2="453.2"/>
		<line class="st1" x1="186.5" y1="460.3" x2="186.5" y2="477.9"/>
		<line class="st1" x1="186.5" y1="485.4" x2="186.5" y2="529"/>
		<line class="st1" x1="186.5" y1="535.9" x2="186.5" y2="575.5"/>
		<line class="st1" x1="186.5" y1="582.8" x2="186.5" y2="630.5"/>
		<line class="st1" x1="186.5" y1="638.1" x2="186.5" y2="693.5"/>
		<line class="st1" x1="186.5" y1="700.6" x2="186.5" y2="731.5"/>
		<line class="st1" x1="248.6" y1="731.5" x2="173.4" y2="731.5"/>
		<line class="st1" x1="166.8" y1="731.5" x2="137.5" y2="731.5"/>
		<polyline class="st1" points="130.6,731.5 95.5,731.5 95.5,744.5 		"/>
		<line class="st1" x1="95.5" y1="751.4" x2="95.5" y2="773.5"/>
		<line class="st1" x1="95.5" y1="781" x2="95.5" y2="792.5"/>
		<line class="st1" x1="155.5" y1="732.5" x2="155.5" y2="792.5"/>
		<line class="st1" x1="94.3" y1="762.5" x2="15.5" y2="762.5"/>
		<line class="st1" x1="94.3" y1="733.4" x2="67.2" y2="733.4"/>
		<polyline class="st1" points="67.2,761.7 67.2,718.5 56.8,718.5 		"/>
		<line class="st1" x1="49.9" y1="718.5" x2="35.5" y2="718.5"/>
		<line class="st1" x1="28.3" y1="718.5" x2="15.5" y2="718.5"/>
		<line class="st1" x1="42.7" y1="718.5" x2="42.7" y2="761.7"/>
		<line class="st1" x1="248.6" y1="665.8" x2="186.5" y2="665.8"/>
		<line class="st1" x1="248.6" y1="608.8" x2="187.5" y2="608.8"/>
		<line class="st1" x1="247.5" y1="552.5" x2="186.5" y2="552.5"/>
		<line class="st1" x1="247.5" y1="498.1" x2="186.5" y2="498.1"/>
		<line class="st1" x1="247.5" y1="469.1" x2="187.5" y2="469.1"/>
		<line class="st1" x1="248.6" y1="441" x2="187.5" y2="441"/>
		<line class="st1" x1="247.5" y1="385.4" x2="187.5" y2="385.4"/>
		<line class="st1" x1="248.5" y1="332.6" x2="187.5" y2="332.6"/>
		<line class="st1" x1="247.5" y1="281.2" x2="186.5" y2="281.2"/>
		<rect x="122.5" y="274.5" class="st1" width="28" height="120.9"/>
		<rect x="122.5" y="413.9" class="st1" width="28" height="110.9"/>
		<rect x="122.5" y="543" class="st1" width="28" height="122.8"/>
		<line class="st1" x1="87.5" y1="231.5" x2="87.5" y2="254.5"/>
		<line class="st1" x1="87.5" y1="261.7" x2="87.5" y2="304.5"/>
		<line class="st1" x1="87.5" y1="311" x2="87.5" y2="365.4"/>
		<line class="st1" x1="87.5" y1="372.1" x2="87.5" y2="409.2"/>
		<line class="st1" x1="87.5" y1="416.3" x2="87.5" y2="459.4"/>
		<line class="st1" x1="87.5" y1="466.6" x2="87.5" y2="505"/>
		<line class="st1" x1="87.5" y1="511.9" x2="87.5" y2="565.9"/>
		<line class="st1" x1="87.5" y1="573" x2="87.5" y2="684.6"/>
		<polyline class="st1" points="17.5,696.5 69,696.5 69,685.5 		"/>
		<line class="st1" x1="68.5" y1="678.5" x2="68.5" y2="664.5"/>
		<line class="st1" x1="15.5" y1="664.5" x2="74.5" y2="664.5"/>
		<line class="st1" x1="80.8" y1="664.5" x2="87.5" y2="664.5"/>
		<line class="st1" x1="17.5" y1="606.6" x2="86.3" y2="606.6"/>
		<line class="st1" x1="17.5" y1="549.7" x2="87.5" y2="549.7"/>
		<line class="st1" x1="17.5" y1="522.3" x2="73" y2="522.3"/>
		<line class="st1" x1="79.7" y1="522.3" x2="86.3" y2="522.3"/>
		<line class="st1" x1="65.5" y1="521.5" x2="65.5" y2="511.9"/>
		<line class="st1" x1="65.5" y1="505" x2="65.5" y2="498.1"/>
		<line class="st1" x1="17.5" y1="498.1" x2="86.3" y2="498.1"/>
		<line class="st1" x1="17.5" y1="445.9" x2="86.3" y2="445.9"/>
		<line class="st1" x1="16.5" y1="385.4" x2="87.5" y2="385.4"/>
		<line class="st1" x1="17.5" y1="329" x2="87.5" y2="329"/>
		<line class="st1" x1="16.5" y1="279.4" x2="86.3" y2="279.4"/>
		<line class="st1" x1="248.6" y1="792.5" x2="150.5" y2="792.5"/>
		<line class="st1" x1="134.8" y1="792.5" x2="15.5" y2="792.5"/>
		<line class="st1" x1="162.5" y1="794.5" x2="162.5" y2="814.6"/>
		<polyline class="st1" points="162.5,827.9 162.5,872.5 229.5,872.5 229.5,1029.5 224.5,1029.5 		"/>
		<line class="st1" x1="215.9" y1="1029.5" x2="209.2" y2="1029.5"/>
		<polyline class="st1" points="199.5,1029.5 189.5,1029.5 189.5,955.7 		"/>
		<line class="st1" x1="189.5" y1="947.2" x2="189.5" y2="936.5"/>
		<line class="st1" x1="189.5" y1="927.7" x2="189.5" y2="906.8"/>
		<line class="st1" x1="189.5" y1="898.1" x2="189.5" y2="886.6"/>
		<line class="st1" x1="189.5" y1="878.3" x2="189.5" y2="874.1"/>
		<line class="st1" x1="191" y1="892.3" x2="228.1" y2="892.3"/>
		<line class="st1" x1="191" y1="910.8" x2="228.1" y2="910.8"/>
		<line class="st1" x1="189.5" y1="921.9" x2="228.1" y2="921.9"/>
		<line class="st1" x1="191" y1="941.9" x2="228.1" y2="941.9"/>
		<line class="st1" x1="191" y1="976.6" x2="228.8" y2="976.6"/>
		<line class="st1" x1="191" y1="998.3" x2="228.1" y2="998.3"/>
		<line class="st1" x1="191" y1="1019.7" x2="228.8" y2="1019.7"/>
		<line class="st1" x1="212.6" y1="1029.5" x2="212.6" y2="1019.7"/>
		<line class="st1" x1="247.4" y1="976.6" x2="230.6" y2="976.6"/>
		<line class="st1" x1="187.9" y1="1019.7" x2="180.6" y2="1019.7"/>
		<line class="st1" x1="173.4" y1="1019.7" x2="162.5" y2="1019.7"/>
		<polyline class="st1" points="153.7,1019.7 148.3,1019.7 148.3,972.8 187.9,972.8 		"/>
		<line class="st1" x1="168.1" y1="1018.8" x2="168.1" y2="973.5"/>
		<polyline class="st1" points="184.2,1089 184.2,1044.8 108.5,1044.8 		"/>
		<polyline class="st1" points="108.5,1078.8 108.5,1000.3 67.2,1000.3 		"/>
		<polyline class="st1" points="53.5,1000.3 48.8,1000.3 48.8,1025.5 		"/>
		<line class="st1" x1="48.5" y1="1034.5" x2="48.5" y2="1077.4"/>
		<line class="st1" x1="108.5" y1="983.9" x2="108.5" y2="966.5"/>
		<line class="st1" x1="108.5" y1="953.7" x2="108.5" y2="933.5"/>
		<line class="st1" x1="108.5" y1="920.3" x2="108.5" y2="886.6"/>
		<line class="st1" x1="108.5" y1="874.1" x2="108.5" y2="840.3"/>
		<line class="st1" x1="108.5" y1="827.9" x2="108.5" y2="792.5"/>
		<line class="st1" x1="77.5" y1="809.5" x2="77.5" y2="831.4"/>
		<line class="st1" x1="77.5" y1="844.8" x2="77.5" y2="851.4"/>
		<line class="st1" x1="63.2" y1="910.8" x2="63.2" y2="941.9"/>
		<line class="st1" x1="17.5" y1="976.6" x2="108.5" y2="976.6"/>
		<line class="st1" x1="17.5" y1="941.9" x2="106.5" y2="941.9"/>
		<line class="st1" x1="17.5" y1="910.8" x2="39.2" y2="910.8"/>
		<line class="st1" x1="48.5" y1="910.8" x2="108.5" y2="910.8"/>
		<line class="st1" x1="17.5" y1="851.4" x2="108.5" y2="851.4"/>
		<line class="st1" x1="17.5" y1="820.5" x2="76.1" y2="820.5"/>
		<text transform="matrix(1 0 0 1 35.1274 685.915)" class="st2 st3">701</text>
		<text transform="matrix(1 0 0 1 43.1489 639.5317)" class="st2 st3">702</text>
		<text transform="matrix(1 0 0 1 43.8296 586.4893)" class="st2 st3">703</text>
		<text transform="matrix(1 0 0 1 42.8726 543.4253)" class="st2 st3">704</text>
		<text transform="matrix(1 0 0 1 33.5747 514.7021)" class="st2 st3">705</text>
		<text transform="matrix(1 0 0 1 45.6172 469.6597)" class="st2 st3">706</text>
		<text transform="matrix(1 0 0 1 45.9785 415.9785)" class="st2 st3">707</text>
		<text transform="matrix(1 0 0 1 46.3618 372.5747)" class="st2 st3">708</text>
		<text transform="matrix(1 0 0 1 46.7446 311.1704)" class="st2 st3">709</text>
		<text transform="matrix(1 0 0 1 46.4043 260.085)" class="st2 st3">710</text>
		<text transform="matrix(1 0 0 1 46.4043 119.3403)" class="st2 st3">711</text>
		<text transform="matrix(1 0 0 1 91.4683 81.2764)" class="st2 st3">712</text>
		<text transform="matrix(1 0 0 1 141.7661 47.1704)" class="st2 st3">713</text>
		<text transform="matrix(1 0 0 1 192.085 46.7871)" class="st2 st3">714</text>
		<text transform="matrix(1 0 0 1 212.7661 109.7236)" class="st2 st3">715</text>
		<text transform="matrix(1 0 0 1 211.4468 254.3193)" class="st2 st3">716</text>
		<text transform="matrix(1 0 0 1 206.7661 303.3403)" class="st2 st3">717</text>
		<text transform="matrix(1 0 0 1 205.4683 354.5532)" class="st2 st3">718</text>
		<text transform="matrix(1 0 0 1 205.8726 408.1489)" class="st2 st3">719</text>
		<text transform="matrix(1 0 0 1 205.8726 460.8086)" class="st2 st3">720</text>
		<text transform="matrix(1 0 0 1 205.8936 485.7236)" class="st2 st3">721</text>
		<text transform="matrix(1 0 0 1 204.936 535.9785)" class="st2 st3">722</text>
		<text transform="matrix(1 0 0 1 206.6597 582.915)" class="st2 st3">723</text>
		<text transform="matrix(1 0 0 1 206.3403 639.5107)" class="st2 st3">724</text>
		<text transform="matrix(1 0 0 1 207.0425 700.7656)" class="st2 st3">725</text>
		<text transform="matrix(1 0 0 1 186.7871 762.8506)" class="st2 st3">726</text>
		<text transform="matrix(1 0 0 1 186.8296 827.7871)" class="st2 st3">727</text>
		<text transform="matrix(1 0 0 1 71.5107 993.0215)" class="st2 st3">728</text>
		<text transform="matrix(1 0 0 1 48.7661 884.3613)" class="st2 st3">729</text>
		<text transform="matrix(1 0 0 1 82.9785 833.4473)" class="st2 st3">730</text>
		<text transform="matrix(1 0 0 1 199.7871 885.1279)" class="st2 st3">л</text>
		<text transform="matrix(1 0 0 1 199.931 903.139)" class="st2 st3">л</text>
		<text transform="matrix(1 0 0 1 199.931 936.139)" class="st2 st3">л</text>
		<text transform="matrix(1 0 0 1 199.931 961.139)" class="st2 st3">л</text>
	</g>
</g>
</svg>
