<svg width="40" height="40" viewBox="0 0 40 40" fill="none" xmlns="http://www.w3.org/2000/svg">
<path fill-rule="evenodd" clip-rule="evenodd" d="M16.6666 3.33333C16.6669 2.98575 16.5585 2.64676 16.3566 2.36382C16.1547 2.08087 15.8694 1.86812 15.5407 1.75534C15.2119 1.64257 14.8561 1.6354 14.523 1.73486C14.19 1.83431 13.8963 2.03541 13.6832 2.31L2.01656 17.31C1.78897 17.6026 1.66541 17.9627 1.66541 18.3333C1.66541 18.704 1.78897 19.0641 2.01656 19.3567L13.6832 34.3567C13.8963 34.6313 14.19 34.8324 14.523 34.9318C14.8561 35.0313 15.2119 35.0241 15.5407 34.9113C15.8694 34.7985 16.1547 34.5858 16.3566 34.3029C16.5585 34.0199 16.6669 33.6809 16.6666 33.3333V26.6833C25.6316 26.87 29.9382 28.5717 32.1016 30.4217C34.1582 32.18 34.5349 34.2483 34.9266 36.415L35.0282 36.9733C35.103 37.3729 35.3212 37.7313 35.6418 37.9811C35.9624 38.231 36.3632 38.3552 36.7689 38.3302C37.1746 38.3052 37.5571 38.1328 37.8446 37.8455C38.1321 37.5582 38.3047 37.1757 38.3299 36.77C38.6149 32.19 38.1866 25.5533 34.9516 20.0017C31.8116 14.6133 26.1566 10.47 16.6666 10.0367V3.33333Z" fill="black"/>
</svg>
